<?xml version="1.0" encoding="UTF-8"?>
<svg xmlns="http://www.w3.org/2000/svg" version="1.1" xmlns:xlink="http://www.w3.org/1999/xlink" viewBox="0 0 500 500">
  <defs>
    <style>
      .cls-1 {
        fill: url(#linear-gradient-15);
      }

      .cls-2 {
        fill: url(#linear-gradient-13);
      }

      .cls-3 {
        fill: url(#linear-gradient-44);
      }

      .cls-3, .cls-4, .cls-5, .cls-6, .cls-7, .cls-8, .cls-9, .cls-10, .cls-11, .cls-12, .cls-13, .cls-14, .cls-15, .cls-16, .cls-17, .cls-18, .cls-19, .cls-20, .cls-21, .cls-22, .cls-23, .cls-24, .cls-25, .cls-26, .cls-27, .cls-28, .cls-29, .cls-30, .cls-31, .cls-32, .cls-33, .cls-34, .cls-35, .cls-36, .cls-37, .cls-38, .cls-39, .cls-40, .cls-41, .cls-42, .cls-43, .cls-44, .cls-45 {
        opacity: .6;
      }

      .cls-46 {
        fill: #008cff;
      }

      .cls-4 {
        fill: url(#linear-gradient-30);
      }

      .cls-5 {
        fill: url(#linear-gradient-93);
      }

      .cls-6 {
        fill: url(#linear-gradient-26);
      }

      .cls-7 {
        fill: url(#linear-gradient-38);
      }

      .cls-47 {
        fill: url(#linear-gradient-46);
      }

      .cls-8 {
        fill: url(#linear-gradient-95);
      }

      .cls-9 {
        fill: url(#linear-gradient-67);
      }

      .cls-10 {
        fill: url(#linear-gradient-22);
      }

      .cls-48 {
        fill: url(#linear-gradient-70);
      }

      .cls-49 {
        fill: #495058;
      }

      .cls-11 {
        fill: url(#linear-gradient-7);
      }

      .cls-50 {
        fill: url(#linear-gradient-60);
      }

      .cls-51 {
        fill: url(#linear-gradient-2);
      }

      .cls-52 {
        fill: #495158;
      }

      .cls-53 {
        fill: url(#linear-gradient-64);
      }

      .cls-12 {
        fill: url(#linear-gradient-24);
      }

      .cls-54 {
        fill: url(#linear-gradient-56);
      }

      .cls-13 {
        fill: url(#linear-gradient-5);
      }

      .cls-55 {
        fill: url(#linear-gradient-43);
      }

      .cls-56 {
        fill: url(#linear-gradient-25);
      }

      .cls-57 {
        fill: url(#linear-gradient-82);
      }

      .cls-14 {
        fill: url(#linear-gradient-77);
      }

      .cls-58 {
        fill: url(#linear-gradient-10);
      }

      .cls-59 {
        fill: url(#linear-gradient-12);
      }

      .cls-15 {
        fill: url(#linear-gradient-73);
      }

      .cls-60 {
        fill: url(#linear-gradient-27);
      }

      .cls-61 {
        fill: url(#linear-gradient-68);
      }

      .cls-16 {
        fill: url(#linear-gradient-89);
      }

      .cls-62 {
        fill: #60646d;
      }

      .cls-63 {
        fill: url(#linear-gradient-37);
      }

      .cls-17 {
        fill: url(#linear-gradient-79);
      }

      .cls-64 {
        fill: url(#linear-gradient-39);
      }

      .cls-18 {
        fill: url(#linear-gradient-69);
      }

      .cls-65 {
        fill: #1e1e1e;
      }

      .cls-66 {
        fill: url(#linear-gradient-52);
      }

      .cls-67 {
        fill: url(#linear-gradient-58);
      }

      .cls-68 {
        fill: url(#linear-gradient-47);
      }

      .cls-69 {
        fill: url(#linear-gradient-74);
      }

      .cls-70 {
        fill: url(#linear-gradient-97);
      }

      .cls-71 {
        fill: url(#linear-gradient-72);
      }

      .cls-72 {
        fill: url(#linear-gradient-4);
      }

      .cls-73 {
        fill: url(#linear-gradient-35);
      }

      .cls-19 {
        fill: url(#linear-gradient-57);
      }

      .cls-74 {
        fill: url(#linear-gradient-76);
      }

      .cls-20 {
        fill: url(#linear-gradient-28);
      }

      .cls-21 {
        fill: url(#linear-gradient-53);
      }

      .cls-75 {
        fill: url(#linear-gradient-96);
      }

      .cls-76 {
        fill: url(#linear-gradient-49);
      }

      .cls-77 {
        fill: url(#linear-gradient-3);
      }

      .cls-22 {
        fill: url(#linear-gradient-40);
      }

      .cls-23 {
        fill: url(#linear-gradient-87);
      }

      .cls-24 {
        fill: url(#linear-gradient-14);
      }

      .cls-25 {
        fill: url(#linear-gradient-42);
      }

      .cls-26 {
        fill: url(#linear-gradient-59);
      }

      .cls-78 {
        fill: url(#linear-gradient-94);
      }

      .cls-27 {
        fill: url(#linear-gradient-75);
      }

      .cls-79 {
        fill: #231f20;
      }

      .cls-80 {
        fill: url(#linear-gradient-54);
      }

      .cls-28 {
        fill: url(#linear-gradient-81);
      }

      .cls-81 {
        fill: url(#linear-gradient-92);
      }

      .cls-82 {
        fill: url(#linear-gradient-90);
      }

      .cls-83 {
        fill: url(#linear-gradient-33);
      }

      .cls-84 {
        fill: url(#linear-gradient-78);
      }

      .cls-85 {
        fill: url(#linear-gradient-8);
      }

      .cls-29 {
        fill: url(#linear-gradient-63);
      }

      .cls-86 {
        fill: url(#linear-gradient-66);
      }

      .cls-30 {
        fill: url(#linear-gradient-65);
      }

      .cls-31 {
        fill: url(#linear-gradient-61);
      }

      .cls-32 {
        fill: url(#linear-gradient-32);
      }

      .cls-87 {
        fill: url(#linear-gradient-88);
      }

      .cls-33 {
        fill: url(#linear-gradient-16);
      }

      .cls-34 {
        fill: url(#linear-gradient-85);
      }

      .cls-88 {
        fill: #2b2b2b;
      }

      .cls-35 {
        fill: url(#linear-gradient-71);
      }

      .cls-89 {
        fill: url(#linear-gradient-62);
      }

      .cls-90 {
        fill: url(#linear-gradient-29);
      }

      .cls-36 {
        fill: url(#linear-gradient-34);
      }

      .cls-91 {
        fill: #303438;
      }

      .cls-37 {
        fill: url(#linear-gradient-55);
      }

      .cls-92 {
        fill: url(#linear-gradient-17);
      }

      .cls-93 {
        fill: url(#linear-gradient-50);
      }

      .cls-94 {
        fill: #1d1d1d;
      }

      .cls-38 {
        fill: url(#linear-gradient-51);
      }

      .cls-39 {
        fill: url(#linear-gradient-36);
      }

      .cls-95 {
        fill: url(#linear-gradient-19);
      }

      .cls-96 {
        fill: url(#linear-gradient-80);
      }

      .cls-97 {
        fill: url(#linear-gradient-6);
      }

      .cls-40 {
        fill: url(#linear-gradient-20);
      }

      .cls-98 {
        fill: #38a7e5;
      }

      .cls-99 {
        fill: #4a4d4f;
      }

      .cls-100 {
        fill: url(#linear-gradient-21);
      }

      .cls-101 {
        fill: url(#linear-gradient-45);
      }

      .cls-41 {
        fill: url(#linear-gradient-83);
      }

      .cls-102 {
        fill: url(#linear-gradient-84);
      }

      .cls-103 {
        fill: #8d919c;
      }

      .cls-104 {
        fill: url(#linear-gradient-48);
      }

      .cls-105 {
        fill: url(#linear-gradient-86);
      }

      .cls-106 {
        fill: url(#linear-gradient-41);
      }

      .cls-42 {
        fill: url(#linear-gradient-11);
      }

      .cls-43 {
        fill: url(#linear-gradient-18);
      }

      .cls-107 {
        fill: url(#linear-gradient);
      }

      .cls-44 {
        fill: url(#linear-gradient-9);
      }

      .cls-108 {
        fill: url(#linear-gradient-23);
      }

      .cls-109 {
        fill: url(#linear-gradient-31);
      }

      .cls-45 {
        fill: url(#linear-gradient-91);
      }

      .cls-110 {
        fill: #596066;
      }
    </style>
    <linearGradient id="linear-gradient" x1="12.4" y1="273.6" x2="165.3" y2="273.6" gradientUnits="userSpaceOnUse">
      <stop offset="0" stop-color="#d1d3d4"/>
      <stop offset=".1" stop-color="#bbbec2"/>
      <stop offset=".3" stop-color="#a5a8b0"/>
      <stop offset=".5" stop-color="#9699a3"/>
      <stop offset=".7" stop-color="#8c909b"/>
      <stop offset="1" stop-color="#8a8e99"/>
    </linearGradient>
    <linearGradient id="linear-gradient-2" x1="12.4" y1="193.8" x2="165.3" y2="193.8" xlink:href="#linear-gradient"/>
    <linearGradient id="linear-gradient-3" x1="12.4" y1="430.7" x2="165.3" y2="430.7" xlink:href="#linear-gradient"/>
    <linearGradient id="linear-gradient-4" x1="12.4" y1="124.9" x2="165.3" y2="124.9" xlink:href="#linear-gradient"/>
    <linearGradient id="linear-gradient-5" x1="165.3" y1="432.7" x2="165.3" y2="189" gradientUnits="userSpaceOnUse">
      <stop offset="0" stop-color="#60666d"/>
      <stop offset=".2" stop-color="#61676e"/>
      <stop offset=".3" stop-color="#686e74"/>
      <stop offset=".4" stop-color="#74797f"/>
      <stop offset=".4" stop-color="#85898e"/>
      <stop offset=".4" stop-color="#9b9da1"/>
      <stop offset=".4" stop-color="#a7a9ac"/>
      <stop offset=".5" stop-color="#9ea1a4"/>
      <stop offset=".5" stop-color="#84888d"/>
      <stop offset=".5" stop-color="#6e7379"/>
      <stop offset=".6" stop-color="#5d636a"/>
      <stop offset=".7" stop-color="#51585f"/>
      <stop offset=".7" stop-color="#4a5159"/>
      <stop offset="1" stop-color="#495058"/>
    </linearGradient>
    <linearGradient id="linear-gradient-6" x1="12.4" y1="193.9" x2="165.3" y2="193.9" xlink:href="#linear-gradient"/>
    <linearGradient id="linear-gradient-7" x1="43.5" x2="43.5" y2="189" xlink:href="#linear-gradient-5"/>
    <linearGradient id="linear-gradient-8" x1="12.4" y1="430.9" x2="165.3" y2="430.9" xlink:href="#linear-gradient"/>
    <linearGradient id="linear-gradient-9" x1="51.1" x2="51.1" xlink:href="#linear-gradient-5"/>
    <linearGradient id="linear-gradient-10" x1="12.4" y1="423" x2="165.3" y2="423" xlink:href="#linear-gradient"/>
    <linearGradient id="linear-gradient-11" x1="162.6" x2="162.6" xlink:href="#linear-gradient-5"/>
    <linearGradient id="linear-gradient-12" x1="12.4" y1="201.7" x2="165.3" y2="201.7" xlink:href="#linear-gradient"/>
    <linearGradient id="linear-gradient-13" x1="342.9" y1="273.6" x2="495.9" y2="273.6" gradientUnits="userSpaceOnUse">
      <stop offset="0" stop-color="#8a8e99"/>
      <stop offset=".5" stop-color="#8b8f9a"/>
      <stop offset=".7" stop-color="#9296a0"/>
      <stop offset=".8" stop-color="#9ea1aa"/>
      <stop offset=".9" stop-color="#afb2b8"/>
      <stop offset="1" stop-color="#c5c7ca"/>
      <stop offset="1" stop-color="#d1d3d4"/>
    </linearGradient>
    <linearGradient id="linear-gradient-14" x1="463.3" y1="432.7" x2="463.3" y2="394.1" xlink:href="#linear-gradient-5"/>
    <linearGradient id="linear-gradient-15" x1="342.9" y1="430.7" x2="432.8" y2="430.7" xlink:href="#linear-gradient-13"/>
    <linearGradient id="linear-gradient-16" x1="462.6" y1="432.7" x2="462.6" y2="189" xlink:href="#linear-gradient-5"/>
    <linearGradient id="linear-gradient-17" x1="342.9" y1="430.5" x2="495.9" y2="430.5" xlink:href="#linear-gradient-13"/>
    <linearGradient id="linear-gradient-18" x1="463.1" y1="432.7" x2="463.1" y2="189" xlink:href="#linear-gradient-5"/>
    <linearGradient id="linear-gradient-19" x1="342.9" y1="430.6" x2="495.9" y2="430.6" xlink:href="#linear-gradient-13"/>
    <linearGradient id="linear-gradient-20" x1="463" y1="432.7" x2="463" y2="370.2" xlink:href="#linear-gradient-5"/>
    <linearGradient id="linear-gradient-21" x1="342.9" y1="430.6" x2="495.9" y2="430.6" xlink:href="#linear-gradient-13"/>
    <linearGradient id="linear-gradient-22" x1="457.2" y1="432.7" x2="457.2" y2="189" xlink:href="#linear-gradient-5"/>
    <linearGradient id="linear-gradient-23" x1="342.9" y1="427.3" x2="495.9" y2="427.3" xlink:href="#linear-gradient-13"/>
    <linearGradient id="linear-gradient-24" x1="464.3" y1="432.7" x2="464.3" y2="189" xlink:href="#linear-gradient-5"/>
    <linearGradient id="linear-gradient-25" x1="342.9" y1="430.9" x2="495.9" y2="430.9" xlink:href="#linear-gradient-13"/>
    <linearGradient id="linear-gradient-26" x1="343" y1="432.7" x2="343" y2="189" xlink:href="#linear-gradient-5"/>
    <linearGradient id="linear-gradient-27" x1="342.9" y1="195.8" x2="495.9" y2="195.8" xlink:href="#linear-gradient-13"/>
    <linearGradient id="linear-gradient-28" x1="460.6" y1="432.7" x2="460.6" y2="189" xlink:href="#linear-gradient-5"/>
    <linearGradient id="linear-gradient-29" x1="342.9" y1="429.7" x2="495.9" y2="429.7" xlink:href="#linear-gradient-13"/>
    <linearGradient id="linear-gradient-30" x1="458.5" y1="432.7" x2="458.5" y2="367.7" xlink:href="#linear-gradient-5"/>
    <linearGradient id="linear-gradient-31" x1="342.9" y1="428.3" x2="428.4" y2="428.3" xlink:href="#linear-gradient-13"/>
    <linearGradient id="linear-gradient-32" x1="463.5" y1="432.7" x2="463.5" y2="189" xlink:href="#linear-gradient-5"/>
    <linearGradient id="linear-gradient-33" x1="342.9" y1="430.7" x2="495.9" y2="430.7" xlink:href="#linear-gradient-13"/>
    <linearGradient id="linear-gradient-34" x1="459" y1="432.7" x2="459" y2="189" xlink:href="#linear-gradient-5"/>
    <linearGradient id="linear-gradient-35" x1="342.9" y1="428.7" x2="495.9" y2="428.7" xlink:href="#linear-gradient-13"/>
    <linearGradient id="linear-gradient-36" x1="462.3" y1="432.7" x2="462.3" y2="189" xlink:href="#linear-gradient-5"/>
    <linearGradient id="linear-gradient-37" x1="342.9" y1="430.4" x2="495.9" y2="430.4" xlink:href="#linear-gradient-13"/>
    <linearGradient id="linear-gradient-38" x1="343.1" y1="432.7" x2="343.1" y2="189" xlink:href="#linear-gradient-5"/>
    <linearGradient id="linear-gradient-39" x1="342.9" y1="196.8" x2="372.2" y2="196.8" xlink:href="#linear-gradient-13"/>
    <linearGradient id="linear-gradient-40" x1="457.8" y1="432.7" x2="457.8" y2="189" xlink:href="#linear-gradient-5"/>
    <linearGradient id="linear-gradient-41" x1="342.9" y1="427.8" x2="495.9" y2="427.8" xlink:href="#linear-gradient-13"/>
    <linearGradient id="linear-gradient-42" x1="343" y1="432.7" x2="343" y2="189" xlink:href="#linear-gradient-5"/>
    <linearGradient id="linear-gradient-43" x1="342.9" y1="194.9" x2="495.9" y2="194.9" xlink:href="#linear-gradient-13"/>
    <linearGradient id="linear-gradient-44" x1="461.6" y1="432.7" x2="461.6" y2="189" xlink:href="#linear-gradient-5"/>
    <linearGradient id="linear-gradient-45" x1="342.9" y1="430.1" x2="495.9" y2="430.1" xlink:href="#linear-gradient-13"/>
    <linearGradient id="linear-gradient-46" x1="257.3" y1="229.3" x2="252.2" y2="57.4" gradientUnits="userSpaceOnUse">
      <stop offset="0" stop-color="#414042"/>
      <stop offset="0" stop-color="#353234"/>
      <stop offset=".2" stop-color="#2a2728"/>
      <stop offset=".4" stop-color="#242021"/>
      <stop offset="1" stop-color="#231f20"/>
    </linearGradient>
    <linearGradient id="linear-gradient-47" x1="160.1" y1="232.1" x2="155" y2="60.2" xlink:href="#linear-gradient-46"/>
    <linearGradient id="linear-gradient-48" x1="354.3" y1="226.4" x2="349.3" y2="54.5" xlink:href="#linear-gradient-46"/>
    <linearGradient id="linear-gradient-49" x1="254.7" y1="229.4" x2="249.6" y2="57.5" xlink:href="#linear-gradient-46"/>
    <linearGradient id="linear-gradient-50" x1="339.8" y1="226.9" x2="334.7" y2="55" xlink:href="#linear-gradient-46"/>
    <linearGradient id="linear-gradient-51" x1="168.6" x2="168.6" xlink:href="#linear-gradient-5"/>
    <linearGradient id="linear-gradient-52" x1="169.5" y1="231.9" x2="164.5" y2="60" xlink:href="#linear-gradient-46"/>
    <linearGradient id="linear-gradient-53" x1="319.2" y1="432.7" x2="319.2" y2="189" xlink:href="#linear-gradient-5"/>
    <linearGradient id="linear-gradient-54" x1="319.5" y1="227.5" x2="314.4" y2="55.6" xlink:href="#linear-gradient-46"/>
    <linearGradient id="linear-gradient-55" x1="187.5" x2="187.5" y2="189" xlink:href="#linear-gradient-5"/>
    <linearGradient id="linear-gradient-56" x1="187.9" y1="231.3" x2="182.9" y2="59.4" xlink:href="#linear-gradient-46"/>
    <linearGradient id="linear-gradient-57" x1="165.5" x2="165.5" xlink:href="#linear-gradient-5"/>
    <linearGradient id="linear-gradient-58" x1="166.6" y1="232" x2="161.5" y2="60" xlink:href="#linear-gradient-46"/>
    <linearGradient id="linear-gradient-59" x1="165.9" x2="165.9" xlink:href="#linear-gradient-5"/>
    <linearGradient id="linear-gradient-60" x1="166.9" y1="231.9" x2="161.9" y2="60" xlink:href="#linear-gradient-46"/>
    <linearGradient id="linear-gradient-61" x1="166.4" x2="166.4" y2="189" xlink:href="#linear-gradient-5"/>
    <linearGradient id="linear-gradient-62" x1="167.4" y1="231.9" x2="162.4" y2="60" xlink:href="#linear-gradient-46"/>
    <linearGradient id="linear-gradient-63" x1="176.4" x2="176.4" xlink:href="#linear-gradient-5"/>
    <linearGradient id="linear-gradient-64" x1="177" y1="231.6" x2="172" y2="59.7" xlink:href="#linear-gradient-46"/>
    <linearGradient id="linear-gradient-65" x1="173.5" x2="173.5" xlink:href="#linear-gradient-5"/>
    <linearGradient id="linear-gradient-66" x1="174.2" y1="231.7" x2="169.1" y2="59.8" xlink:href="#linear-gradient-46"/>
    <linearGradient id="linear-gradient-67" x1="327.9" y1="432.7" x2="327.9" y2="189" xlink:href="#linear-gradient-5"/>
    <linearGradient id="linear-gradient-68" x1="328.3" y1="227.2" x2="323.2" y2="55.3" xlink:href="#linear-gradient-46"/>
    <linearGradient id="linear-gradient-69" x1="180.3" x2="180.3" xlink:href="#linear-gradient-5"/>
    <linearGradient id="linear-gradient-70" x1="180.8" y1="231.5" x2="175.7" y2="59.6" xlink:href="#linear-gradient-46"/>
    <linearGradient id="linear-gradient-71" x1="178.2" x2="178.2" xlink:href="#linear-gradient-5"/>
    <linearGradient id="linear-gradient-72" x1="178.7" y1="231.6" x2="173.7" y2="59.7" xlink:href="#linear-gradient-46"/>
    <linearGradient id="linear-gradient-73" x1="339" y1="432.7" x2="339" y2="189" xlink:href="#linear-gradient-5"/>
    <linearGradient id="linear-gradient-74" x1="339.7" y1="226.9" x2="334.6" y2="55" xlink:href="#linear-gradient-46"/>
    <linearGradient id="linear-gradient-75" x1="333.9" y1="432.7" x2="333.9" y2="189" xlink:href="#linear-gradient-5"/>
    <linearGradient id="linear-gradient-76" x1="334.4" y1="227" x2="329.3" y2="55.1" xlink:href="#linear-gradient-46"/>
    <linearGradient id="linear-gradient-77" x1="333" y1="432.7" x2="333" y2="189" xlink:href="#linear-gradient-5"/>
    <linearGradient id="linear-gradient-78" x1="333.5" y1="227" x2="328.4" y2="55.1" xlink:href="#linear-gradient-46"/>
    <linearGradient id="linear-gradient-79" x1="169.7" x2="169.7" y2="189" xlink:href="#linear-gradient-5"/>
    <linearGradient id="linear-gradient-80" x1="170.6" y1="231.8" x2="165.5" y2="59.9" xlink:href="#linear-gradient-46"/>
    <linearGradient id="linear-gradient-81" x1="168.7" x2="168.7" y2="189" xlink:href="#linear-gradient-5"/>
    <linearGradient id="linear-gradient-82" x1="169.6" y1="231.9" x2="164.5" y2="60" xlink:href="#linear-gradient-46"/>
    <linearGradient id="linear-gradient-83" x1="336.9" y1="432.7" x2="336.9" y2="189" xlink:href="#linear-gradient-5"/>
    <linearGradient id="linear-gradient-84" x1="337.6" y1="226.9" x2="332.5" y2="55" xlink:href="#linear-gradient-46"/>
    <linearGradient id="linear-gradient-85" x1="339.8" y1="432.7" x2="339.8" y2="189" xlink:href="#linear-gradient-5"/>
    <linearGradient id="linear-gradient-86" x1="340.6" y1="226.8" x2="335.5" y2="54.9" xlink:href="#linear-gradient-46"/>
    <linearGradient id="linear-gradient-87" x1="341.9" y1="432.7" x2="341.9" y2="189" xlink:href="#linear-gradient-5"/>
    <linearGradient id="linear-gradient-88" x1="342.8" y1="226.8" x2="337.8" y2="54.9" xlink:href="#linear-gradient-46"/>
    <linearGradient id="linear-gradient-89" x1="341.7" y1="432.7" x2="341.7" y2="189" xlink:href="#linear-gradient-5"/>
    <linearGradient id="linear-gradient-90" x1="342.6" y1="226.8" x2="337.5" y2="54.9" xlink:href="#linear-gradient-46"/>
    <linearGradient id="linear-gradient-91" x1="342.9" y1="432.7" x2="342.9" y2="189" xlink:href="#linear-gradient-5"/>
    <linearGradient id="linear-gradient-92" x1="343.9" y1="226.7" x2="338.8" y2="54.8" xlink:href="#linear-gradient-46"/>
    <linearGradient id="linear-gradient-93" x1="329.9" y1="432.7" x2="329.9" y2="189" xlink:href="#linear-gradient-5"/>
    <linearGradient id="linear-gradient-94" x1="330.3" y1="227.1" x2="325.3" y2="55.2" xlink:href="#linear-gradient-46"/>
    <linearGradient id="linear-gradient-95" x1="168.6" x2="168.6" y2="189" xlink:href="#linear-gradient-5"/>
    <linearGradient id="linear-gradient-96" x1="169.4" y1="231.9" x2="164.4" y2="60" xlink:href="#linear-gradient-46"/>
    <linearGradient id="linear-gradient-97" x1="12.4" y1="156.9" x2="165.3" y2="156.9" xlink:href="#linear-gradient"/>
  </defs>
  <!-- Generator: Adobe Illustrator 28.6.0, SVG Export Plug-In . SVG Version: 1.2.0 Build 709)  -->
  <g>
    <g id="Layer_1">
      <g>
        <path d="M156.4,123.3c0,.2,0,.5,0,.7,1.2,8.5,10.3,46.8,14.1,62.5,1,4.1,1.6,6.7,1.6,6.7,0,0,2.1,7.7,9.1,12.9,1.4,1,2.9,1.9,4.7,2.7,2.8,1.2,5.8,1.7,8.8,1.7h118.3c3,0,6.1-.5,8.8-1.7,1.8-.7,3.3-1.7,4.7-2.7,6.9-5.2,9-12.9,9-12.9,0,0,.4-1.8,1.1-4.8,3.4-14.1,13.2-55.2,14.5-64.3,0-.3,0-.6,0-.8.2-2.1-.1-3.6-.8-4.9.1,0,.3,0,.4,0,0,0,0-.2-.1-.2-2.1-3.9-7.2-4.1-7.4-4.1-39.5-4.5-88.5-4.2-89-4.2h-1.2c-.5,0-49.5-.3-89,4.2-.2,0-4.7.2-7.1,3.5,0,0-.1.2-.2.3.2,0,.3,0,.5,0-.9,1.3-1.4,3-1.2,5.5Z"/>
        <path class="cls-49" d="M453.5,423.2c-2.7-4.4-4.5-9.2-6.4-13.9-3.7-9.5-7.2-19-10.8-28.5-7.5-18.9-13.2-38.3-21.3-57-8-18.6-16.6-37-26.4-54.7-9.7-17.7-22.5-34-34.7-49.7-6.7-6.6-11-15.8-11.4-25.2,0,.2-.1.4-.2.7,0,.2-.1.4-.2.6,0,0,0,.1,0,.2,0,0,0,0,0,0,0,0,0,.2-.1.3,0,0,0,0,0,0,0,.2-.1.4-.2.5,0,0,0,0,0,.1,0,.2-.1.3-.2.5,0,0,0,0,0,0-.3.6-.6,1.2-.9,1.9,0,0,0,0,0,0,0,.2-.2.4-.3.6,0,0,0,0,0,0,0,.1-.1.2-.1.3,0,0,0,0,0,0,0,0,0,0,0,0,0,0-.1.2-.2.3,0,0,0,0,0,0-.2.3-.3.6-.5.9,0,.1-.1.3-.2.4h0s0,0,0,0c0,0,0,0,0,0-.2.4-.5.8-.8,1.2,0,0,0,0,0,0,0,.1-.2.3-.3.4-.1.2-.2.4-.4.5,0,0,0,.1-.1.2,0,.1-.2.2-.2.3,0,0-.1.2-.2.3,0,0-.1.2-.2.3,0,.1-.2.2-.3.3,0,0-.2.2-.2.3-.4.5-.8,1-1.2,1.5-.1.1-.2.3-.4.4-.5.6-1.1,1.2-1.7,1.8,0,0,0,0,0,0,0,0,0,0,0,0,0,0-.1.1-.2.2-.1.1-.3.3-.4.4-.2.2-.4.4-.7.6-.2.2-.3.3-.5.5-.3.2-.5.4-.8.7-.3.2-.5.4-.8.6,0,0-.1.1-.2.2,0,0-.2.1-.2.2,0,0-.1,0-.1.1-.2.2-.5.3-.7.5-.2.2-.5.3-.7.5,0,0,0,0,0,0-.3.2-.6.4-.9.6-.2.2-.5.3-.8.5,0,0-.2.1-.3.2,0,0-4.9,2.8-13.2,2.9-.2,0-.4,0-.6,0h-115.7c-.9,0-1.7,0-2.5,0-7.1-.5-11.3-2.9-11.3-2.9-.3-.2-.6-.4-.9-.6-.3-.2-.6-.3-.9-.5,0,0,0,0,0,0-.1,0-.3-.2-.4-.3,0,0,0,0,0,0-.3-.2-.6-.4-.8-.6,0,0-.1,0-.2-.1,0,0-.2-.1-.3-.2,0,0-.2-.1-.3-.2,0,0-.1,0-.2-.1,0,0,0,0,0,0,0,0,0,0-.1,0-.3-.3-.7-.5-1-.8-.1-.1-.3-.2-.4-.4,0,0,0,0,0,0-.1-.1-.3-.2-.4-.4,0,0,0,0,0,0-.3-.3-.7-.6-1-.9,0,0,0,0-.1-.1-.2-.2-.3-.3-.5-.5,0,0-.2-.2-.3-.3,0,0,0,0-.1-.1-.2-.2-.3-.4-.5-.5,0,0-.1-.1-.2-.2,0,0-.1-.1-.2-.2-.1-.1-.2-.3-.3-.4-.1-.1-.2-.3-.3-.4h0s0,0,0,0c0,0,0,0,0,0,0,0,0,0,0,0-.1-.1-.2-.3-.3-.4-.1-.2-.3-.3-.4-.5,0,0,0,0,0,0-.3-.3-.5-.6-.7-.9,0,0,0-.1-.1-.2-.1-.1-.2-.3-.3-.4,0,0,0-.1-.1-.2,0-.1-.2-.3-.3-.4-.1-.2-.2-.3-.3-.5,0-.1-.2-.3-.3-.4,0,0,0,0,0,0-.1-.2-.3-.4-.4-.6,0-.1-.1-.3-.2-.4,0,0,0-.2-.1-.2,0,0,0-.1-.1-.2,0,0,0,0,0,0,0,0,0,0,0,0,0,0,0,0,0-.1-.3-.4-.5-.9-.7-1.3-.1-.2-.2-.4-.3-.6,0,0,0-.1,0-.2,0-.2-.2-.3-.2-.5,0,0,0-.2-.1-.3-.1-.3-.3-.6-.4-.8,0-.2-.2-.4-.3-.6,0-.1-.1-.3-.1-.4,0,0,0-.2-.1-.3,0,0,0,0,0-.1,0,0,0,0,0,0-.1-.3-.3-.7-.4-1-.6,9.1-4.9,18.1-11.3,24.3-9.6,11.9-18.9,23.9-27.4,36.6-13.8,21.3-24,44.8-34,68.1-6,14-10.6,28.6-15.8,43-5.1,13.2-11.1,29.8-16.3,42.9-.7,1.6-1.4,3.3-2.3,5.1-5,13.4-12,15.6-14.8,15.9,0,0,0,0,0,0,0,0,0,0,0,0,0,0,0,0-.1,0h0s0,0,0,0c-.1,0-.2,0-.3,0,0,0,0,0,0,0,6,3.3,28.8,8.4,31.6,7.8,0,0,.3-.2.7-.5-.1,0-.3,0-.4.1,0,0-.1,0-.2,0,0,0,0,0,0,0,0,0,0,0,0,0,.1-.2.3-.5.5-.7,0-.1.2-.3.3-.4.2-.3.4-.6.6-1,0,0,0-.1.1-.2.2-.4.4-.8.7-1.2,0,0,0-.2.1-.2.3-.5.5-1,.8-1.5,0,0,0,0,0,0,.2-.4.4-.9.7-1.4.1-.2.2-.4.3-.7.3-.5.5-1.1.8-1.7,0-.1.1-.3.2-.4.2-.5.5-1,.7-1.5.3-.6.5-1.2.8-1.8.3-.6.5-1.2.8-1.9.3-.6.5-1.3.8-1.9.4-1,.9-2.1,1.3-3.1.6-1.4,1.2-2.8,1.7-4.3.3-.7.5-1.3.8-2,5.2-13.1,10.4-27.4,12.8-34,0-.1,0-.3.1-.4.1-.3.2-.5.3-.8.3-.8.5-1.4.7-1.9,0,0,0-.2,0-.2,0-.2.1-.3.1-.3,0,0,0,0,0,0,0,0,11.9-33.9,29-48.3,6.3-5.3,13.4-7.8,19.9-8.9,3.6-.6,6.9-.7,9.8-.6,5.8.2,9.9,1.3,10.1,1.3,0,0,0,0,0,0,0,0,0,0,0,0,.1,0,.2,0,.3,0,9.7.8,83.8,0,83.8,0h74.4s1.4,0,3.3,0c.2,0,.3,0,.5,0,1.6,0,3.5,0,5-.2.1,0,.3,0,.4,0,.1,0,.3,0,.4,0,.4,0,1.1-.2,1.9-.2,0,0-.2,0-.2,0-.2,0-.3,0-.5,0,0,0,0,0,0,0,0,0,0,0,0,0,0,0,21.3-5.7,38.3,8.7,1.3,1.1,2.6,2.3,3.8,3.6,15,15.7,25.2,44.6,25.2,44.6,0,0,19.6,54.9,26.2,64.2,6.8-.6,27.9-4.9,31.6-7.8-4.7-.1-8.6-3.9-10.9-7.8ZM265.9,231.6s0,0,0,0c0,0,.1,0,.2-.1.1,0,.3-.2.4-.2t0,0s0,0,0,0c0,0,.2,0,.2,0,0,0,0,0,0,0,0,0,.2,0,.3,0,0,0,0,0,.1,0,0,0,.1,0,.2,0,1.4,0,2.6,1.1,2.6,2.6s0,.7-.2,1c0,0,0,.2-.1.2,0,0,0,.1-.1.2,0,0,0,0,0,0-.4.9-1.3,1.4-2.3,1.4s-2.6-1.2-2.6-2.6.2-1,.4-1.4c0,0,0,0,0,0,0,0,0,0,0,0,0-.1.2-.3.3-.4,0,0,0,0,0-.1,0,0,.1-.1.1-.2s.1-.1.2-.2ZM260.7,224.7s0,0,0,0c0,0,0,0,0,0t0,0h0c0,0,0-.1,0-.1,0,0,0-.1.1-.2,0,0,.1-.1.2-.2,0,0,.1-.1.2-.2.1-.1.2-.2.4-.3.1,0,.2-.1.3-.2,0,0,0,0,0,0,0,0,0,0,0,0,.1,0,.3-.1.5-.1.1,0,.2,0,.3,0,0,0,.1,0,.2,0,1.4,0,2.6,1.2,2.6,2.6s0,.2,0,.3c0,0,0,.1,0,.2,0,0,0,.1,0,.2,0,0,0,0,0,.1,0,0,0,.2,0,.2h0c0,.2-.1.3-.2.4,0,0,0,0,0,0t0,0c-.4.9-1.3,1.5-2.3,1.5s-2.6-1.2-2.6-2.6.1-1,.4-1.4ZM257.3,256.9c0-1.1,0-2.2,0-3.3s0-1,0-1.4c0-.4,0-.7-.1-1-.1-.3-.3-.6-.5-.7-.2,0-.3-.1-.4-.2-.2,0-.3,0-.4.2,0,0-.1.2-.2.3,0,.2,0,.3,0,.5,0,.6,0,1.3,0,1.9,0,.6,0,1.3,0,1.9,0,2.5,0,5,0,7.5s0,3.7,0,5.5v4.3l-5.9-1.9h0c0-.2,0-2.8,0-4.2,0,0,0,0,0-.1,0-5,0-20.3,0-20.5v-.2s.2,0,.2,0c.1,0,.3,0,.4,0,1.3.3,2.7.6,4,1,1,.3,2,.6,3,.9.9.3,1.6.6,2.3.9.7.3,1.3.7,1.9,1.1,1,.8,1.7,1.8,2,3,.2.6.3,1.2.3,1.8,0,.7,0,1.3,0,1.8,0,.7-.1,1.3-.3,1.8-.2.6-.4,1.1-.7,1.6-.6.8-1.4,1.3-2.4,1.4-.6,0-1.3,0-2-.2-.3,0-.7-.2-1-.4-.2,0-.2-.2-.2-.4h0c0-1.2,0-2.3,0-3.4ZM257,231.5c.1,0,.2-.1.3-.2,0,0,0,0,0,0,0,0,0,0,0,0,0,0,0,0,.1,0,0,0,0,0,0,0,0,0,0,0,0,0s0,0,0,0c0,0,0,0,0,0,0,0,.1,0,.2,0,0,0,0,0,.1,0,0,0,0,0,0,0h0c.1,0,.2,0,.3,0,1.4,0,2.6,1.1,2.6,2.6s0,.4,0,.6c0,0,0,.2,0,.3,0,0,0,.2-.1.3,0,0,0,0,0,0,0,0,0,0,0,0s0,0,0,0c0,0,0,.1-.1.2,0,0,0,0,0,0-.4.9-1.3,1.5-2.3,1.5s-2.6-1.2-2.6-2.6.2-1,.4-1.4c0,0,0,0,0,0,0,0,0,0,0,0,0-.1.2-.3.3-.4,0,0,0,0,0-.1,0,0,.1-.1.1-.2,0,0,.2-.2.3-.2ZM251.6,224.7s0,0,0,0h0s0,0,0,0c0,0,0,0,0,0,0,0,0,0,0,0,0,0,0-.1,0-.2,0,0,0-.1.1-.2,0-.1.2-.2.3-.3,0,0,0,0,0,0,.1-.1.2-.2.4-.3,0,0,.1,0,.2-.1,0,0,0,0,.1,0,0,0,.2,0,.3-.1,0,0,.1,0,.2,0,0,0,.1,0,.2,0,0,0,0,0,.1,0,0,0,.2,0,.3,0,.2,0,.4,0,.7,0,0,0,.1,0,.2,0,0,0,.1,0,.2,0,0,0,.1,0,.2,0,0,0,.1,0,.1,0,0,0,.2.1.2.2,0,0,0,0,0,0,0,0,0,0,.1.1,0,0,.1.1.2.2.1.1.2.3.3.4s.1.3.2.5c0,.1,0,.3,0,.4,0,.1,0,.3,0,.4s0,.2,0,.3c0,0,0,.1,0,.2,0,0,0,.1,0,.2,0,0,0,0,0,.1,0,0,0,.2,0,.2,0,0,0,0,0,.1,0,0,0,0,0,.1,0,0,0,.1-.1.2,0,0,0,0,0,0-.4.9-1.3,1.5-2.3,1.5s-2.6-1.2-2.6-2.6.1-1,.4-1.4ZM248,231.5c0,0,.2-.1.3-.2.1,0,.2-.1.4-.2,0,0,.1,0,.1,0,.2,0,.5-.1.7-.1s.3,0,.4,0c.1,0,.3,0,.4,0,.2,0,.3.1.5.2.1,0,.3.2.4.3,0,0,.1.1.2.2.1.1.2.2.3.4,0,.1.1.2.2.3,0,0,0,.1,0,.2,0,0,0,.1,0,.2,0,.1,0,.2,0,.4,0,.1,0,.2,0,.3s0,.3,0,.4c0,.1,0,.3,0,.4,0,.2-.2.4-.3.6h0s0,0,0,0c-.4.9-1.3,1.5-2.3,1.5s-2.6-1.2-2.6-2.6.1-1,.4-1.4c0,0,0,0,0,0h0s0,0,0,0h0s0,0,0,0c0,0,0-.1,0-.2,0,0,.1-.2.2-.2,0-.1.2-.2.2-.3,0,0,.2-.2.3-.3ZM242.7,224.7s0,0,0,0c0,0,0,0,0,0h0s0,0,0,0c0,0,0,0,0,0,0,0,0,0,0,0,0-.1.1-.2.2-.3,0-.1.2-.2.3-.3t0,0s0,0,0,0c0,0,0,0,0,0,0,0,0,0,0,0t0,0s0,0,.1,0c.3-.3.7-.4,1.2-.5,0,0,.1,0,.2,0,0,0,.1,0,.2,0,.4,0,.7,0,1,.2,0,0,.1,0,.2.1.2.1.4.3.6.4,0,0,0,0,0,0,0,0,0,.1.1.2.1.1.2.3.3.4s.1.3.2.5c0,.1,0,.3,0,.4,0,.1,0,.3,0,.4s0,.4,0,.5h0c0,.1,0,.2,0,.3,0,0,0,.2,0,.2,0,.1-.1.3-.2.4,0,0,0,0,0,0-.4.9-1.3,1.5-2.3,1.5s-2.6-1.2-2.6-2.6.2-1,.4-1.4ZM239.2,231.4c.2-.1.4-.2.6-.3,0,0,0,0,.1,0h0s.1,0,.2,0c0,0,.1,0,.1,0,0,0,.1,0,.2,0,.2,0,.4,0,.6,0h0s0,0,0,0c0,0,.1,0,.1,0,0,0,0,0,.1,0,0,0,.1,0,.2,0,.1,0,.2,0,.3.2,0,0,.1,0,.2.1,0,0,.1,0,.1.1.1,0,.2.2.3.3.1.1.2.3.3.4,0,.1.1.3.2.5,0,0,0,0,0,.1,0,0,0,0,0,0h0c0,.1,0,.2,0,.3,0,0,0,0,0,.1t0,0s0,.1,0,.2,0,.1,0,.2t0,0s0,0,0,.1h0c0,.1,0,.2,0,.2,0,0,0,0,0,0h0c0,0,0,.1,0,.2,0,.2-.2.5-.3.7,0,0,0,0,0,0t0,0s0,0,0,0c0,0,0,0,0,0-.4.8-1.3,1.4-2.3,1.4s-2.6-1.2-2.6-2.6.1-1,.4-1.4c0,0,0,0,0,0,0,0,0,0,0,0,0,0,0-.1,0-.2,0,0,0,0,0-.1,0,0,0,0,0,0,0,0,0,0,0,0,0,0,0,0,0,0h0c0-.1.1-.2.2-.3,0,0,.2-.1.3-.2,0,0,.2-.1.3-.2ZM197.3,281.9c-5.5,5-12.8,8.1-20.9,8.1-17.2,0-31.1-13.9-31.1-31.1s13.9-31.1,31.1-31.1,13,2.2,18.1,5.8c7.9,5.6,13,14.9,13,25.3s-3.9,17.3-10.2,23ZM233.4,226.1c0-.5.2-.9.4-1.3,0,0,0,0,0,0,0,0,0,0,0,0,0,0,0,0,0,0h0s0,0,0,0c0,0,0,0,0,0,0,0,0,0,0,0,.1-.2.3-.4.5-.6,0,0,0,0,0,0,0,0,0,0,0,0,.2-.2.4-.3.6-.4,0,0,0,0,.1,0,0,0,0,0,.1,0,.2,0,.4-.1.6-.1,0,0,0,0,.1,0,0,0,.1,0,.2,0,1.4,0,2.6,1.2,2.6,2.6s0,.4,0,.5c0,0,0,0,0,.1,0,.3-.2.6-.4.8,0,0,0,0,0,0-.4.9-1.3,1.5-2.3,1.5s-2.6-1.2-2.6-2.6ZM238.9,268.1c-.4-.1-.8-.3-1.2-.6-.3-.2-.5-.5-.7-.8-.3-.5-.3-1,0-1.5.2-.3.4-.5.6-.6.6-.4,1.2-.7,1.7-.9.6-.3,1.2-.5,1.8-.7l.5-.2c1-.4,2.1-.7,3.1-1.1,1-.4,2-.7,3-1.1.2,0,.4-.1.6-.2,0,0,0,0,.1,0h.2c0,0,0,.2,0,.2v3.4h-.1c0,0-.1,0-.2.1h-.1c-.7.3-1.5.6-2.2.8h0s-3.1,1.1-3.1,1.1c0,0-.2,0-.2,0-.1,0-.3.1-.4.2,0,0,0,0-.1.1h0c0,0,0,.1,0,.1,0,0,0,0,0,.1.2.1.4.2.6.2.6.1,1.2,0,1.6,0,.6,0,1.2-.3,1.8-.4.4-.1.7-.3,1.1-.4.3-.1.7-.2,1-.4h0s0,0,.1,0h.3c0,0,0,3.2,0,3.2h-.4c0,0-.2,0-.3.1-.7.1-1.4.2-2,.2-.3,0-.6,0-1,0s-.7,0-1,0c-.6,0-1.1,0-1.5-.2-.8-.1-1.4-.2-2-.4-.6-.2-1.2-.3-1.8-.6ZM265.9,289s0,0,0,0c0,0,0,.1,0,.2,0,0,0,0,0,0,0,0,0,0,0,0,0,0,0,0,0,.1,0,0,0,0,0,0,0,0,0,0,0,0,0,.2,0,.4-.1.5,0,0,0,0,0,.1,0,0,0,.1,0,.2,0,0,0,.1,0,.2,0,0,0,.1-.1.2,0,0,0,0,0,.1,0,0,0,0,0,0,0,.1-.2.2-.3.3,0,0,0,.1-.1.1,0,0,0,0,0,0-.2.2-.3.3-.5.4,0,0,0,0,0,0,0,0,0,0-.1,0s-.1,0-.2,0c0,0-.2,0-.2,0-.1,0-.2,0-.4.1,0,0-.2,0-.2,0,0,0-.2,0-.2,0,0,0-.2,0-.3,0,0,0,0,0,0,0h-17.5c-1.9,0-3.4-1.5-3.4-3.4v-.5c0-1.8,1.4-3.3,3.2-3.4,0,0,.1,0,.2,0h17.5c.1,0,.2,0,.3,0,0,0,.2,0,.3,0,0,0,0,0,0,0,0,0,0,0,.1,0,0,0,.1,0,.2,0,0,0,.2,0,.2,0,0,0,.1,0,.2,0,.2,0,.4.2.5.3,0,0,0,0,0,0,.2.1.3.2.4.4h0c0,0,.1.1.2.2,0,0,.2.2.2.3,0,0,0,.1.1.2,0,0,.1.2.1.2,0,0,0,.1,0,.2,0,0,0,0,0,0,0,0,0,0,0,0,0,.1,0,.3.1.4,0,0,0,0,0,0,0,0,0,.1,0,.2,0,0,0,.1,0,.2,0,0,0,.2,0,.3,0,0,0,0,0,.1v.5ZM271,265.9h0c-.2.3-.4.5-.7.7-.5.4-1.1.7-1.8.9l-.7.3c-1.4.5-2.7,1-4.1,1.5-.6.2-1.2.4-1.9.7-.6.2-1.3.5-1.9.7l-3.3,1.2s0,0-.2,0h-.2c0,0,0-.3,0-.3,0-.2,0-.3,0-.4,0-.7,0-1.4,0-2.2v-.4c0-.2,0-.3.2-.3h0s7-2.5,7-2.5c.6-.2,1.3-.5,1.9-.7.1,0,.3-.1.4-.2,0,0,.1-.1.2-.2,0,0,0,0,0,0,0,0-.1-.1-.2-.1-.2,0-.4-.1-.6-.2-.8,0-1.5,0-2.3.1-.3,0-.6.2-.9.3h-.2c-.3.2-.5.3-.8.3-1.4.5-2.7,1-4,1.4-.1,0-.2,0-.4.1h0s-.2,0-.2,0v-.2c0-.9,0-1.8,0-2.7v-.8h.1c0,0,0,0,.1,0h0c1-.4,2-.6,3.1-.8.7-.1,1.4-.2,2.1-.2.9,0,1.6,0,2.2,0,1.4,0,2.6.3,3.7.7.5.2,1,.3,1.7.6.4.2.8.4,1.1.6.2.2.4.3.5.5.3.5.4,1.1,0,1.6ZM274.6,226.2s0,0,0,0c0,.1,0,.2-.1.4,0,.1-.1.3-.2.4,0,0,0,0,0,.1,0,0,0,0,0,0,0,0,0,0,0,0-.4.9-1.3,1.4-2.3,1.4s-2.6-1.2-2.6-2.6.1-1,.4-1.4c0,0,0,0,0,0,0,0,0,0,0,0,0,0,0,0,0,0,0,0,0,0,0,0,0,0,0,0,0,0s0,0,0,0c0,0,0,0,0,0,0,0,0,0,0,0t0,0c0,0,.1-.1.2-.2,0,0,0,0,0,0,0,0,0,0,0,0,0,0,0,0,.1-.1,0,0,0,0,0,0,0,0,.2-.1.3-.2.1,0,.2-.1.3-.1,0,0,0,0,0,0s0,0,0,0c0,0,0,0,0,0,0,0,0,0,.1,0,.1,0,.2,0,.3,0,0,0,0,0,.1,0,0,0,.2,0,.3,0s.2,0,.3,0c0,0,.2,0,.2,0h0c0,0,.1,0,.2,0,0,0,.1,0,.2,0,0,0,0,0,0,0,0,0,0,0,0,0,0,0,0,0,0,0,0,0,0,0,0,0,0,0,.1,0,.2,0,0,0,.2,0,.2.1,0,0,.2.1.3.2,0,0,.1.1.2.2,0,0,.1.2.2.2,0,0,0,0,0,.1,0,0,0,0,0,.1.1.3.2.5.3.8,0,0,0,.1,0,.1,0,0,0,.1,0,.2,0,.2,0,.3,0,.5ZM353.7,279.8c-5.7,6.3-13.9,10.2-23,10.2s-5.8-.4-8.5-1.2c-.1,0-.3,0-.4-.1,0,0-.2,0-.3,0-.2,0-.3-.1-.5-.2-.3-.1-.6-.2-1-.3-.3-.1-.6-.2-.9-.4-.2,0-.3-.1-.5-.2-.3-.1-.7-.3-1-.5-.1,0-.3-.1-.4-.2-.3-.1-.5-.3-.8-.4,0,0-.2,0-.3-.1-.1,0-.2-.1-.3-.2-.1,0-.3-.1-.4-.2-.3-.2-.6-.3-.8-.5,0,0,0,0,0,0,0,0,0,0,0,0-.1,0-.3-.2-.4-.3-.2,0-.3-.2-.5-.3-.3-.2-.7-.4-1-.7-.3-.2-.6-.4-.8-.6,0,0,0,0,0,0,0,0,0,0,0,0-.5-.4-1.1-.9-1.6-1.3,0,0,0,0-.1,0-.2-.1-.3-.3-.5-.5,0,0-.2-.2-.3-.2-.2-.2-.3-.3-.5-.5,0,0-.2-.1-.2-.2,0,0,0,0,0,0,0,0,0,0-.1-.1-.2-.2-.3-.4-.5-.6,0,0-.1-.1-.2-.2-.3-.3-.5-.6-.7-.8,0,0-.1-.2-.2-.3-.2-.2-.3-.4-.5-.6-.1-.2-.2-.3-.4-.5,0,0,0,0-.1-.1-.3-.4-.5-.7-.8-1.1t0,0s0,0,0,0h0c-.2-.3-.4-.6-.6-.9-.3-.6-.7-1.1-1-1.7h0c-.1-.2-.2-.4-.4-.7-.1-.2-.2-.4-.3-.7,0,0,0,0,0,0-.2-.4-.4-.9-.6-1.3,0-.2-.2-.5-.3-.7-.2-.4-.3-.8-.4-1.2,0,0,0-.2,0-.2,0-.2-.1-.4-.2-.5,0,0,0-.1,0-.2,0-.2-.1-.5-.2-.7,0,0,0,0,0-.1,0,0,0,0,0,0,0-.2,0-.3-.1-.5,0,0,0,0,0,0,0,0,0,0,0,0-.1-.4-.2-.9-.3-1.4,0-.2,0-.4-.1-.6,0,0,0-.1,0-.2,0,0,0,0,0,0,0,0,0-.1,0-.2,0,0,0-.1,0-.2,0,0,0,0,0-.1,0,0,0-.2,0-.2,0-.2,0-.4,0-.6,0,0,0,0,0-.1,0,0,0-.1,0-.2,0-.1,0-.2,0-.3,0,0,0,0,0-.1,0,0,0,0,0,0,0,0,0,0,0,0,0-.3,0-.5,0-.8,0,0,0-.1,0-.2,0,0,0-.2,0-.3,0-.1,0-.3,0-.4,0-.2,0-.4,0-.6,0,0,0,0,0-.1h0c0-.3,0-.5,0-.8s0-.5,0-.8h0c0,0,0-.1,0-.2,0-.2,0-.4,0-.6,0-.1,0-.3,0-.4,0,0,0-.2,0-.3,0,0,0-.1,0-.2,0-.3,0-.5,0-.8,0,0,0,0,0,0,0,0,0,0,0-.1,0-.2,0-.4,0-.5,0,0,0,0,0-.1,0-.2,0-.4,0-.6,0,0,0,0,0-.1,0,0,0,0,0,0,0,0,0,0,0,0,0-.2,0-.3,0-.5,0-.1,0-.3,0-.4,0-.2,0-.3,0-.5,0-.5.2-.9.3-1.4,0,0,0,0,0,0,0,0,0-.2,0-.2,0-.1,0-.2,0-.3,0,0,0,0,0,0,0,0,0,0,0-.1,0-.1,0-.3.1-.4,0,0,0-.2,0-.3,0,0,0,0,0-.1,0,0,0,0,0-.1,0-.2.1-.4.2-.5.1-.4.3-.8.4-1.1,0,0,0-.2.1-.3,0-.2.2-.5.3-.7.2-.5.4-.9.6-1.4,0,0,0,0,0-.1,0-.2.2-.4.3-.6.2-.4.5-.9.7-1.3.4-.6.8-1.3,1.2-1.9,0,0,0,0,0,0,0,0,0,0,0,0h0c.3-.4.6-.8.9-1.2,0,0,0,0,0,0,.1-.2.3-.4.4-.5.1-.2.3-.4.4-.5,0,0,.1-.2.2-.3,0,0,0,0,.1-.1.2-.3.5-.5.7-.8.3-.3.5-.5.8-.8.3-.3.5-.5.8-.8.3-.2.5-.5.8-.7,0,0,0,0,0,0,0,0,0,0,0,0,.4-.4.8-.7,1.2-1,.1-.1.3-.2.4-.3,0,0,0,0,0,0,0,0,0,0,.1,0,.3-.2.6-.4.8-.6.1,0,.3-.2.4-.3,0,0,0,0,.1,0,0,0,0,0,0,0,.1,0,.3-.2.4-.3.2-.1.4-.3.6-.4,0,0,.2-.1.3-.2,0,0,0,0,0,0,0,0,.2-.1.3-.2.2-.1.4-.2.6-.3.2,0,.3-.2.5-.3,0,0,.1,0,.2-.1,0,0,.2,0,.3-.1l.6-.3c0,0,.1,0,.2-.1.5-.2.9-.4,1.4-.6.3-.1.5-.2.8-.3.2,0,.4-.2.6-.3.2,0,.5-.2.7-.3,0,0,0,0,0,0,0,0,0,0,0,0,0,0,0,0,0,0,.2,0,.5-.2.7-.2.2,0,.5-.1.7-.2,2.7-.8,5.6-1.2,8.5-1.2,8.6,0,16.3,3.5,22,9.1,5.6,5.6,9.1,13.4,9.1,22s-3.1,15.4-8.1,20.9Z"/>
        <path class="cls-52" d="M453.5,423.2c-2.7-4.4-4.5-9.2-6.4-13.9-3.7-9.5-7.2-19-10.8-28.5-7.5-18.9-13.2-38.3-21.3-57-8-18.6-16.6-37-26.4-54.7-9.7-17.7-22.5-34-34.7-49.7-6.7-6.6-11-15.8-11.4-25.2,0,.2-.1.4-.2.7,0,.2-.1.4-.2.6,0,0,0,.1,0,.2,0,0,0,0,0,0,0,0,0,.2-.1.3,0,0,0,0,0,0,0,.2-.1.4-.2.5,0,0,0,0,0,.1,0,.2-.1.3-.2.5,0,0,0,0,0,0-.3.6-.6,1.2-.9,1.9,0,0,0,0,0,0,0,.2-.2.4-.3.6,0,0,0,0,0,0,0,.1-.1.2-.1.3,0,0,0,0,0,0,0,0,0,0,0,0,0,0-.1.2-.2.3,0,0,0,0,0,0-.2.3-.3.6-.5.9,0,.1-.1.3-.2.4h0s0,0,0,0c0,0,0,0,0,0-.2.4-.5.8-.8,1.2,0,0,0,0,0,0,0,.1-.2.3-.3.4-.1.2-.2.4-.4.5,0,0,0,.1-.1.2,0,.1-.2.2-.2.3,0,0-.1.2-.2.3,0,0-.1.2-.2.3,0,.1-.2.2-.3.3,0,0-.2.2-.2.3-.4.5-.8,1-1.2,1.5-.1.1-.2.3-.4.4-.5.6-1.1,1.2-1.7,1.8,0,0,0,0,0,0,0,0,0,0,0,0,0,0-.1.1-.2.2-.1.1-.3.3-.4.4-.2.2-.4.4-.7.6-.2.2-.3.3-.5.5-.3.2-.5.4-.8.7-.3.2-.5.4-.8.6,0,0-.1.1-.2.2,0,0-.2.1-.2.2,0,0-.1,0-.1.1-.2.2-.5.3-.7.5-.2.2-.5.3-.7.5,0,0,0,0,0,0-.3.2-.6.4-.9.6-.2.2-.5.3-.8.5,0,0-.2.1-.3.2,0,0-4.9,2.8-13.2,2.9-.2,0-.4,0-.6,0h-115.7c-.9,0-1.7,0-2.5,0-7.1-.5-11.3-2.9-11.3-2.9-.3-.2-.6-.4-.9-.6-.3-.2-.6-.3-.9-.5,0,0,0,0,0,0-.1,0-.3-.2-.4-.3,0,0,0,0,0,0-.3-.2-.6-.4-.8-.6,0,0-.1,0-.2-.1,0,0-.2-.1-.3-.2,0,0-.2-.1-.3-.2,0,0-.1,0-.2-.1,0,0,0,0,0,0,0,0,0,0-.1,0-.3-.3-.7-.5-1-.8-.1-.1-.3-.2-.4-.4,0,0,0,0,0,0-.1-.1-.3-.2-.4-.4,0,0,0,0,0,0-.3-.3-.7-.6-1-.9,0,0,0,0-.1-.1-.2-.2-.3-.3-.5-.5,0,0-.2-.2-.3-.3,0,0,0,0-.1-.1-.2-.2-.3-.4-.5-.5,0,0-.1-.1-.2-.2,0,0-.1-.1-.2-.2-.1-.1-.2-.3-.3-.4-.1-.1-.2-.3-.3-.4h0s0,0,0,0c0,0,0,0,0,0,0,0,0,0,0,0-.1-.1-.2-.3-.3-.4-.1-.2-.3-.3-.4-.5,0,0,0,0,0,0-.3-.3-.5-.6-.7-.9,0,0,0-.1-.1-.2-.1-.1-.2-.3-.3-.4,0,0,0-.1-.1-.2,0-.1-.2-.3-.3-.4-.1-.2-.2-.3-.3-.5,0-.1-.2-.3-.3-.4,0,0,0,0,0,0-.1-.2-.3-.4-.4-.6,0-.1-.1-.3-.2-.4,0,0,0-.2-.1-.2,0,0,0-.1-.1-.2,0,0,0,0,0,0,0,0,0,0,0,0,0,0,0,0,0-.1-.3-.4-.5-.9-.7-1.3-.1-.2-.2-.4-.3-.6,0,0,0-.1,0-.2,0-.2-.2-.3-.2-.5,0,0,0-.2-.1-.3-.1-.3-.3-.6-.4-.8,0-.2-.2-.4-.3-.6,0-.1-.1-.3-.1-.4,0,0,0-.2-.1-.3,0,0,0,0,0-.1,0,0,0,0,0,0-.1-.3-.3-.7-.4-1-.6,9.1-4.9,18.1-11.3,24.3-9.6,11.9-18.9,23.9-27.4,36.6-13.8,21.3-24,44.8-34,68.1-6,14-10.6,28.6-15.8,43-5.1,13.2-11.1,29.8-16.3,42.9-.7,1.6-1.4,3.3-2.3,5.1-5,13.4-12,15.6-14.8,15.9,0,0,0,0,0,0,0,0,0,0,0,0,0,0,0,0-.1,0h0s0,0,0,0c-.1,0-.2,0-.3,0,0,0,0,0,0,0,6,3.3,28.8,8.4,31.6,7.8,0,0,.3-.2.7-.5-.1,0-.3,0-.4.1,0,0-.1,0-.2,0,0,0,0,0,0,0,0,0,0,0,0,0,.1-.2.3-.5.5-.7,0-.1.2-.3.3-.4.2-.3.4-.6.6-1,0,0,0-.1.1-.2.2-.4.4-.8.7-1.2,0,0,0-.2.1-.2.3-.5.5-1,.8-1.5,0,0,0,0,0,0,.2-.4.4-.9.7-1.4.1-.2.2-.4.3-.7.3-.5.5-1.1.8-1.7,0-.1.1-.3.2-.4.2-.5.5-1,.7-1.5.3-.6.5-1.2.8-1.8.3-.6.5-1.2.8-1.9.3-.6.5-1.3.8-1.9.4-1,.9-2.1,1.3-3.1.6-1.4,1.2-2.8,1.7-4.3.3-.7.5-1.3.8-2,5.2-13.1,10.4-27.4,12.8-34,0-.1,0-.3.1-.4.1-.3.2-.5.3-.8.3-.8.5-1.4.7-1.9,0,0,0-.2,0-.2,0-.2.1-.3.1-.3,0,0,0,0,0,0,0,0,11.9-33.9,29-48.3,6.3-5.3,13.4-7.8,19.9-8.9,3.6-.6,6.9-.7,9.8-.6,5.8.2,9.9,1.3,10.1,1.3,0,0,0,0,0,0,0,0,0,0,0,0,.1,0,.2,0,.3,0,9.7.8,83.8,0,83.8,0h74.4s1.4,0,3.3,0c.2,0,.3,0,.5,0,1.6,0,3.5,0,5-.2.1,0,.3,0,.4,0,.1,0,.3,0,.4,0,.4,0,1.1-.2,1.9-.2,0,0-.2,0-.2,0-.2,0-.3,0-.5,0,0,0,0,0,0,0,0,0,0,0,0,0,0,0,21.3-5.7,38.3,8.7,1.3,1.1,2.6,2.3,3.8,3.6,15,15.7,25.2,44.6,25.2,44.6,0,0,19.6,54.9,26.2,64.2,6.8-.6,27.9-4.9,31.6-7.8-4.7-.1-8.6-3.9-10.9-7.8ZM265.9,231.6s0,0,0,0c0,0,.1,0,.2-.1.1,0,.3-.2.4-.2t0,0s0,0,0,0c0,0,.2,0,.2,0,0,0,0,0,0,0,0,0,.2,0,.3,0,0,0,0,0,.1,0,0,0,.1,0,.2,0,1.4,0,2.6,1.1,2.6,2.6s0,.7-.2,1c0,0,0,.2-.1.2,0,0,0,.1-.1.2,0,0,0,0,0,0-.4.9-1.3,1.4-2.3,1.4s-2.6-1.2-2.6-2.6.2-1,.4-1.4c0,0,0,0,0,0,0,0,0,0,0,0,0-.1.2-.3.3-.4,0,0,0,0,0-.1,0,0,.1-.1.1-.2s.1-.1.2-.2ZM260.7,224.7s0,0,0,0c0,0,0,0,0,0t0,0h0c0,0,0-.1,0-.1,0,0,0-.1.1-.2,0,0,.1-.1.2-.2,0,0,.1-.1.2-.2.1-.1.2-.2.4-.3.1,0,.2-.1.3-.2,0,0,0,0,0,0,0,0,0,0,0,0,.1,0,.3-.1.5-.1.1,0,.2,0,.3,0,0,0,.1,0,.2,0,1.4,0,2.6,1.2,2.6,2.6s0,.2,0,.3c0,0,0,.1,0,.2,0,0,0,.1,0,.2,0,0,0,0,0,.1,0,0,0,.2,0,.2h0c0,.2-.1.3-.2.4,0,0,0,0,0,0t0,0c-.4.9-1.3,1.5-2.3,1.5s-2.6-1.2-2.6-2.6.1-1,.4-1.4ZM257.3,256.9c0-1.1,0-2.2,0-3.3s0-1,0-1.4c0-.4,0-.7-.1-1-.1-.3-.3-.6-.5-.7-.2,0-.3-.1-.4-.2-.2,0-.3,0-.4.2,0,0-.1.2-.2.3,0,.2,0,.3,0,.5,0,.6,0,1.3,0,1.9,0,.6,0,1.3,0,1.9,0,2.5,0,5,0,7.5s0,3.7,0,5.5v4.3l-5.9-1.9h0c0-.2,0-2.8,0-4.2,0,0,0,0,0-.1,0-5,0-20.3,0-20.5v-.2s.2,0,.2,0c.1,0,.3,0,.4,0,1.3.3,2.7.6,4,1,1,.3,2,.6,3,.9.9.3,1.6.6,2.3.9.7.3,1.3.7,1.9,1.1,1,.8,1.7,1.8,2,3,.2.6.3,1.2.3,1.8,0,.7,0,1.3,0,1.8,0,.7-.1,1.3-.3,1.8-.2.6-.4,1.1-.7,1.6-.6.8-1.4,1.3-2.4,1.4-.6,0-1.3,0-2-.2-.3,0-.7-.2-1-.4-.2,0-.2-.2-.2-.4h0c0-1.2,0-2.3,0-3.4ZM257,231.5c.1,0,.2-.1.3-.2,0,0,0,0,0,0,0,0,0,0,0,0,0,0,0,0,.1,0,0,0,0,0,0,0,0,0,0,0,0,0s0,0,0,0c0,0,0,0,0,0,0,0,.1,0,.2,0,0,0,0,0,.1,0,0,0,0,0,0,0h0c.1,0,.2,0,.3,0,1.4,0,2.6,1.1,2.6,2.6s0,.4,0,.6c0,0,0,.2,0,.3,0,0,0,.2-.1.3,0,0,0,0,0,0,0,0,0,0,0,0s0,0,0,0c0,0,0,.1-.1.2,0,0,0,0,0,0-.4.9-1.3,1.5-2.3,1.5s-2.6-1.2-2.6-2.6.2-1,.4-1.4c0,0,0,0,0,0,0,0,0,0,0,0,0-.1.2-.3.3-.4,0,0,0,0,0-.1,0,0,.1-.1.1-.2,0,0,.2-.2.3-.2ZM251.6,224.7s0,0,0,0h0s0,0,0,0c0,0,0,0,0,0,0,0,0,0,0,0,0,0,0-.1,0-.2,0,0,0-.1.1-.2,0-.1.2-.2.3-.3,0,0,0,0,0,0,.1-.1.2-.2.4-.3,0,0,.1,0,.2-.1,0,0,0,0,.1,0,0,0,.2,0,.3-.1,0,0,.1,0,.2,0,0,0,.1,0,.2,0,0,0,0,0,.1,0,0,0,.2,0,.3,0,.2,0,.4,0,.7,0,0,0,.1,0,.2,0,0,0,.1,0,.2,0,0,0,.1,0,.2,0,0,0,.1,0,.1,0,0,0,.2.1.2.2,0,0,0,0,0,0,0,0,0,0,.1.1,0,0,.1.1.2.2.1.1.2.3.3.4s.1.3.2.5c0,.1,0,.3,0,.4,0,.1,0,.3,0,.4s0,.2,0,.3c0,0,0,.1,0,.2,0,0,0,.1,0,.2,0,0,0,0,0,.1,0,0,0,.2,0,.2,0,0,0,0,0,.1,0,0,0,0,0,.1,0,0,0,.1-.1.2,0,0,0,0,0,0-.4.9-1.3,1.5-2.3,1.5s-2.6-1.2-2.6-2.6.1-1,.4-1.4ZM248,231.5c0,0,.2-.1.3-.2.1,0,.2-.1.4-.2,0,0,.1,0,.1,0,.2,0,.5-.1.7-.1s.3,0,.4,0c.1,0,.3,0,.4,0,.2,0,.3.1.5.2.1,0,.3.2.4.3,0,0,.1.1.2.2.1.1.2.2.3.4,0,.1.1.2.2.3,0,0,0,.1,0,.2,0,0,0,.1,0,.2,0,.1,0,.2,0,.4,0,.1,0,.2,0,.3s0,.3,0,.4c0,.1,0,.3,0,.4,0,.2-.2.4-.3.6h0s0,0,0,0c-.4.9-1.3,1.5-2.3,1.5s-2.6-1.2-2.6-2.6.1-1,.4-1.4c0,0,0,0,0,0h0s0,0,0,0h0s0,0,0,0c0,0,0-.1,0-.2,0,0,.1-.2.2-.2,0-.1.2-.2.2-.3,0,0,.2-.2.3-.3ZM242.7,224.7s0,0,0,0c0,0,0,0,0,0h0s0,0,0,0c0,0,0,0,0,0,0,0,0,0,0,0,0-.1.1-.2.2-.3,0-.1.2-.2.3-.3t0,0s0,0,0,0c0,0,0,0,0,0,0,0,0,0,0,0t0,0s0,0,.1,0c.3-.3.7-.4,1.2-.5,0,0,.1,0,.2,0,0,0,.1,0,.2,0,.4,0,.7,0,1,.2,0,0,.1,0,.2.1.2.1.4.3.6.4,0,0,0,0,0,0,0,0,0,.1.1.2.1.1.2.3.3.4s.1.3.2.5c0,.1,0,.3,0,.4,0,.1,0,.3,0,.4s0,.4,0,.5h0c0,.1,0,.2,0,.3,0,0,0,.2,0,.2,0,.1-.1.3-.2.4,0,0,0,0,0,0-.4.9-1.3,1.5-2.3,1.5s-2.6-1.2-2.6-2.6.2-1,.4-1.4ZM239.2,231.4c.2-.1.4-.2.6-.3,0,0,0,0,.1,0h0s.1,0,.2,0c0,0,.1,0,.1,0,0,0,.1,0,.2,0,.2,0,.4,0,.6,0h0s0,0,0,0c0,0,.1,0,.1,0,0,0,0,0,.1,0,0,0,.1,0,.2,0,.1,0,.2,0,.3.2,0,0,.1,0,.2.1,0,0,.1,0,.1.1.1,0,.2.2.3.3.1.1.2.3.3.4,0,.1.1.3.2.5,0,0,0,0,0,.1,0,0,0,0,0,0h0c0,.1,0,.2,0,.3,0,0,0,0,0,.1t0,0s0,.1,0,.2,0,.1,0,.2t0,0s0,0,0,.1h0c0,.1,0,.2,0,.2,0,0,0,0,0,0h0c0,0,0,.1,0,.2,0,.2-.2.5-.3.7,0,0,0,0,0,0t0,0s0,0,0,0c0,0,0,0,0,0-.4.8-1.3,1.4-2.3,1.4s-2.6-1.2-2.6-2.6.1-1,.4-1.4c0,0,0,0,0,0,0,0,0,0,0,0,0,0,0-.1,0-.2,0,0,0,0,0-.1,0,0,0,0,0,0,0,0,0,0,0,0,0,0,0,0,0,0h0c0-.1.1-.2.2-.3,0,0,.2-.1.3-.2,0,0,.2-.1.3-.2ZM197.3,281.9c-5.5,5-12.8,8.1-20.9,8.1-17.2,0-31.1-13.9-31.1-31.1s13.9-31.1,31.1-31.1,13,2.2,18.1,5.8c7.9,5.6,13,14.9,13,25.3s-3.9,17.3-10.2,23ZM233.4,226.1c0-.5.2-.9.4-1.3,0,0,0,0,0,0,0,0,0,0,0,0,0,0,0,0,0,0h0s0,0,0,0c0,0,0,0,0,0,0,0,0,0,0,0,.1-.2.3-.4.5-.6,0,0,0,0,0,0,0,0,0,0,0,0,.2-.2.4-.3.6-.4,0,0,0,0,.1,0,0,0,0,0,.1,0,.2,0,.4-.1.6-.1,0,0,0,0,.1,0,0,0,.1,0,.2,0,1.4,0,2.6,1.2,2.6,2.6s0,.4,0,.5c0,0,0,0,0,.1,0,.3-.2.6-.4.8,0,0,0,0,0,0-.4.9-1.3,1.5-2.3,1.5s-2.6-1.2-2.6-2.6ZM238.9,268.1c-.4-.1-.8-.3-1.2-.6-.3-.2-.5-.5-.7-.8-.3-.5-.3-1,0-1.5.2-.3.4-.5.6-.6.6-.4,1.2-.7,1.7-.9.6-.3,1.2-.5,1.8-.7l.5-.2c1-.4,2.1-.7,3.1-1.1,1-.4,2-.7,3-1.1.2,0,.4-.1.6-.2,0,0,0,0,.1,0h.2c0,0,0,.2,0,.2v3.4h-.1c0,0-.1,0-.2.1h-.1c-.7.3-1.5.6-2.2.8h0s-3.1,1.1-3.1,1.1c0,0-.2,0-.2,0-.1,0-.3.1-.4.2,0,0,0,0-.1.1h0c0,0,0,.1,0,.1,0,0,0,0,0,.1.2.1.4.2.6.2.6.1,1.2,0,1.6,0,.6,0,1.2-.3,1.8-.4.4-.1.7-.3,1.1-.4.3-.1.7-.2,1-.4h0s0,0,.1,0h.3c0,0,0,3.2,0,3.2h-.4c0,0-.2,0-.3.1-.7.1-1.4.2-2,.2-.3,0-.6,0-1,0s-.7,0-1,0c-.6,0-1.1,0-1.5-.2-.8-.1-1.4-.2-2-.4-.6-.2-1.2-.3-1.8-.6ZM265.9,289s0,0,0,0c0,0,0,.1,0,.2,0,0,0,0,0,0,0,0,0,0,0,0,0,0,0,0,0,.1,0,0,0,0,0,0,0,0,0,0,0,0,0,.2,0,.4-.1.5,0,0,0,0,0,.1,0,0,0,.1,0,.2,0,0,0,.1,0,.2,0,0,0,.1-.1.2,0,0,0,0,0,.1,0,0,0,0,0,0,0,.1-.2.2-.3.3,0,0,0,.1-.1.1,0,0,0,0,0,0-.2.2-.3.3-.5.4,0,0,0,0,0,0,0,0,0,0-.1,0s-.1,0-.2,0c0,0-.2,0-.2,0-.1,0-.2,0-.4.1,0,0-.2,0-.2,0,0,0-.2,0-.2,0,0,0-.2,0-.3,0,0,0,0,0,0,0h-17.5c-1.9,0-3.4-1.5-3.4-3.4v-.5c0-1.8,1.4-3.3,3.2-3.4,0,0,.1,0,.2,0h17.5c.1,0,.2,0,.3,0,0,0,.2,0,.3,0,0,0,0,0,0,0,0,0,0,0,.1,0,0,0,.1,0,.2,0,0,0,.2,0,.2,0,0,0,.1,0,.2,0,.2,0,.4.2.5.3,0,0,0,0,0,0,.2.1.3.2.4.4h0c0,0,.1.1.2.2,0,0,.2.2.2.3,0,0,0,.1.1.2,0,0,.1.2.1.2,0,0,0,.1,0,.2,0,0,0,0,0,0,0,0,0,0,0,0,0,.1,0,.3.1.4,0,0,0,0,0,0,0,0,0,.1,0,.2,0,0,0,.1,0,.2,0,0,0,.2,0,.3,0,0,0,0,0,.1v.5ZM271,265.9h0c-.2.3-.4.5-.7.7-.5.4-1.1.7-1.8.9l-.7.3c-1.4.5-2.7,1-4.1,1.5-.6.2-1.2.4-1.9.7-.6.2-1.3.5-1.9.7l-3.3,1.2s0,0-.2,0h-.2c0,0,0-.3,0-.3,0-.2,0-.3,0-.4,0-.7,0-1.4,0-2.2v-.4c0-.2,0-.3.2-.3h0s7-2.5,7-2.5c.6-.2,1.3-.5,1.9-.7.1,0,.3-.1.4-.2,0,0,.1-.1.2-.2,0,0,0,0,0,0,0,0-.1-.1-.2-.1-.2,0-.4-.1-.6-.2-.8,0-1.5,0-2.3.1-.3,0-.6.2-.9.3h-.2c-.3.2-.5.3-.8.3-1.4.5-2.7,1-4,1.4-.1,0-.2,0-.4.1h0s-.2,0-.2,0v-.2c0-.9,0-1.8,0-2.7v-.8h.1c0,0,0,0,.1,0h0c1-.4,2-.6,3.1-.8.7-.1,1.4-.2,2.1-.2.9,0,1.6,0,2.2,0,1.4,0,2.6.3,3.7.7.5.2,1,.3,1.7.6.4.2.8.4,1.1.6.2.2.4.3.5.5.3.5.4,1.1,0,1.6ZM274.6,226.2s0,0,0,0c0,.1,0,.2-.1.4,0,.1-.1.3-.2.4,0,0,0,0,0,.1,0,0,0,0,0,0,0,0,0,0,0,0-.4.9-1.3,1.4-2.3,1.4s-2.6-1.2-2.6-2.6.1-1,.4-1.4c0,0,0,0,0,0,0,0,0,0,0,0,0,0,0,0,0,0,0,0,0,0,0,0,0,0,0,0,0,0s0,0,0,0c0,0,0,0,0,0,0,0,0,0,0,0t0,0c0,0,.1-.1.2-.2,0,0,0,0,0,0,0,0,0,0,0,0,0,0,0,0,.1-.1,0,0,0,0,0,0,0,0,.2-.1.3-.2.1,0,.2-.1.3-.1,0,0,0,0,0,0s0,0,0,0c0,0,0,0,0,0,0,0,0,0,.1,0,.1,0,.2,0,.3,0,0,0,0,0,.1,0,0,0,.2,0,.3,0s.2,0,.3,0c0,0,.2,0,.2,0h0c0,0,.1,0,.2,0,0,0,.1,0,.2,0,0,0,0,0,0,0,0,0,0,0,0,0,0,0,0,0,0,0,0,0,0,0,0,0,0,0,.1,0,.2,0,0,0,.2,0,.2.1,0,0,.2.1.3.2,0,0,.1.1.2.2,0,0,.1.2.2.2,0,0,0,0,0,.1,0,0,0,0,0,.1.1.3.2.5.3.8,0,0,0,.1,0,.1,0,0,0,.1,0,.2,0,.2,0,.3,0,.5ZM353.7,279.8c-5.7,6.3-13.9,10.2-23,10.2s-5.8-.4-8.5-1.2c-.1,0-.3,0-.4-.1,0,0-.2,0-.3,0-.2,0-.3-.1-.5-.2-.3-.1-.6-.2-1-.3-.3-.1-.6-.2-.9-.4-.2,0-.3-.1-.5-.2-.3-.1-.7-.3-1-.5-.1,0-.3-.1-.4-.2-.3-.1-.5-.3-.8-.4,0,0-.2,0-.3-.1-.1,0-.2-.1-.3-.2-.1,0-.3-.1-.4-.2-.3-.2-.6-.3-.8-.5,0,0,0,0,0,0,0,0,0,0,0,0-.1,0-.3-.2-.4-.3-.2,0-.3-.2-.5-.3-.3-.2-.7-.4-1-.7-.3-.2-.6-.4-.8-.6,0,0,0,0,0,0,0,0,0,0,0,0-.5-.4-1.1-.9-1.6-1.3,0,0,0,0-.1,0-.2-.1-.3-.3-.5-.5,0,0-.2-.2-.3-.2-.2-.2-.3-.3-.5-.5,0,0-.2-.1-.2-.2,0,0,0,0,0,0,0,0,0,0-.1-.1-.2-.2-.3-.4-.5-.6,0,0-.1-.1-.2-.2-.3-.3-.5-.6-.7-.8,0,0-.1-.2-.2-.3-.2-.2-.3-.4-.5-.6-.1-.2-.2-.3-.4-.5,0,0,0,0-.1-.1-.3-.4-.5-.7-.8-1.1t0,0s0,0,0,0h0c-.2-.3-.4-.6-.6-.9-.3-.6-.7-1.1-1-1.7h0c-.1-.2-.2-.4-.4-.7-.1-.2-.2-.4-.3-.7,0,0,0,0,0,0-.2-.4-.4-.9-.6-1.3,0-.2-.2-.5-.3-.7-.2-.4-.3-.8-.4-1.2,0,0,0-.2,0-.2,0-.2-.1-.4-.2-.5,0,0,0-.1,0-.2,0-.2-.1-.5-.2-.7,0,0,0,0,0-.1,0,0,0,0,0,0,0-.2,0-.3-.1-.5,0,0,0,0,0,0,0,0,0,0,0,0-.1-.4-.2-.9-.3-1.4,0-.2,0-.4-.1-.6,0,0,0-.1,0-.2,0,0,0,0,0,0,0,0,0-.1,0-.2,0,0,0-.1,0-.2,0,0,0,0,0-.1,0,0,0-.2,0-.2,0-.2,0-.4,0-.6,0,0,0,0,0-.1,0,0,0-.1,0-.2,0-.1,0-.2,0-.3,0,0,0,0,0-.1,0,0,0,0,0,0,0,0,0,0,0,0,0-.3,0-.5,0-.8,0,0,0-.1,0-.2,0,0,0-.2,0-.3,0-.1,0-.3,0-.4,0-.2,0-.4,0-.6,0,0,0,0,0-.1h0c0-.3,0-.5,0-.8s0-.5,0-.8h0c0,0,0-.1,0-.2,0-.2,0-.4,0-.6,0-.1,0-.3,0-.4,0,0,0-.2,0-.3,0,0,0-.1,0-.2,0-.3,0-.5,0-.8,0,0,0,0,0,0,0,0,0,0,0-.1,0-.2,0-.4,0-.5,0,0,0,0,0-.1,0-.2,0-.4,0-.6,0,0,0,0,0-.1,0,0,0,0,0,0,0,0,0,0,0,0,0-.2,0-.3,0-.5,0-.1,0-.3,0-.4,0-.2,0-.3,0-.5,0-.5.2-.9.3-1.4,0,0,0,0,0,0,0,0,0-.2,0-.2,0-.1,0-.2,0-.3,0,0,0,0,0,0,0,0,0,0,0-.1,0-.1,0-.3.1-.4,0,0,0-.2,0-.3,0,0,0,0,0-.1,0,0,0,0,0-.1,0-.2.1-.4.2-.5.1-.4.3-.8.4-1.1,0,0,0-.2.1-.3,0-.2.2-.5.3-.7.2-.5.4-.9.6-1.4,0,0,0,0,0-.1,0-.2.2-.4.3-.6.2-.4.5-.9.7-1.3.4-.6.8-1.3,1.2-1.9,0,0,0,0,0,0,0,0,0,0,0,0h0c.3-.4.6-.8.9-1.2,0,0,0,0,0,0,.1-.2.3-.4.4-.5.1-.2.3-.4.4-.5,0,0,.1-.2.2-.3,0,0,0,0,.1-.1.2-.3.5-.5.7-.8.3-.3.5-.5.8-.8.3-.3.5-.5.8-.8.3-.2.5-.5.8-.7,0,0,0,0,0,0,0,0,0,0,0,0,.4-.4.8-.7,1.2-1,.1-.1.3-.2.4-.3,0,0,0,0,0,0,0,0,0,0,.1,0,.3-.2.6-.4.8-.6.1,0,.3-.2.4-.3,0,0,0,0,.1,0,0,0,0,0,0,0,.1,0,.3-.2.4-.3.2-.1.4-.3.6-.4,0,0,.2-.1.3-.2,0,0,0,0,0,0,0,0,.2-.1.3-.2.2-.1.4-.2.6-.3.2,0,.3-.2.5-.3,0,0,.1,0,.2-.1,0,0,.2,0,.3-.1l.6-.3c0,0,.1,0,.2-.1.5-.2.9-.4,1.4-.6.3-.1.5-.2.8-.3.2,0,.4-.2.6-.3.2,0,.5-.2.7-.3,0,0,0,0,0,0,0,0,0,0,0,0,0,0,0,0,0,0,.2,0,.5-.2.7-.2.2,0,.5-.1.7-.2,2.7-.8,5.6-1.2,8.5-1.2,8.6,0,16.3,3.5,22,9.1,5.6,5.6,9.1,13.4,9.1,22s-3.1,15.4-8.1,20.9Z"/>
        <path class="cls-107" d="M42.6,430.5c.2.1.4.3.7.4,0,0,.2,0,.3,0l-.5-.4c.2.1.3.2.5.4,9.1-1.6,13.2-13.7,16.3-21.3,4.9-13.5,13.3-37,18-50.3,6.9-21.9,15.5-43.3,25.4-64,6.7-13.8,13.5-27.6,22.1-40.3,8.7-12.6,18.3-24.5,28.2-36.2,2.4-2.2,4.5-4.8,6.2-7.5,2.6-4.3,5.3-10.7,5-18.8,0,0,0,0,0,0,0-1.3-.2-2.7-.4-4.2,0-.6-.2-1.2-.3-1.8-2.8-17-10.3-49.6-11.7-55.4,0,0,0,0,0,0,0-.5-.2-.9-.2-1.2,0,0,0,0,0,0h0c-1-5.2-3.9-8.3-5-9.3,0,0-.2-.1-.3-.2,0,0,0,0-.1-.1,0,0,0,0,0,0,0,0,.1,0,.4,0-2.8-2.2-7-3.8-13.4-3.6-1.5,0-3.1.2-4.8.5-17.8,2.8-43.5,6.7-57.3,12.4,0,0,0,0,0,0-3.2,1.3-5.8,2.8-7.4,4.3-.6.5-1,1.1-1.4,1.8-4.2,7.6-33.7,63.2-44.6,138.8-11.7,81.4-6.9,154.8,24.3,157,.2,0,.4,0,.6,0l-.5-.4ZM114.5,226.9c0,3.6-2.9,6.5-6.5,6.5h-11c-3.6,0-6.5-2.9-6.5-6.5v-9c0-2.6,1-5.1,2.9-7h.1c.3-.4.5-.7.8-1l6.6-8c.7-.7,1.8-.7,2.6,0l8.1,8.4c1.9,1.7,3,4.2,3,6.7v9.9ZM134.4,137.8c0,0,0-.1,0-.2,0-1.4.6-2.7,1.6-3.7,0,0,.1-.1.2-.2,0,0,.2-.1.2-.2.7-.6,1.6-1,2.5-1.2,3-.6,6,1.4,6.6,4.5l1.8,9.4c.3,1.5,0,3-.9,4.2-.8,1.2-2.1,2.1-3.6,2.3-.3,0-.7,0-1,0-2.6,0-5-1.9-5.5-4.6l-1.8-9.4c0-.3,0-.7,0-1h0ZM125.1,182.3h9.9c3.6,0,6.5,2.9,6.5,6.5v11c0,3.6-2.9,6.5-6.5,6.5h-9c-2.6,0-5.1-1-7-2.9l-.2-.2c-.2-.2-.5-.5-.7-.7l-8-6.6c-.7-.7-.7-1.9,0-2.6l8.4-8.1c1.7-1.9,4.2-3,6.7-3ZM90.5,163.2c0-3.6,2.9-6.5,6.5-6.5h11c3.6,0,6.5,2.9,6.5,6.5v9c0,2.6-1,5.1-2.9,7l-.2.2c-.3.3-.5.5-.7.8l-6.6,8c-.4.4-.8.6-1.3.6s-.9-.2-1.3-.5l-8.1-8.4c-1.9-1.7-3-4.2-3-6.7v-9.9ZM63.5,189.4c0-3.6,2.9-6.5,6.5-6.5h9c2.6,0,5.1,1,7,2.9.3.3.6.6,1,.9l8,6.6c.7.7.7,1.8,0,2.6h0s-8.4,8.1-8.4,8.1c-1.7,1.9-4.2,3-6.7,3h-9.9c-3.6,0-6.5-2.9-6.5-6.5v-11Z"/>
        <path class="cls-51" d="M165.3,193.9s0,0,0,0c0,0,0,0,0,0s0,0,0,0Z"/>
        <path class="cls-103" d="M43.1,430.9s0,0,.1,0c-.2-.1-.5-.3-.7-.4l.5.4Z"/>
        <path class="cls-77" d="M43.1,430.9s0,0,.1,0c-.2-.1-.5-.3-.7-.4l.5.4Z"/>
        <path class="cls-103" d="M147.2,120.3c1.1,1,3.9,4.1,5,9.3-.2-1.4-1.1-5.9-5-9.3Z"/>
        <path class="cls-72" d="M147.2,120.3c1.1,1,3.9,4.1,5,9.3-.2-1.4-1.1-5.9-5-9.3Z"/>
        <path class="cls-13" d="M165.3,193.9s0,0,0,0c0,0,0,0,0,0,0,0,0,0,0,0,0,0,0,0,0,0Z"/>
        <path class="cls-97" d="M165.3,193.9s0,0,0,0c0,0,0,0,0,0,0,0,0,0,0,0,0,0,0,0,0,0Z"/>
        <path class="cls-49" d="M43.6,430.9h0c0,0-.2,0-.3,0,0,0,0,0,0,0h0s0,0,0,0c0,0,.2,0,.3,0h0Z"/>
        <path class="cls-11" d="M43.6,430.9h0c0,0-.2,0-.3,0,0,0,0,0,0,0h0s0,0,0,0c0,0,.2,0,.3,0h0Z"/>
        <path class="cls-85" d="M43.6,430.9h0c0,0-.2,0-.3,0,0,0,0,0,0,0h0s0,0,0,0c0,0,.2,0,.3,0h0Z"/>
        <path class="cls-49" d="M43.7,430.9s0,0,0,0c0,0,0,0,0,0,2.8-.3,9.8-2.5,14.8-15.9-3.2,7-7.5,14.8-14.8,15.9Z"/>
        <path class="cls-44" d="M43.7,430.9s0,0,0,0c0,0,0,0,0,0,2.8-.3,9.8-2.5,14.8-15.9-3.2,7-7.5,14.8-14.8,15.9Z"/>
        <path class="cls-58" d="M43.7,430.9s0,0,0,0c0,0,0,0,0,0,2.8-.3,9.8-2.5,14.8-15.9-3.2,7-7.5,14.8-14.8,15.9Z"/>
        <path class="cls-49" d="M165.3,194h0c0,0,0,0,0,0,0,0,0,0,0,0,0,0,0,0,0,0,0,0,0,0,0,0,0,0,0,0,0,0,0,0,0,0,0,0,0,0,0,0,0-.1,0,0,0,0,0,0,0,0,0-.1,0-.2,0,0,0,0,0,0,0-.2,0-.3-.1-.5,0-.2-.1-.4-.2-.5.3,8-2.4,14.4-5,18.8,2.6-4.1,4.4-8.7,5.3-13.5.1-1.2.2-2.3.3-3.6,0,0,0,0,0,0Z"/>
        <path class="cls-42" d="M165.3,194h0c0,0,0,0,0,0,0,0,0,0,0,0,0,0,0,0,0,0,0,0,0,0,0,0,0,0,0,0,0,0,0,0,0,0,0,0,0,0,0,0,0-.1,0,0,0,0,0,0,0,0,0-.1,0-.2,0,0,0,0,0,0,0-.2,0-.3-.1-.5,0-.2-.1-.4-.2-.5.3,8-2.4,14.4-5,18.8,2.6-4.1,4.4-8.7,5.3-13.5.1-1.2.2-2.3.3-3.6,0,0,0,0,0,0Z"/>
        <path class="cls-59" d="M165.3,194h0c0,0,0,0,0,0,0,0,0,0,0,0,0,0,0,0,0,0,0,0,0,0,0,0,0,0,0,0,0,0,0,0,0,0,0,0,0,0,0,0,0-.1,0,0,0,0,0,0,0,0,0-.1,0-.2,0,0,0,0,0,0,0-.2,0-.3-.1-.5,0-.2-.1-.4-.2-.5.3,8-2.4,14.4-5,18.8,2.6-4.1,4.4-8.7,5.3-13.5.1-1.2.2-2.3.3-3.6,0,0,0,0,0,0Z"/>
        <path class="cls-99" d="M159.9,316.8c-2.9,0-6.3,0-9.8.6-6.4,1-13.6,3.5-19.9,8.9-17.1,14.4-29,48.3-29,48.3,0,0,0,0,0,0,0,.1-.1.3-.2.6-.2.4-.4,1.1-.7,1.9-.1.4-.3.7-.4,1.2-2.4,6.6-7.6,20.8-12.8,34-.3.7-.5,1.3-.8,2-.6,1.5-1.2,2.9-1.7,4.3-.4,1.1-.9,2.1-1.3,3.1-.3.6-.5,1.3-.8,1.9-.3.6-.5,1.3-.8,1.9-.3.6-.5,1.2-.8,1.8-.2.5-.5,1-.7,1.5,0,.1-.1.3-.2.4-.4.8-.7,1.6-1.1,2.3-.2.5-.5,1-.7,1.4,0,0,0,0,0,0-.3.5-.5,1.1-.8,1.5,0,0,0,.2-.1.2-.2.4-.4.8-.7,1.2,0,0,0,.1-.1.2-.5.9-.9,1.6-1.3,2.2,0,0,0,0,0,0,0,0,.2,0,.2,0,.1,0,.3,0,.4-.1,2.7-.9,4.9-4.6,4.9-4.6.8-1.1,1.6-2.3,2.4-3.4,0,0,0,0,0,0,4.2-5.7,9.6-14.7,14.9-28.6l9.2-22.7h0c0-.1,11.4-28.5,11.4-28.5,0,0,2.8-8.6,7.2-16,0,0,0,0,0,0,.5-.9,1-1.8,1.5-2.6.7-1,1.4-1.9,2.2-2.8,0,0,0,0,0,0,.8-1,1.7-1.8,2.5-2.6,1.7-1.4,3.7-2.6,5.8-3.6,8.1-3.7,18.1-4.6,18.1-4.6,0,0,.5,0,1.5-.2,0,0,0,0,0,0,4.7-.2,9.1,0,12.3.2,0,0,0,0,0,0-.2,0-4.2-1.1-10.1-1.3Z"/>
        <path class="cls-2" d="M490,274c-10.8-75.5-40.4-131.1-44.6-138.8-.4-.7-.8-1.3-1.4-1.8-1.7-1.6-4.3-3-7.5-4.3,0,0,0,0,0,0-13.9-5.7-39.5-9.6-57.2-12.4-1.8-.3-3.5-.4-5-.5-6.3-.2-10.4,1.5-13.2,3.7h0s0,0,0,0c-5.1,4.1-5.5,10.1-5.5,10.1,0,0-9.4,40.1-12.2,58.2,0,0,0,0,0,.1,0,0,0,0,0,0-.1.7-.2,1.5-.3,2.2,0,0,0,0,0,0,0,.7,0,1.4-.1,2.1,0,0,0,0,0,0,0,.6,0,1.1,0,1.7,0,0,0,0,0,0,0,0,0,0,0,0,0,0,0,.1,0,.2,0,0,0,.2,0,.3,0,0,0,.1,0,.2,0,0,0,.1,0,.2,0,0,0,.1,0,.2,0,.1,0,.3,0,.5h0s0,0,0,0c0,0,0,0,0,0,0,.1,0,.2,0,.3,0,0,0,.1,0,.2,0,0,0,0,0,0h0c0,0,0,.1,0,.1,0,.1,0,.3,0,.4,0,.2,0,.4,0,.6,1.5,7.9,5.6,15.3,11.4,20.7,9.7,11.8,19.1,23.8,27.7,36.4,8.4,12.8,15.2,26.5,22,40.1,10,20.6,18.8,41.8,25.7,63.6,4.6,13.2,13.2,36.8,17.9,50.2,2.1,5.2,4.3,12.8,8.4,17.6,0,0,0,0,.1.1.1.1.2.2.3.3,0,0,.1.1.2.2,0,0,0,0,.1.1,0,0,.1.1.2.2,0,0,0,0,.1.1,0,0,.2.1.2.2,0,0,0,0,0,0,0,0,0,0,0,0,.1.1.2.2.4.3,0,0,.2.1.3.2,0,0,0,0,0,0,0,0,0,0,0,0,.2.1.3.2.5.4,0,0,.2.1.3.2,0,0,.1,0,.2,0,.2.1.4.3.6.4,0,0,.2,0,.3.1,0,0,.1,0,.2,0,.1,0,.2.1.3.2,0,0,0,0,0,0h0c.1,0,.3.1.4.2,0,0,0,0,.1,0,0,0,0,0,.1,0,0,0,.2,0,.3.1.1,0,.2,0,.3.1,0,0,.1,0,.2,0,0,0,0,0,.1,0,0,0,0,0,0,0,0,0,0,0,0,0,0,0,0,0,0,0,0,0,0,0,0,0,0,0,0,0,0,0,0,0,0,0,.1,0,0,0,0,0,.1,0h0s0,0,0,0c0,0,0,0,0,0s0,0,0,0h0s0,0,0,0c0,0,0,0,0,0,0,0,0,0,0,0,0,0,0,0,0,0,0,0,0,0,0,0,0,0,0,0,0,0,0,0,0,0,0,0,0,0,0,0,0,0h0s0,0,0,0c0,0,0,0,0,0,0,0,0,0,0,0,0,0,0,0,0,0h0s0,0,0,0c0,0,0,0,0,0,.1,0,.2,0,.3,0,0,0,0,0,0,0,0,0,0,0,0,0,0,0,.1,0,.2,0h0s0,0,0,0h.2s.1,0,.1,0c0,0,0,0,0,0,0,0,0,0,0,0,0,0,.2,0,.3,0,.3,0,.6,0,.9,0,0,0,0,0,0,0,31.2-2.2,36-75.6,24.3-157ZM361.4,146.1l1.8-9.4c.6-3,3.5-5,6.6-4.5,2.6.5,4.6,2.8,4.6,5.5s0,.7,0,1l-1.8,9.4c-.5,2.7-2.9,4.6-5.5,4.6s-.7,0-1,0c-1.5-.3-2.7-1.1-3.6-2.4-.8-1.2-1.2-2.7-.9-4.2ZM370,210c-.3,0-.5,0-.8,0-.3,0-.5,0-.8,0-.3,0-.6,0-.9-.1-.2,0-.5,0-.7-.1-.1,0-.2,0-.4,0l-.6-.2c-.3,0-.6-.2-.8-.3-.2,0-.5-.2-.7-.2-.2,0-.3-.1-.5-.2-.2,0-.3-.1-.5-.2-.2,0-.4-.2-.6-.3-.2,0-.3-.2-.5-.3,0,0,0,0-.1,0,0,0,0,0-.1,0-.2-.1-.4-.2-.6-.4h0c0-.1-.2-.2-.3-.2-.1,0-.2-.2-.3-.3,0,0-.2-.1-.3-.2-.2-.2-.5-.4-.7-.6l-.3-.3c-.2-.2-.4-.4-.6-.6-.2-.2-.4-.4-.5-.6-.2-.2-.4-.4-.6-.7,0-.1-.2-.2-.3-.3,0,0-.1-.2-.2-.3h0c-.1-.3-.2-.4-.3-.6-.1-.2-.2-.3-.3-.5-.4-.7-.8-1.4-1-2.2,0-.2-.1-.3-.2-.5,0,0,0,0,0-.2,0-.2-.1-.4-.2-.7v-.3c-.1-.1-.1-.2-.2-.3,0-.4-.2-.7-.2-1.2,0,0,0,0,0-.1,0-.2,0-.4,0-.7,0-.2,0-.4,0-.6,0,0,0,0,0-.1,0,0,0-.1,0-.2,0-.2,0-.4,0-.6,0-8.5,6.9-15.4,15.4-15.4s15.4,6.9,15.4,15.4-6.9,15.4-15.4,15.4ZM405.7,245.5c-8.5,0-15.4-6.9-15.4-15.4s6.9-15.4,15.4-15.4,15.4,6.9,15.4,15.4-6.9,15.4-15.4,15.4ZM406,174.8c-8.5,0-15.4-6.9-15.4-15.4s6.9-15.4,15.4-15.4,15.4,6.9,15.4,15.4-6.9,15.4-15.4,15.4ZM441.6,210.8c-8.5,0-15.4-6.9-15.4-15.4s6.9-15.4,15.4-15.4,15.4,6.9,15.4,15.4-6.9,15.4-15.4,15.4Z"/>
        <path class="cls-49" d="M463.3,430.7s0,0,0,0h0s0,0,0,0c0,0,0,0,0,0Z"/>
        <path class="cls-24" d="M463.3,430.7s0,0,0,0h0s0,0,0,0c0,0,0,0,0,0Z"/>
        <path class="cls-1" d="M463.3,430.7s0,0,0,0h0s0,0,0,0c0,0,0,0,0,0Z"/>
        <path class="cls-49" d="M462.7,430.5s0,0,0,0c0,0,0,0,0,0,0,0,0,0,0,0,0,0,0,0,0,0Z"/>
        <path class="cls-33" d="M462.7,430.5s0,0,0,0c0,0,0,0,0,0,0,0,0,0,0,0,0,0,0,0,0,0Z"/>
        <path class="cls-92" d="M462.7,430.5s0,0,0,0c0,0,0,0,0,0,0,0,0,0,0,0,0,0,0,0,0,0Z"/>
        <path class="cls-49" d="M463.1,430.6s0,0,0,0h0s0,0,0,0c0,0,0,0,0,0,0,0,0,0,0,0s0,0,0,0c0,0,0,0,0,0,0,0,0,0,0,0Z"/>
        <path class="cls-43" d="M463.1,430.6s0,0,0,0h0s0,0,0,0c0,0,0,0,0,0,0,0,0,0,0,0s0,0,0,0c0,0,0,0,0,0,0,0,0,0,0,0Z"/>
        <path class="cls-95" d="M463.1,430.6s0,0,0,0h0s0,0,0,0c0,0,0,0,0,0,0,0,0,0,0,0s0,0,0,0c0,0,0,0,0,0,0,0,0,0,0,0Z"/>
        <path class="cls-49" d="M463,430.6s0,0,0,0h0s0,0,0,0,0,0,0,0Z"/>
        <path class="cls-40" d="M463,430.6s0,0,0,0h0s0,0,0,0,0,0,0,0Z"/>
        <path class="cls-100" d="M463,430.6s0,0,0,0h0s0,0,0,0,0,0,0,0Z"/>
        <path class="cls-49" d="M457.4,427.4c0,0-.1-.1-.2-.2,0,0,0,0-.1-.1,0,0,0,0,.1.1,0,0,.1.1.2.2Z"/>
        <path class="cls-10" d="M457.4,427.4c0,0-.1-.1-.2-.2,0,0,0,0-.1-.1,0,0,0,0,.1.1,0,0,.1.1.2.2Z"/>
        <path class="cls-108" d="M457.4,427.4c0,0-.1-.1-.2-.2,0,0,0,0-.1-.1,0,0,0,0,.1.1,0,0,.1.1.2.2Z"/>
        <path class="cls-49" d="M464.4,430.9h-.1s-.2,0-.2,0c0,0,.2,0,.3,0,0,0,0,0,0,0Z"/>
        <path class="cls-12" d="M464.4,430.9h-.1s-.2,0-.2,0c0,0,.2,0,.3,0,0,0,0,0,0,0Z"/>
        <path class="cls-56" d="M464.4,430.9h-.1s-.2,0-.2,0c0,0,.2,0,.3,0,0,0,0,0,0,0Z"/>
        <path class="cls-49" d="M343,196.1s0,0,0,0h0c0-.2,0-.4,0-.5,0,0,0-.1,0-.2,0,0,0,.1,0,.2,0,.2,0,.3,0,.5Z"/>
        <path class="cls-6" d="M343,196.1s0,0,0,0h0c0-.2,0-.4,0-.5,0,0,0-.1,0-.2,0,0,0,.1,0,.2,0,.2,0,.3,0,.5Z"/>
        <path class="cls-60" d="M343,196.1s0,0,0,0h0c0-.2,0-.4,0-.5,0,0,0-.1,0-.2,0,0,0,.1,0,.2,0,.2,0,.3,0,.5Z"/>
        <path class="cls-49" d="M460.8,429.8s0,0,0,0c-.1,0-.2-.1-.3-.2.1,0,.2.1.3.2,0,0,0,0,0,0Z"/>
        <path class="cls-20" d="M460.8,429.8s0,0,0,0c-.1,0-.2-.1-.3-.2.1,0,.2.1.3.2,0,0,0,0,0,0Z"/>
        <path class="cls-90" d="M460.8,429.8s0,0,0,0c-.1,0-.2-.1-.3-.2.1,0,.2.1.3.2,0,0,0,0,0,0Z"/>
        <polygon class="cls-49" points="458.5 428.3 458.5 428.3 458.5 428.3 458.5 428.3"/>
        <polygon class="cls-4" points="458.5 428.3 458.5 428.3 458.5 428.3 458.5 428.3"/>
        <polygon class="cls-109" points="458.5 428.3 458.5 428.3 458.5 428.3 458.5 428.3"/>
        <path class="cls-49" d="M463.3,430.7s0,0,0,0c.1,0,.2,0,.3,0,0,0,0,0,0,0,0,0,0,0,0,0-.1,0-.2,0-.3,0,0,0,0,0,0,0,0,0,0,0,0,0h0s0,0,0,0c0,0,0,0,0,0Z"/>
        <path class="cls-32" d="M463.3,430.7s0,0,0,0c.1,0,.2,0,.3,0,0,0,0,0,0,0,0,0,0,0,0,0-.1,0-.2,0-.3,0,0,0,0,0,0,0,0,0,0,0,0,0h0s0,0,0,0c0,0,0,0,0,0Z"/>
        <path class="cls-83" d="M463.3,430.7s0,0,0,0c.1,0,.2,0,.3,0,0,0,0,0,0,0,0,0,0,0,0,0-.1,0-.2,0-.3,0,0,0,0,0,0,0,0,0,0,0,0,0h0s0,0,0,0c0,0,0,0,0,0Z"/>
        <path class="cls-49" d="M459.3,428.9c0,0,.1,0,.2,0,0,0-.1,0-.2,0,0,0-.2-.1-.3-.2-.2-.1-.3-.2-.5-.4.2.1.3.2.5.4,0,0,.2.1.3.2Z"/>
        <path class="cls-36" d="M459.3,428.9c0,0,.1,0,.2,0,0,0-.1,0-.2,0,0,0-.2-.1-.3-.2-.2-.1-.3-.2-.5-.4.2.1.3.2.5.4,0,0,.2.1.3.2Z"/>
        <path class="cls-73" d="M459.3,428.9c0,0,.1,0,.2,0,0,0-.1,0-.2,0,0,0-.2-.1-.3-.2-.2-.1-.3-.2-.5-.4.2.1.3.2.5.4,0,0,.2.1.3.2Z"/>
        <path class="cls-49" d="M462.4,430.4s0,0,0,0c0,0,0,0-.1,0,0,0,0,0,.1,0,0,0,0,0,0,0Z"/>
        <path class="cls-39" d="M462.4,430.4s0,0,0,0c0,0,0,0-.1,0,0,0,0,0,.1,0,0,0,0,0,0,0Z"/>
        <path class="cls-63" d="M462.4,430.4s0,0,0,0c0,0,0,0-.1,0,0,0,0,0,.1,0,0,0,0,0,0,0Z"/>
        <path class="cls-49" d="M343.1,196.8s0,0,0,0h0s0,0,0,0c0,0,0,0,0,0h0Z"/>
        <path class="cls-7" d="M343.1,196.8s0,0,0,0h0s0,0,0,0c0,0,0,0,0,0h0Z"/>
        <path class="cls-64" d="M343.1,196.8s0,0,0,0h0s0,0,0,0c0,0,0,0,0,0h0Z"/>
        <path class="cls-49" d="M457.9,427.8s0,0,0,0c0,0,0,0,0,0,0,0,0,0,0,0,0,0,0,0,0,0Z"/>
        <path class="cls-22" d="M457.9,427.8s0,0,0,0c0,0,0,0,0,0,0,0,0,0,0,0,0,0,0,0,0,0Z"/>
        <path class="cls-106" d="M457.9,427.8s0,0,0,0c0,0,0,0,0,0,0,0,0,0,0,0,0,0,0,0,0,0Z"/>
        <path class="cls-49" d="M343,194.9c0,0,0,.2,0,.3,0,0,0-.2,0-.3,0,0,0-.1,0-.2s0,0,0,0c0,0,0,0,0,0,0,0,0,.1,0,.2Z"/>
        <path class="cls-25" d="M343,194.9c0,0,0,.2,0,.3,0,0,0-.2,0-.3,0,0,0-.1,0-.2s0,0,0,0c0,0,0,0,0,0,0,0,0,.1,0,.2Z"/>
        <path class="cls-55" d="M343,194.9c0,0,0,.2,0,.3,0,0,0-.2,0-.3,0,0,0-.1,0-.2s0,0,0,0c0,0,0,0,0,0,0,0,0,.1,0,.2Z"/>
        <path class="cls-49" d="M461.7,430.2c0,0-.2,0-.3-.1,0,0,0,0-.1,0,0,0,0,0,.1,0,0,0,.2,0,.3.1Z"/>
        <path class="cls-3" d="M461.7,430.2c0,0-.2,0-.3-.1,0,0,0,0-.1,0,0,0,0,0,.1,0,0,0,.2,0,.3.1Z"/>
        <path class="cls-101" d="M461.7,430.2c0,0-.2,0-.3-.1,0,0,0,0-.1,0,0,0,0,0,.1,0,0,0,.2,0,.3.1Z"/>
        <path d="M365.9,152.7c.3,0,.7,0,1,0,2.6,0,5-1.9,5.5-4.6l1.8-9.4c0-.3,0-.7,0-1,0-2.7-1.9-5-4.6-5.5-3-.6-6,1.4-6.6,4.5l-1.8,9.4c-.3,1.5,0,3,.9,4.2.8,1.2,2.1,2.1,3.6,2.4Z"/>
        <path d="M136.2,148.3c.5,2.7,2.9,4.6,5.5,4.6s.7,0,1,0c1.5-.3,2.7-1.1,3.6-2.3.8-1.2,1.2-2.7.9-4.2l-1.8-9.4c-.6-3-3.5-5-6.6-4.5-1,.2-1.8.6-2.5,1.2,0,0-.2.1-.2.2,0,0-.1.1-.2.2-.9,1-1.5,2.2-1.6,3.7,0,0,0,.1,0,.2h0c0,.4,0,.8,0,1.1l1.8,9.4Z"/>
        <path class="cls-91" d="M194.5,233.7c-5.1-3.7-11.3-5.8-18.1-5.8-17.2,0-31.1,13.9-31.1,31.1s13.9,31.1,31.1,31.1,15.4-3.1,20.9-8.1c6.3-5.7,10.2-13.9,10.2-23s-5.1-19.6-13-25.3ZM176.4,284.3c-14,0-25.3-11.4-25.3-25.3s11.3-25.4,25.3-25.4,25.4,11.4,25.4,25.4-11.4,25.3-25.4,25.3Z"/>
        <g>
          <path class="cls-62" d="M265.8,287.9c0,0,0-.1,0-.2,0-.2,0-.4-.2-.6,0,0,0,0,0,0,0-.1-.1-.3-.2-.4,0,0,0-.1-.1-.2,0,0-.1-.2-.2-.3,0,0-.1-.1-.2-.2-.1-.1-.3-.3-.4-.4,0,0,0,0,0,0-.2-.1-.3-.2-.5-.3,0,0-.1,0-.2,0-.1,0-.3,0-.4-.1,0,0,0,0-.1,0-.2,0-.4,0-.7,0h-17.5c0,0-.1,0-.2,0-1.8,0-3.2,1.6-3.2,3.4v.5c0,1.9,1.5,3.4,3.4,3.4h17.5s0,0,0,0c.2,0,.4,0,.5,0,0,0,.2,0,.2,0,.1,0,.3,0,.4-.1,0,0,.2,0,.2,0,.1,0,.2-.1.4-.2.2-.1.4-.3.5-.4,0,0,0,0,0,0,0,0,0,0,.1-.1,0-.1.2-.2.3-.3,0,0,0,0,0-.1,0-.1.2-.3.2-.4,0,0,0-.1,0-.2,0,0,0,0,0-.1,0-.2.1-.3.1-.5,0-.2,0-.3,0-.5,0,0,0,0,0,0v-.5s0,0,0-.1c0-.2,0-.3,0-.5Z"/>
          <path class="cls-79" d="M244.9,292.8c-2.1,0-3.8-1.7-3.8-3.8v-.5c0-2,1.6-3.7,3.6-3.8,0,0,.1,0,.2,0h17.5c.2,0,.5,0,.7,0h.1c.2,0,.3.1.5.2.1,0,.2,0,.2,0,.2,0,.4.2.6.3l-.2.3.2-.3c.2.1.3.3.5.4,0,0,0,.1.1.2l-.2.3.3-.2c0,0,.1.2.2.2,0,0,0,0,0,.2l-.3.3.3-.2c0,.1.2.3.2.4,0,.2.2.4.2.7,0,0,0,.1,0,.2,0,.2,0,.3,0,.5,0,0,0,.1,0,.1v.6c0,.2,0,.4,0,.5,0,.2,0,.4-.2.6,0,0,0,.1,0,.1,0,0,0,.1,0,.2,0,.2-.2.3-.3.5h0c0,.2-.2.4-.3.5,0,0,0,.1-.1.2h0c-.2.2-.4.4-.6.5-.1,0-.3.2-.4.2,0,0-.2,0-.3.1-.1,0-.3,0-.4.1,0,0-.2,0-.3,0-.2,0-.4,0-.6,0h-17.6ZM244.9,285.4h-.2c-1.6.1-2.9,1.4-2.9,3v.5c0,1.7,1.4,3,3,3h17.5c.2,0,.4,0,.5,0,0,0,.1,0,.2,0,.1,0,.2,0,.3-.1,0,0,.1,0,.2,0,.1,0,.2-.1.3-.2.2-.1.3-.2.5-.4l.3.2-.2-.3h0c0-.2.2-.3.2-.4h.4c0,.1-.3,0-.3,0,0-.1.1-.2.2-.4v-.2c0,0,.5,0,.5,0h-.4c0-.3.1-.4.1-.6,0-.1,0-.3,0-.4h.4s-.4-.1-.4-.1v-.5c0,0,0,0,0-.1,0-.1,0-.3,0-.4v-.2c0-.2-.1-.3-.2-.5,0-.1-.1-.3-.2-.4h0c0-.1,0-.2,0-.2,0,0,0-.1-.1-.2v-.2c-.1,0-.2,0-.2,0-.1-.1-.3-.2-.4-.3-.2-.1-.4-.2-.5-.3h0c-.2-.1-.3-.2-.4-.2v-.4s0,.4,0,.4c-.2,0-.4,0-.6,0h-17.5Z"/>
        </g>
        <path class="cls-110" d="M238.3,227.2s0,0,0,0c0,0,0,0,0,.1,0,0,0,0,0,0,0,0-.2.2-.3.2-.2.2-.5.3-.8.4,0,0-.1,0-.2,0,0,0-.2,0-.3,0-.1,0-.2,0-.4,0-1,0-1.8-.5-2.3-1.4,0-.1-.1-.3-.2-.4,0-.1,0-.2,0-.3,0,0,0-.1,0-.2,0-.1,0-.2,0-.3s0-.2,0-.3c0,0,0,0,0,0,0-.3.1-.5.2-.7,0,0,0,0,0,0,0,0,0,0,0,0h0s0,0,0,0c0,0,0,0,0,0,0,0,0,0,0,0,0,0,0,0,0,0-.2.4-.4.8-.4,1.3,0,1.4,1.2,2.6,2.6,2.6s1.9-.6,2.3-1.5Z"/>
        <path class="cls-110" d="M244.8,228.7c1,0,1.9-.6,2.3-1.5,0,0,0,0,0,.1,0,0,0,.1-.1.1,0,0-.1.1-.2.2-.3.2-.6.4-.9.5,0,0,0,0-.1,0,0,0,0,0-.1,0-.1,0-.2,0-.3,0,0,0-.1,0-.2,0-.1,0-.3,0-.4,0,0,0-.1,0-.2,0,0,0-.2,0-.2,0-.2,0-.4-.2-.6-.3,0,0-.1,0-.2-.1,0,0-.1-.1-.2-.2,0,0-.1-.1-.2-.2h0c-.1-.1-.2-.3-.3-.4,0,0,0-.1-.1-.2,0,0,0-.2,0-.2s0-.2,0-.3c0,0,0-.2,0-.2h0c0-.1,0-.2,0-.3s0-.2,0-.3h0c0-.2,0-.3.1-.5,0,0,0-.1,0-.2h0s0,0,0,0c0,0,0,0,0,0-.3.4-.4.9-.4,1.4,0,1.4,1.1,2.6,2.6,2.6Z"/>
        <path class="cls-110" d="M253.8,228.7c1,0,1.9-.6,2.3-1.5,0,0,0,0,0,0,0,.1-.1.2-.2.3-.2.2-.4.3-.6.4,0,0,0,0-.1,0,0,0,0,0-.1,0,0,0-.2,0-.3,0-.1,0-.2,0-.4,0,0,0,0,0-.1,0,0,0-.1,0-.2,0-.1,0-.3,0-.4,0-.1,0-.2,0-.3,0,0,0-.2,0-.3-.1-.3-.1-.5-.3-.7-.5-.2-.2-.3-.4-.5-.6,0-.1-.1-.2-.2-.3,0,0,0-.2,0-.2,0,0,0-.1,0-.2,0,0,0,0,0-.1,0,0,0,0,0,0,0,0,0-.1,0-.2h0c0,0,0-.1,0-.2s0-.1,0-.2c0,0,0-.1,0-.2,0,0,0,0,0,0,0-.2.1-.4.2-.6h0s0,0,0,0h0s0,0,0,0c-.3.4-.4.9-.4,1.4,0,1.4,1.2,2.6,2.6,2.6Z"/>
        <path class="cls-110" d="M262.8,228.7c1,0,1.9-.6,2.3-1.5,0,0,0,0-.1.1,0,0,0,0,0,0-.1.2-.3.3-.5.4-.1,0-.2.1-.3.2,0,0,0,0-.1,0-.2,0-.4.1-.6.2-.1,0-.2,0-.4,0s-.2,0-.3,0c-.5,0-.9-.3-1.3-.6,0,0-.2-.1-.2-.2,0,0-.2-.2-.2-.3,0,0,0,0,0-.1,0,0,0-.1-.1-.2,0,0,0-.1,0-.2,0-.2-.1-.3-.1-.5,0,0,0-.1,0-.2s0-.1,0-.2h0c0-.2,0-.3,0-.4,0,0,0-.1,0-.2,0,0,0,0,0,0,0,0,0-.2,0-.2,0,0,0-.2,0-.2,0,0,0,0,0-.1,0,0,0,0,0,0,0,0,0,0,0,0-.3.4-.4.9-.4,1.4,0,1.4,1.2,2.6,2.6,2.6Z"/>
        <path class="cls-110" d="M273.9,227.5h0s0,0,0,0c-.3.3-.6.5-.9.6,0,0-.1,0-.2,0,0,0,0,0,0,0-.1,0-.2,0-.3,0h0c-.1,0-.2,0-.3,0-1.4,0-2.6-1.2-2.6-2.6s0-.2,0-.3c0,0,0-.1,0-.2,0,0,0-.2,0-.3,0,0,0,0,0-.1,0,0,0,0,0,0,0,0,0,0,0,0h0s0,0,0,0h0s0,0,0,0c-.3.4-.4.9-.4,1.4,0,1.4,1.2,2.6,2.6,2.6s1.9-.6,2.3-1.4c0,0,0,0,0,0,0,0-.1.1-.2.2Z"/>
        <path class="cls-110" d="M242.5,235.2s0,0-.1.1h0c-.1.1-.2.2-.4.3,0,0-.2.1-.3.2,0,0-.2,0-.3.1-.1,0-.3,0-.4.1,0,0-.1,0-.2,0h0c0,0-.2,0-.3,0s-.2,0-.3,0c-.1,0-.3,0-.4,0t0,0c-.1,0-.2,0-.3-.1,0,0,0,0-.1,0-.1,0-.2,0-.3-.1,0,0-.2-.1-.3-.2-.3-.2-.4-.4-.6-.7,0,0,0-.2-.1-.3-.1-.2-.2-.5-.2-.7,0-.1,0-.2,0-.3s0-.2,0-.3c0-.1,0-.3,0-.4,0,0,0-.1,0-.2,0,0,0,0,0-.1-.3.4-.4.9-.4,1.4,0,1.4,1.2,2.6,2.6,2.6s1.9-.6,2.3-1.4c0,0,0,0,0,0,0,0,0,0,0,.1,0,0,0,0,0,0Z"/>
        <path class="cls-110" d="M242.6,235.1s0,0,0,0c0,0,0,0,0,0,0,0,0,0,0,0Z"/>
        <path class="cls-110" d="M247.2,232.5s0,0,0,0h0Z"/>
        <path class="cls-110" d="M251.3,235.4s0,0-.1.1c-.3.3-.6.5-1,.6,0,0-.1,0-.2,0-.2,0-.3,0-.5,0s-.2,0-.3,0c0,0-.2,0-.3,0,0,0-.1,0-.2,0,0,0-.1,0-.2,0-.1,0-.2-.1-.3-.2-.1,0-.2-.1-.3-.2-.2-.2-.4-.3-.5-.5s-.2-.3-.2-.4c0,0,0-.1,0-.2,0,0,0-.2,0-.3,0-.2,0-.3,0-.5,0-.4,0-.7.2-1-.3.4-.4.9-.4,1.4,0,1.4,1.2,2.6,2.6,2.6s1.9-.6,2.3-1.5c0,0,0,0,0,0,0,.1-.2.2-.3.3Z"/>
        <path class="cls-110" d="M260.2,235.5s0,0-.1.1c0,0-.1,0-.2.1-.3.2-.6.3-.9.4,0,0-.1,0-.2,0h0c0,0-.2,0-.3,0s-.2,0-.3,0c0,0-.1,0-.2,0-.1,0-.2,0-.3,0-.2,0-.3-.1-.5-.2s-.3-.2-.4-.3c-.3-.2-.5-.5-.6-.8,0-.1-.1-.3-.2-.5,0-.2,0-.3-.1-.5,0,0,0-.2,0-.3s0-.3,0-.4c0-.1,0-.3,0-.4,0,0,0-.2,0-.2,0,0,0,0,0,0,0,0,0,0,0,0-.3.4-.4.9-.4,1.4,0,1.4,1.1,2.6,2.6,2.6s1.9-.6,2.3-1.5c0,.1-.2.3-.3.4,0,0,0,0-.1.1Z"/>
        <path class="cls-110" d="M269.3,235.4c0,0-.2.2-.3.2-.1,0-.2.1-.3.2,0,0,0,0,0,0,0,0,0,0,0,0,0,0,0,0,0,0,0,0-.2,0-.3.1-.1,0-.3,0-.4,0-.1,0-.3,0-.4,0s-.2,0-.3,0c0,0-.1,0-.2,0-.1,0-.2,0-.3,0-.2,0-.3-.1-.5-.2s-.3-.2-.4-.3c-.1-.1-.2-.2-.4-.4,0,0-.1-.2-.2-.3,0-.1-.1-.2-.2-.3,0,0,0-.1,0-.2,0-.2,0-.3-.1-.5,0,0,0-.2,0-.3s0-.2,0-.3c0-.2,0-.3.1-.5,0,0,0-.2,0-.2,0,0,0,0,0,0,0,0,0,0,0,0-.3.4-.4.9-.4,1.4,0,1.4,1.1,2.6,2.6,2.6s1.9-.6,2.3-1.4c0,0,0,0-.1.1,0,0-.1.1-.2.2Z"/>
        <path d="M233.6,225.4s0,0,0,0c0,0,0,.2,0,.3s0,.2,0,.3c0,0,0,.1,0,.2,0,.1,0,.2,0,.3,0,.1.1.3.2.4.4.8,1.3,1.4,2.3,1.4s.3,0,.4,0c0,0,.2,0,.3,0,0,0,.1,0,.2,0,.3-.1.5-.3.8-.4,0,0,.2-.2.3-.2,0,0,0,0,0,0,0,0,0,0,0-.1,0,0,0,0,0,0,0,0,0,0,0,0,.2-.2.3-.5.4-.8,0,0,0,0,0-.1,0-.2,0-.3,0-.5,0-1.4-1.1-2.6-2.6-2.6s-.1,0-.2,0c0,0,0,0-.1,0-.2,0-.4,0-.6.1,0,0,0,0-.1,0,0,0,0,0-.1,0-.2.1-.4.3-.6.4,0,0,0,0,0,0-.2.2-.3.4-.5.6,0,0,0,0,0,0,0,0,0,0,0,0,0,0,0,0,0,0-.1.2-.2.5-.2.7Z"/>
        <path d="M242.7,224.7c0,0,0,.1,0,.2,0,.2,0,.3-.1.5h0c0,.1,0,.2,0,.3s0,.1,0,.2h0c0,.1,0,.2,0,.3,0,0,0,.2,0,.3s0,.2,0,.2c0,0,0,.1.1.2,0,.1.2.3.3.4h0c0,0,.1.1.2.2,0,0,.1.1.2.2,0,0,.1.1.2.1.2.1.4.2.6.3,0,0,.1,0,.2,0,0,0,.1,0,.2,0,.1,0,.3,0,.4,0s.1,0,.2,0c.1,0,.2,0,.3,0,0,0,0,0,.1,0,0,0,0,0,.1,0,.3-.1.6-.3.9-.5,0,0,.1-.1.2-.2,0,0,0-.1.1-.1,0,0,0,0,0-.1,0,0,0,0,0,0,0-.1.2-.3.2-.4,0,0,0-.2,0-.2s0-.2,0-.3c0-.2,0-.3,0-.5s0-.3,0-.4c0-.1,0-.3,0-.4,0-.2-.1-.3-.2-.5s-.2-.3-.3-.4c0,0-.1-.1-.2-.2-.2-.2-.4-.3-.6-.4,0,0-.1,0-.2-.1-.3-.1-.7-.2-1-.2s-.1,0-.2,0c0,0-.1,0-.2,0-.5,0-.9.3-1.2.5,0,0,0,0-.1,0t0,0s0,0,0,0h0c0,.1-.2.2-.3.3,0,.1-.1.2-.2.3,0,0,0,0,0,0,0,0,0,0,0,0,0,0,0,0,0,0t0,0s0,0,0,0c0,0,0,0,0,0h0Z"/>
        <path d="M251.5,225.3s0,0,0,0c0,0,0,.1,0,.2,0,0,0,.1,0,.2s0,.1,0,.2h0c0,0,0,.2,0,.2,0,0,0,0,0,0,0,0,0,0,0,.1,0,0,0,.1,0,.2,0,0,0,.2,0,.2,0,.1.1.2.2.3.1.2.3.4.5.6.2.2.5.4.7.5,0,0,.2,0,.3.1.1,0,.2,0,.3,0,.1,0,.3,0,.4,0s.1,0,.2,0c0,0,0,0,.1,0,.1,0,.2,0,.4,0,0,0,.2,0,.3,0,0,0,0,0,.1,0,0,0,0,0,.1,0,.2-.1.4-.3.6-.4,0,0,.2-.2.2-.3,0,0,0,0,0,0,0,0,0,0,0,0,0,0,0-.1.1-.2,0,0,0,0,0-.1,0-.1.1-.2.1-.4,0,0,0,0,0-.1,0-.1,0-.2,0-.3,0,0,0-.2,0-.3s0-.3,0-.4c0-.1,0-.3,0-.4,0-.2-.1-.3-.2-.5s-.2-.3-.3-.4c0,0-.1-.1-.2-.2,0,0,0,0-.1-.1,0,0,0,0,0,0,0,0-.1-.1-.2-.2,0,0,0,0-.1,0,0,0-.1,0-.2,0,0,0-.1,0-.2,0,0,0-.1,0-.2,0-.2,0-.4,0-.7,0s-.2,0-.3,0c0,0,0,0-.1,0,0,0-.1,0-.2,0,0,0-.1,0-.2,0-.1,0-.2,0-.3.1,0,0,0,0-.1,0,0,0-.1,0-.2.1-.1,0-.3.2-.4.3,0,0,0,0,0,0-.1.1-.2.2-.3.3,0,0,0,.1-.1.2,0,0,0,.1,0,.2,0,0,0,0,0,0,0,0,0,0,0,0h0c0,.2-.2.4-.2.7Z"/>
        <path d="M260.6,225c0,0,0,.2,0,.2,0,0,0,0,0,0,0,0,0,.1,0,.2,0,0,0,.2,0,.3h0c0,.2,0,.3,0,.3s0,.1,0,.2c0,.2,0,.3.1.5,0,0,0,.1,0,.2,0,0,0,.1.1.2,0,0,0,0,0,.1,0,0,.1.2.2.3,0,0,.1.1.2.2.4.3.8.5,1.3.6.1,0,.2,0,.3,0s.3,0,.4,0c.2,0,.4,0,.6-.2,0,0,0,0,.1,0,.1,0,.2-.1.3-.2.2-.1.3-.3.5-.4,0,0,0,0,0,0,0,0,0-.1.1-.1t0,0s0,0,0,0c0-.1.1-.2.2-.3,0-.1.1-.2.1-.4,0,0,0,0,0-.1,0-.1,0-.2,0-.3,0,0,0-.2,0-.3,0-1.4-1.1-2.6-2.6-2.6s-.1,0-.2,0c-.1,0-.2,0-.3,0-.2,0-.3,0-.5.1,0,0,0,0,0,0-.1,0-.2.1-.3.2-.1,0-.3.2-.4.3s-.1.1-.2.2c0,0-.1.1-.2.2,0,0,0,.1-.1.2,0,0,0,0,0,.1h0s0,0,0,.1c0,0,0,.2,0,.2Z"/>
        <path d="M274.6,225.4c0-.3-.1-.6-.3-.8,0,0,0,0,0-.1,0,0,0,0,0-.1,0,0-.1-.2-.2-.2,0,0-.1-.1-.2-.2,0,0-.2-.2-.3-.2,0,0-.1-.1-.2-.1,0,0-.1,0-.2,0,0,0,0,0,0,0,0,0,0,0-.1,0,0,0-.2,0-.2,0-.1,0-.3,0-.5-.1,0,0-.2,0-.3,0s-.2,0-.3,0c0,0,0,0-.1,0-.1,0-.2,0-.3,0,0,0,0,0-.1,0,0,0,0,0,0,0,0,0,0,0,0,0-.1,0-.2,0-.3.1,0,0-.2.1-.3.2,0,0,0,0,0,0,0,0,0,0-.1.1,0,0,0,0,0,0,0,0,0,0,0,0,0,0-.1.1-.2.2t0,0s0,0,0,0c0,0,0,0,0,0,0,0,0,0,0,0s0,0,0,0c0,0,0,0,0,0,0,0,0,0,0,0,0,0,0,0,0,0h0s0,0,0,0h0s0,0,0,0c0,0,0,0,0,0,0,0,0,0,0,.1,0,0,0,.2,0,.3,0,0,0,.1,0,.2,0,0,0,.2,0,.3,0,1.4,1.2,2.6,2.6,2.6s.2,0,.3,0h0c.1,0,.2,0,.3,0,0,0,0,0,0,0,0,0,.1,0,.2,0,.4-.1.7-.3.9-.6,0,0,0,0,0,0h0c0,0,.1-.1.2-.2,0,0,0,0,0,0,0,0,0,0,0,0,0,0,0,0,0,0,0,0,0,0,0-.1,0-.1.1-.3.2-.4,0-.1,0-.2.1-.4,0,0,0,0,0,0,0-.1,0-.3,0-.5s0-.1,0-.2c0,0,0-.1,0-.1Z"/>
        <path d="M238.5,232h0s0,0,0,0c0,0,0,0,0,0,0,0,0,0,0,.1,0,0,0,.1,0,.2,0,0,0,0,0,0,0,0,0,0,0,0,0,0,0,0,0,.1,0,0,0,.1,0,.2,0,.1,0,.3,0,.4,0,.1,0,.2,0,.3s0,.2,0,.3c0,.2,0,.5.2.7,0,0,0,.2.1.3.2.3.4.5.6.7,0,0,.2.1.3.2,0,0,.2.1.3.1,0,0,0,0,.1,0,0,0,.2,0,.3.1t0,0c.1,0,.3,0,.4,0,0,0,.2,0,.3,0s.2,0,.3,0h0c0,0,.1,0,.2,0,.2,0,.3,0,.4-.1.1,0,.2,0,.3-.1.1,0,.2-.1.3-.2.1-.1.3-.2.4-.3h0s0,0,.1-.1c0,0,0,0,0,0,0,0,0,0,0-.1,0,0,0,0,0,0h0s0,0,0,0c.1-.2.2-.4.3-.7,0,0,0-.1,0-.2,0,0,0,0,0,0,0,0,0-.1,0-.2h0c0,0,0-.1,0-.2t0,0s0-.1,0-.2,0-.1,0-.2t0,0s0,0,0-.1c0,0,0-.2,0-.3,0,0,0,0,0,0,0,0,0,0,0-.1,0-.2-.1-.3-.2-.5,0-.1-.2-.3-.3-.4,0-.1-.2-.2-.3-.3,0,0,0,0-.1-.1,0,0-.1,0-.2-.1,0,0-.2-.1-.3-.2,0,0-.1,0-.2,0,0,0,0,0-.1,0,0,0-.1,0-.1,0,0,0,0,0-.1,0-.2,0-.4,0-.6,0s-.1,0-.2,0c0,0-.1,0-.1,0,0,0-.1,0-.2,0h-.2c-.2,0-.4.2-.6.3,0,0-.2.1-.3.2,0,0-.2.1-.3.2,0,0-.2.2-.2.3Z"/>
        <path d="M247.3,232.3c0,0,0,.1,0,.2,0,0,0,0,0,0h0s0,0,0,0h0s0,0,0,0c-.1.3-.2.7-.2,1s0,.4,0,.5c0,0,0,.2,0,.3,0,0,0,.2,0,.2,0,.1.1.3.2.4.1.2.3.4.5.5,0,0,.2.1.3.2.1,0,.2.1.3.2,0,0,.1,0,.2,0,0,0,.1,0,.2,0,0,0,.2,0,.3,0,.1,0,.2,0,.3,0,.2,0,.4,0,.5,0,0,0,.1,0,.2,0,.4-.1.8-.3,1-.6,0,0,0,0,.1-.1.1,0,.2-.2.3-.3,0,0,0,0,0,0,0,0,0,0,0,0h0c.1-.2.2-.4.3-.6,0-.1,0-.3,0-.4,0-.1,0-.3,0-.4s0-.2,0-.3c0-.1,0-.2,0-.4,0,0,0-.2,0-.2,0,0,0-.1,0-.2,0-.1-.1-.2-.2-.3,0-.1-.2-.3-.3-.4,0,0-.1-.1-.2-.2-.1-.1-.3-.2-.4-.3-.1,0-.3-.1-.5-.2-.1,0-.3,0-.4,0-.1,0-.3,0-.4,0-.2,0-.5,0-.7.1,0,0-.1,0-.1,0-.1,0-.3,0-.4.2-.1,0-.2.1-.3.2-.1,0-.2.2-.3.3,0,0-.2.2-.2.3,0,0-.1.1-.2.2Z"/>
        <path d="M256.5,232c-.1.1-.2.3-.3.4,0,0,0,0,0,0,0,0,0,0,0,0,0,0,0,.1,0,.2,0,.1,0,.3,0,.4,0,.1,0,.3,0,.4s0,.2,0,.3c0,.2,0,.3.1.5,0,.2.1.3.2.5.2.3.4.5.6.8.1.1.3.2.4.3s.3.1.5.2c0,0,.2,0,.3,0,0,0,.1,0,.2,0,.1,0,.2,0,.3,0s.2,0,.3,0h0c0,0,.1,0,.2,0,.3,0,.6-.2.9-.4,0,0,.1,0,.2-.1,0,0,.1,0,.1-.1,0,0,0,0,.1-.1.1-.1.2-.2.3-.4,0,0,0,0,0,0,0,0,0-.1.1-.2,0,0,0,0,0,0,0,0,0,0,0,0,0,0,0-.2.1-.3,0,0,0-.2,0-.3,0-.2,0-.4,0-.6,0-1.4-1.2-2.6-2.6-2.6s-.2,0-.3,0h0s0,0-.1,0c0,0,0,0-.1,0,0,0-.1,0-.2,0,0,0,0,0,0,0,0,0-.2,0-.2,0,0,0,0,0-.1,0,0,0,0,0,0,0,0,0,0,0,0,0-.1,0-.2.1-.3.2-.1,0-.2.1-.3.2,0,0-.1.1-.1.2,0,0,0,0,0,.1Z"/>
        <path d="M265.5,232c-.1.1-.2.3-.3.4,0,0,0,0,0,0,0,0,0,0,0,0,0,0,0,.1,0,.2,0,.2,0,.3-.1.5,0,0,0,.2,0,.3s0,.2,0,.3c0,.2,0,.3.1.5,0,0,0,.2,0,.2,0,.1.1.2.2.3,0,.1.1.2.2.3.1.1.2.3.4.4.1.1.3.2.4.3s.3.1.5.2c0,0,.2,0,.3,0,0,0,.1,0,.2,0,.1,0,.2,0,.3,0s.3,0,.4,0c.1,0,.3,0,.4,0,.1,0,.2,0,.3-.1,0,0,0,0,0,0,0,0,0,0,0,0,0,0,0,0,0,0,.1,0,.2-.1.3-.2,0,0,.2-.1.3-.2,0,0,.1-.1.2-.2,0,0,0,0,.1-.1,0,0,0,0,0,0,0,0,0-.1.1-.2,0,0,0-.2.1-.2.1-.3.2-.7.2-1,0-1.4-1.2-2.6-2.6-2.6s-.1,0-.2,0c0,0,0,0-.1,0-.1,0-.2,0-.3,0,0,0,0,0,0,0,0,0-.2,0-.2,0,0,0,0,0,0,0-.2,0-.3.1-.4.2,0,0-.1,0-.2.1,0,0,0,0,0,0,0,0-.1.1-.2.2s-.1.1-.1.2c0,0,0,0,0,.1Z"/>
        <path d="M441.6,180c-8.5,0-15.4,6.9-15.4,15.4s6.9,15.4,15.4,15.4,15.4-6.9,15.4-15.4-6.9-15.4-15.4-15.4Z"/>
        <path d="M405.7,214.8c-8.5,0-15.4,6.9-15.4,15.4s6.9,15.4,15.4,15.4,15.4-6.9,15.4-15.4-6.9-15.4-15.4-15.4Z"/>
        <path d="M370,179.2c-8.5,0-15.4,6.9-15.4,15.4s0,.4,0,.6c0,0,0,.1,0,.2,0,0,0,0,0,.1,0,.2,0,.4,0,.6,0,.2,0,.5,0,.7,0,0,0,.1,0,.1,0,.4.1.8.2,1.2,0,.1,0,.2,0,.3v.3c.1.2.2.5.3.7,0,0,0,.2,0,.2,0,.2.1.3.2.5.3.8.6,1.5,1,2.2,0,.2.2.3.3.5,0,.2.2.3.3.5h0c0,.2.1.3.2.4,0,.1.2.2.3.3.2.2.4.5.6.7.2.2.4.4.5.6.2.2.4.4.6.6l.3.3c.2.2.5.4.7.6,0,0,.2.1.3.2.1,0,.2.2.3.3,0,0,.2.1.3.2h0c.2.2.4.3.6.4,0,0,0,0,.1,0,0,0,0,0,.1,0,.2,0,.3.2.5.3.2.1.4.2.6.3.2,0,.3.1.5.2.2,0,.4.2.5.2.2,0,.5.2.7.2.3,0,.6.2.8.3l.6.2c.1,0,.3,0,.4,0,.2,0,.5,0,.7.1.3,0,.6,0,.9.1.3,0,.5,0,.8,0,.3,0,.5,0,.8,0,8.5,0,15.4-6.9,15.4-15.4s-6.9-15.4-15.4-15.4Z"/>
        <path d="M406,144.1c-8.5,0-15.4,6.9-15.4,15.4s6.9,15.4,15.4,15.4,15.4-6.9,15.4-15.4-6.9-15.4-15.4-15.4Z"/>
        <path class="cls-65" d="M464.5,430.9s0,0,0,0c0,0,0,0,0,0,0,0,0,0,0,0,0,0-.2,0-.3,0,0,0,0,0,0,0,0,0,0,0,0,0,0,0-.1,0-.2,0-3-.4-5.4-2-7.4-4.3,0,0,0,0,0,0-4.1-4.8-6.3-12.4-8.4-17.6-4.7-13.3-13.3-37-17.9-50.2-6.9-21.8-15.7-43-25.7-63.6-6.8-13.7-13.6-27.4-22-40.1-8.6-12.6-18-24.6-27.7-36.4-5.9-5.4-10-12.8-11.4-20.7,0,0,0,0,0,0-.3-1.4-.5-2.9-.5-4.3,0,0,0,0,0,0,0,.2-.1.4-.2.6,0,0,0,0,0,0,.4,9.4,4.7,18.6,11.4,25.2,12.2,15.7,25,32,34.7,49.7,9.8,17.7,18.4,36.1,26.4,54.7,8.1,18.6,13.8,38.1,21.3,57,3.6,9.5,7.2,19,10.8,28.5,1.9,4.7,3.7,9.5,6.4,13.9,2.3,3.9,6.1,7.7,10.9,7.8.4,0,.9,0,1.4,0,0,0,0,0,0,0-.3,0-.6,0-.9,0,0,0-.2,0-.3,0Z"/>
        <path class="cls-65" d="M43.6,430.9s0,0,.1,0c7.3-1,11.7-8.9,14.8-15.9.8-1.8,1.6-3.6,2.3-5.1,5.2-13.1,11.3-29.6,16.3-42.9,5.2-14.3,9.8-28.9,15.8-43,10-23.3,20.2-46.8,34-68.1,8.5-12.7,17.9-24.8,27.4-36.6,6.4-6.2,10.7-15.2,11.3-24.3,0-.2-.1-.4-.2-.6,0,1.1-.2,2.1-.4,3.1-.9,4.8-2.7,9.4-5.3,13.5-1.7,2.8-3.8,5.3-6.2,7.5-9.8,11.7-19.4,23.7-28.2,36.2-8.6,12.7-15.3,26.6-22.1,40.3-9.9,20.7-18.5,42.1-25.4,64-4.7,13.3-13.2,36.8-18,50.3-3.1,7.6-7.2,19.7-16.3,21.3,0,0,0,0,0,0,0,0-.2,0-.3,0,0,0,0,0-.1,0-.2,0-.4,0-.6,0-.4,0-.8,0-1.3,0,.7,0,1.4,0,2,0,0,0,0,0,0,0,0,0,.2,0,.3,0Z"/>
        <path class="cls-46" d="M172.1,193.2s-.6-2.6-1.6-6.7c-3.8-15.6-12.9-53.9-14.1-62.5,0,0-.1.1-.3.4-.8,1-2.8,4-1.7,9.2l12.7,52.8.2.7s2.9,15.6,12.9,18.8c.3,0,.6.2.9.2-7-5.2-9.1-12.9-9.1-12.9ZM156.3,129.5c2.6,10.4,4.9,20.9,7.4,31.4,2.2,9.2,5.3,22.3,7.2,31.4-5.6-20.4-10.7-42.1-14.6-62.8Z"/>
        <path class="cls-46" d="M336.8,188.4c-.7,3-1.1,4.8-1.1,4.8,0,0-2.1,7.7-9,12.9.3,0,.7-.2,1-.3,8.1-2.7,11.4-13.6,12.4-17.3.2-.8.3-1.3.3-1.3l12.9-53.5c1.1-5-.7-8-1.6-9.1-.1-.2-.2-.3-.3-.4-1.3,9.1-11.1,50.2-14.5,64.3ZM336.9,192.3c1.9-9.1,5.1-22.2,7.2-31.4,2.5-10.5,4.7-21,7.4-31.4-3.9,20.7-9,42.4-14.6,62.8Z"/>
        <path class="cls-47" d="M147.2,119.8s0,0,.1,0c0,0,0,0,0,0,0,0,0,0,.1.1,0,0,.2.1.3.2,1.1,1,3.9,4.1,5,9.3h0c0,.3,0,.5,0,.5,0,0,0,.3.2.8,0,0,0,0,0,0,1.4,5.9,8.9,38.4,11.7,55.4,0,.6.2,1.2.3,1.8.2,1.4.3,2.8.4,4.2,0,.6,0,1.1,0,1.6h0c0,.1,0,.2.1.4,0,0,0,0,0,.1.2-2,.2-4,0-6,.3,2.2.4,4.4.2,6.6.1.3.2.7.4,1,0,0,0,.1,0,.2.2.4.3.8.5,1.2.1.3.2.6.4.8,0,0,0,.2.1.3.4.8.9,1.7,1.4,2.6,0,0,0,0,0,.1,0,0,0,0,0,0,0,0,0,.1.1.2.3.4.5.9.8,1.3,0,0,0,0,0,0,0,.1.1.2.2.3.2.3.5.7.7,1,.1.1.2.3.3.4.3.4.6.8.9,1.2.1.2.3.3.4.5.4.5.8,1,1.3,1.5,0,0,0,0,.1.1,0,0,0,0,0,0,.3.3.6.6.9,1,.2.2.3.3.5.5.4.4.8.7,1.2,1.1.2.1.3.3.5.4.5.4.9.8,1.4,1.2,0,0,0,0,.1.1.6.4,1.2.9,1.8,1.3,0,0,.2.1.2.1,0,0,.1,0,.2.1.3.2.6.4.9.6.3.2.6.4.9.5,0,0,4.2,2.4,11.3,2.9.8,0,1.7,0,2.5,0h115.7c.2,0,.4,0,.6,0,8.2-.1,13.2-3,13.2-3,0,0,.2-.1.3-.2.6-.3,1.1-.7,1.7-1,.2-.2.5-.3.7-.5.4-.3.8-.5,1.1-.8.3-.3.7-.5,1-.8.3-.2.5-.4.8-.7.2-.2.3-.3.5-.5.4-.4.9-.8,1.2-1.2,0,0,0,0,0,0,.6-.6,1.1-1.2,1.7-1.8.1-.1.2-.3.4-.4.4-.5.8-1,1.2-1.5.2-.2.3-.4.5-.6.1-.2.3-.3.4-.5.3-.4.5-.7.7-1.1,0-.1.2-.3.3-.4.3-.4.6-.9.8-1.3,0,0,0,0,0,0,0,0,0-.1.1-.2.2-.4.4-.8.6-1.1,0,0,0-.1,0-.2,0,0,0,0,0-.1.2-.4.4-.8.6-1.1.3-.7.6-1.3.9-1.9,0-.2.2-.4.2-.5.1-.3.2-.5.3-.8,0,0,0,0,0,0,0,0,0-.2.1-.3,0,0,0-.2.1-.3,0-.2.1-.4.2-.6,0-.2.2-.4.2-.7,0-1.9,0-3.8.2-5.8-.2,1.7-.2,3.5,0,5.2,0,0,0-.2,0-.2,0-.2.1-.4.2-.5,0,0,0,0,0,0,0,0,0,0,0,0,0,0,0,0,0,0,0-.7,0-1.4.1-2.1,0,0,0,0,0,0,0-.7.1-1.5.3-2.2,0,0,0,0,0,0,0,0,0,0,0-.1,2.8-18,12.2-58.2,12.2-58.2,0,0,.3-6,5.5-10.1-3.4-.5-6.7-1-10-1.4.7,1.3.9,3,.8,4.8,0,.2,0,.3,0,.6v.3c0,0,0,.2,0,.3.8,1.1,2.7,4.1,1.6,9.1l-12.9,53.5s0,.5-.3,1.3c-.9,3.8-4.3,14.6-12.4,17.3-.2.2-.5.4-.8.6-1.5,1.1-3.1,2-4.8,2.8-2.7,1.1-5.7,1.7-9,1.7h-118.3c-3.3,0-6.3-.6-9-1.7-1.7-.7-3.3-1.6-4.8-2.7-.2-.2-.5-.4-.7-.5-10-3.1-12.9-18.8-12.9-18.8l-.2-.7-12.7-52.8c-1.1-5.2.8-8.2,1.7-9.2,0,0,0-.2,0-.3,0-.3,0-.5,0-.7-.2-2.1.1-3.9,1.1-5.4-5.5.9-8.9,1.7-9.9,1.9h0s0,0,0,0Z"/>
        <path d="M156,123.3c0,.2,0,.5,0,.7,0,0,0,.2,0,.3.2-.2.3-.4.3-.4,0-.3,0-.5,0-.7-.2-2.4.3-4.2,1.2-5.5-.2,0-.3,0-.5,0-.9,1.5-1.3,3.3-1.1,5.4Z"/>
        <path class="cls-68" d="M156,123.3c0,.2,0,.5,0,.7,0,0,0,.2,0,.3.2-.2.3-.4.3-.4,0-.3,0-.5,0-.7-.2-2.4.3-4.2,1.2-5.5-.2,0-.3,0-.5,0-.9,1.5-1.3,3.3-1.1,5.4Z"/>
        <path d="M351.4,123.3c0,.2,0,.5,0,.8,0,0,.2.2.3.4,0-.1,0-.2,0-.3v-.3c0-.2,0-.4,0-.6.2-1.9,0-3.5-.8-4.8-.1,0-.3,0-.4,0,.7,1.2,1,2.8.8,4.9Z"/>
        <path class="cls-104" d="M351.4,123.3c0,.2,0,.5,0,.8,0,0,.2.2.3.4,0-.1,0-.2,0-.3v-.3c0-.2,0-.4,0-.6.2-1.9,0-3.5-.8-4.8-.1,0-.3,0-.4,0,.7,1.2,1,2.8.8,4.9Z"/>
        <path d="M321.9,208.8c-2.8,1.2-5.8,1.7-8.8,1.7h-118.3c-3,0-6.1-.5-8.8-1.7-1.8-.7-3.3-1.7-4.7-2.7-.3,0-.6-.2-.9-.2.2.2.4.4.7.5,1.5,1.1,3.1,2,4.8,2.7,2.7,1.1,5.7,1.7,9,1.7h118.3c3.3,0,6.3-.6,9-1.7,1.7-.7,3.3-1.6,4.8-2.8.3-.2.5-.4.8-.6-.3.1-.6.2-1,.3-1.4,1-2.9,2-4.7,2.7Z"/>
        <path class="cls-76" d="M321.9,208.8c-2.8,1.2-5.8,1.7-8.8,1.7h-118.3c-3,0-6.1-.5-8.8-1.7-1.8-.7-3.3-1.7-4.7-2.7-.3,0-.6-.2-.9-.2.2.2.4.4.7.5,1.5,1.1,3.1,2,4.8,2.7,2.7,1.1,5.7,1.7,9,1.7h118.3c3.3,0,6.3-.6,9-1.7,1.7-.7,3.3-1.6,4.8-2.8.3-.2.5-.4.8-.6-.3.1-.6.2-1,.3-1.4,1-2.9,2-4.7,2.7Z"/>
        <path class="cls-49" d="M339,202h0c0,0,0-.1.1-.2,0,0,0,.1-.1.2Z"/>
        <path class="cls-93" d="M339,202h0c0,0,0-.1.1-.2,0,0,0,.1-.1.2Z"/>
        <path class="cls-38" d="M168.6,201.4s0,0,0,0c0,0,0,0,0,0,0,0,0,0,0,0,0,0,0,0,0,0Z"/>
        <path class="cls-66" d="M168.6,201.4s0,0,0,0c0,0,0,0,0,0,0,0,0,0,0,0,0,0,0,0,0,0Z"/>
        <path class="cls-49" d="M312.4,218.2c8.2-.1,13.2-2.9,13.2-2.9,0,0,.2-.1.3-.2,0,0-.2.1-.3.2,0,0-4.9,2.8-13.2,3Z"/>
        <path class="cls-21" d="M312.4,218.2c8.2-.1,13.2-2.9,13.2-2.9,0,0,.2-.1.3-.2,0,0-.2.1-.3.2,0,0-4.9,2.8-13.2,3Z"/>
        <path class="cls-80" d="M312.4,218.2c8.2-.1,13.2-2.9,13.2-2.9,0,0,.2-.1.3-.2,0,0-.2.1-.3.2,0,0-4.9,2.8-13.2,3Z"/>
        <path class="cls-49" d="M181.4,214.7c.3.2.6.4.9.6,0,0,4.2,2.4,11.3,2.9-7.1-.5-11.3-2.9-11.3-2.9-.3-.2-.6-.4-.9-.5Z"/>
        <path class="cls-37" d="M181.4,214.7c.3.2.6.4.9.6,0,0,4.2,2.4,11.3,2.9-7.1-.5-11.3-2.9-11.3-2.9-.3-.2-.6-.4-.9-.5Z"/>
        <path class="cls-54" d="M181.4,214.7c.3.2.6.4.9.6,0,0,4.2,2.4,11.3,2.9-7.1-.5-11.3-2.9-11.3-2.9-.3-.2-.6-.4-.9-.5Z"/>
        <path class="cls-49" d="M165.4,194.3s0,0,0,.1c0,0,0,0,0,0,0,0,0,0,0-.1Z"/>
        <path class="cls-19" d="M165.4,194.3s0,0,0,.1c0,0,0,0,0,0,0,0,0,0,0-.1Z"/>
        <path class="cls-67" d="M165.4,194.3s0,0,0,.1c0,0,0,0,0,0,0,0,0,0,0-.1Z"/>
        <path class="cls-49" d="M165.7,195c.1.3.2.7.4,1-.1-.4-.3-.7-.4-1,0,0,0,0,0,0Z"/>
        <path class="cls-26" d="M165.7,195c.1.3.2.7.4,1-.1-.4-.3-.7-.4-1,0,0,0,0,0,0Z"/>
        <path class="cls-50" d="M165.7,195c.1.3.2.7.4,1-.1-.4-.3-.7-.4-1,0,0,0,0,0,0Z"/>
        <path class="cls-49" d="M166.2,196.5c0,.1,0,.3.1.4,0,.2.2.4.3.6-.2-.4-.4-.8-.5-1.2,0,0,0,.2.1.3Z"/>
        <path class="cls-31" d="M166.2,196.5c0,.1,0,.3.1.4,0,.2.2.4.3.6-.2-.4-.4-.8-.5-1.2,0,0,0,.2.1.3Z"/>
        <path class="cls-89" d="M166.2,196.5c0,.1,0,.3.1.4,0,.2.2.4.3.6-.2-.4-.4-.8-.5-1.2,0,0,0,.2.1.3Z"/>
        <path class="cls-49" d="M176.6,211.2s0,0,0,0c-.2-.1-.3-.3-.5-.4.1.1.3.3.4.4Z"/>
        <path class="cls-29" d="M176.6,211.2s0,0,0,0c-.2-.1-.3-.3-.5-.4.1.1.3.3.4.4Z"/>
        <path class="cls-53" d="M176.6,211.2s0,0,0,0c-.2-.1-.3-.3-.5-.4.1.1.3.3.4.4Z"/>
        <path class="cls-49" d="M173.4,208.1c0,0,.1.1.2.2,0,0,0,0,0,0,0,0,0,0-.1-.1Z"/>
        <path class="cls-30" d="M173.4,208.1c0,0,.1.1.2.2,0,0,0,0,0,0,0,0,0,0-.1-.1Z"/>
        <path class="cls-86" d="M173.4,208.1c0,0,.1.1.2.2,0,0,0,0,0,0,0,0,0,0-.1-.1Z"/>
        <path class="cls-49" d="M327.6,214c.2-.2.5-.3.7-.5-.2.2-.5.3-.7.5,0,0,0,0,0,0Z"/>
        <path class="cls-9" d="M327.6,214c.2-.2.5-.3.7-.5-.2.2-.5.3-.7.5,0,0,0,0,0,0Z"/>
        <path class="cls-61" d="M327.6,214c.2-.2.5-.3.7-.5-.2.2-.5.3-.7.5,0,0,0,0,0,0Z"/>
        <path class="cls-49" d="M180.1,213.8c.1,0,.3.2.4.3,0,0-.1,0-.2-.1,0,0-.2,0-.2-.1Z"/>
        <path class="cls-18" d="M180.1,213.8c.1,0,.3.2.4.3,0,0-.1,0-.2-.1,0,0-.2,0-.2-.1Z"/>
        <path class="cls-48" d="M180.1,213.8c.1,0,.3.2.4.3,0,0-.1,0-.2-.1,0,0-.2,0-.2-.1Z"/>
        <path class="cls-49" d="M178.2,212.5s0,0,0,0c0,0,0,0-.1-.1,0,0,0,0,.1,0Z"/>
        <path class="cls-35" d="M178.2,212.5s0,0,0,0c0,0,0,0-.1-.1,0,0,0,0,.1,0Z"/>
        <path class="cls-71" d="M178.2,212.5s0,0,0,0c0,0,0,0-.1-.1,0,0,0,0,.1,0Z"/>
        <path class="cls-49" d="M338.9,202s0,0,0,0h0s0,0,0,0Z"/>
        <path class="cls-15" d="M338.9,202s0,0,0,0h0s0,0,0,0Z"/>
        <path class="cls-69" d="M338.9,202s0,0,0,0h0s0,0,0,0Z"/>
        <path class="cls-49" d="M334.7,207.8c-.5.6-1.1,1.2-1.7,1.8.6-.6,1.1-1.2,1.7-1.8Z"/>
        <path class="cls-27" d="M334.7,207.8c-.5.6-1.1,1.2-1.7,1.8.6-.6,1.1-1.2,1.7-1.8Z"/>
        <path class="cls-74" d="M334.7,207.8c-.5.6-1.1,1.2-1.7,1.8.6-.6,1.1-1.2,1.7-1.8Z"/>
        <path class="cls-49" d="M332.9,209.7s0,0,0,0c0,0,0,0,0,0,0,0,0,0,0,0Z"/>
        <path class="cls-14" d="M332.9,209.7s0,0,0,0c0,0,0,0,0,0,0,0,0,0,0,0Z"/>
        <path class="cls-84" d="M332.9,209.7s0,0,0,0c0,0,0,0,0,0,0,0,0,0,0,0Z"/>
        <path class="cls-49" d="M169.6,203c0,.1.2.3.3.4,0-.1-.2-.2-.2-.3,0,0,0,0,0,0Z"/>
        <path class="cls-17" d="M169.6,203c0,.1.2.3.3.4,0-.1-.2-.2-.2-.3,0,0,0,0,0,0Z"/>
        <path class="cls-96" d="M169.6,203c0,.1.2.3.3.4,0-.1-.2-.2-.2-.3,0,0,0,0,0,0Z"/>
        <path class="cls-49" d="M168.6,201.4c0,0,0,.1.1.2,0,0,0-.1-.1-.2,0,0,0,0,0,0Z"/>
        <path class="cls-28" d="M168.6,201.4c0,0,0,.1.1.2,0,0,0-.1-.1-.2,0,0,0,0,0,0Z"/>
        <path class="cls-57" d="M168.6,201.4c0,0,0,.1.1.2,0,0,0-.1-.1-.2,0,0,0,0,0,0Z"/>
        <path class="cls-49" d="M336.9,205.1c0,0,.1-.2.2-.3-.1.2-.3.3-.4.5,0,0,.1-.2.2-.3Z"/>
        <path class="cls-41" d="M336.9,205.1c0,0,.1-.2.2-.3-.1.2-.3.3-.4.5,0,0,.1-.2.2-.3Z"/>
        <path class="cls-102" d="M336.9,205.1c0,0,.1-.2.2-.3-.1.2-.3.3-.4.5,0,0,.1-.2.2-.3Z"/>
        <path class="cls-49" d="M339.7,200.6c0,0,.1-.2.2-.3,0,0,0,0,0,.1,0,0,0,.1,0,.2Z"/>
        <path class="cls-34" d="M339.7,200.6c0,0,.1-.2.2-.3,0,0,0,0,0,.1,0,0,0,.1,0,.2Z"/>
        <path class="cls-105" d="M339.7,200.6c0,0,.1-.2.2-.3,0,0,0,0,0,.1,0,0,0,.1,0,.2Z"/>
        <path class="cls-49" d="M341.9,196c0,0,0-.2.1-.3,0,0,0,.2-.1.3,0,0,0,0,0,0Z"/>
        <path class="cls-23" d="M341.9,196c0,0,0-.2.1-.3,0,0,0,.2-.1.3,0,0,0,0,0,0Z"/>
        <path class="cls-87" d="M341.9,196c0,0,0-.2.1-.3,0,0,0,.2-.1.3,0,0,0,0,0,0Z"/>
        <path class="cls-49" d="M341.6,196.6c0-.2.1-.4.2-.5,0,0,0,0,0,0,0,.3-.2.5-.3.8,0,0,0,0,0-.1Z"/>
        <path class="cls-16" d="M341.6,196.6c0-.2.1-.4.2-.5,0,0,0,0,0,0,0,.3-.2.5-.3.8,0,0,0,0,0-.1Z"/>
        <path class="cls-82" d="M341.6,196.6c0-.2.1-.4.2-.5,0,0,0,0,0,0,0,.3-.2.5-.3.8,0,0,0,0,0-.1Z"/>
        <path class="cls-49" d="M342.9,192.8c0,.2-.1.3-.2.5,0-.2.1-.3.2-.5,0,0,0,0,0,0Z"/>
        <path class="cls-45" d="M342.9,192.8c0,.2-.1.3-.2.5,0-.2.1-.3.2-.5,0,0,0,0,0,0Z"/>
        <path class="cls-81" d="M342.9,192.8c0,.2-.1.3-.2.5,0-.2.1-.3.2-.5,0,0,0,0,0,0Z"/>
        <path class="cls-49" d="M329.6,212.6c.3-.2.5-.4.8-.6-.3.3-.7.5-1,.8,0,0,.1-.1.2-.2Z"/>
        <path class="cls-5" d="M329.6,212.6c.3-.2.5-.4.8-.6-.3.3-.7.5-1,.8,0,0,.1-.1.2-.2Z"/>
        <path class="cls-78" d="M329.6,212.6c.3-.2.5-.4.8-.6-.3.3-.7.5-1,.8,0,0,.1-.1.2-.2Z"/>
        <path class="cls-49" d="M168.5,201.2s0,0,0,.1c0,0,0,0,0,0,0,0,0,0,0-.1Z"/>
        <path class="cls-8" d="M168.5,201.2s0,0,0,.1c0,0,0,0,0,0,0,0,0,0,0-.1Z"/>
        <path class="cls-75" d="M168.5,201.2s0,0,0,.1c0,0,0,0,0,0,0,0,0,0,0-.1Z"/>
        <path class="cls-70" d="M146.8,119.9s0,0,.1.1c0,0,.2.1.3.2,3.9,3.4,4.8,7.9,5,9.3h0s0,0,0,0c0,.3.1.7.2,1.2,0,0,0,0,0,0,1.4,5.9,8.9,38.4,11.7,55.4.1.6.2,1.2.3,1.8.2,1.4.3,2.8.4,4.2,0,0,0,0,0,0,0,0,0,0,0,0,0,.2.1.4.2.5,0,.2,0,.3.2.5,0,0,0,0,0,.1,0,0,0,0,0,0s0,0,0,0c0,0,0,.1,0,.2,0,0,0,0,0,0,0,0,0,0,0,0,0,0,0,0,0,0,0,0,0,0,0,0,0,0,0,0,0,0h0s0,0,0,0h0c0-.5,0-1.1,0-1.6,0-1.3-.2-2.7-.4-4.2,0-.6-.2-1.2-.3-1.8-2.8-17-10.3-49.6-11.7-55.4,0,0,0,0,0,0-.1-.5-.2-.8-.2-.8,0,0,0-.2,0-.4h0c-1-5.2-3.9-8.3-5-9.3,0,0-.2-.1-.3-.2,0,0,0,0-.1-.1,0,0,0,0,0,0,0,0,0,0-.1,0h0c-.2,0-.4,0-.4,0,0,0,0,0,0,0Z"/>
        <path class="cls-98" d="M156.3,129.5c3.9,20.7,9,42.4,14.6,62.8-1.9-9.2-5-22.2-7.2-31.4-2.5-10.5-4.7-21-7.4-31.4Z"/>
        <path class="cls-98" d="M336.9,192.3c5.5-20.4,10.7-42.1,14.6-62.8-2.6,10.4-4.9,20.9-7.4,31.4-2.2,9.2-5.3,22.3-7.2,31.4Z"/>
        <path d="M110,196l8,6.6c.3.2.5.4.7.7l.2.2c1.9,1.9,4.4,2.9,7,2.9h9c3.6,0,6.5-2.9,6.5-6.5v-11c0-3.6-2.9-6.5-6.5-6.5h-9.9c-2.6,0-5,1.1-6.7,3l-8.4,8.1c-.7.7-.7,1.9,0,2.6Z"/>
        <path d="M101.6,188.2c.4.3.8.5,1.3.5s1-.2,1.3-.6l6.6-8c.2-.3.5-.5.7-.8l.2-.2c1.9-1.9,2.9-4.4,2.9-7v-9c0-3.6-2.9-6.5-6.5-6.5h-11c-3.6,0-6.5,2.9-6.5,6.5v9.9c0,2.6,1.1,5,3,6.7l8.1,8.4Z"/>
        <path d="M69.9,207h9.9c2.5,0,5-1.1,6.7-3l8.4-8.1h0c.7-.7.7-1.9,0-2.6l-8-6.6c-.3-.3-.6-.6-1-.9-1.9-1.9-4.4-2.9-7-2.9h-9c-3.6,0-6.5,2.9-6.5,6.5v11c0,3.6,2.9,6.5,6.5,6.5Z"/>
        <path d="M103.4,201.8c-.7-.7-1.9-.7-2.6,0l-6.6,8c-.3.3-.5.6-.8.9h-.1c-1.9,2-2.9,4.5-2.9,7.1v9c0,3.6,2.9,6.5,6.5,6.5h11c3.6,0,6.5-2.9,6.5-6.5v-9.9c0-2.6-1.1-5-3-6.7l-8.1-8.4Z"/>
        <path d="M176.4,233.6c-14,0-25.3,11.4-25.3,25.4s11.3,25.3,25.3,25.3,25.4-11.4,25.4-25.3-11.4-25.4-25.4-25.4Z"/>
        <path class="cls-91" d="M330.7,227.8c-3,0-5.8.4-8.5,1.2-.2,0-.5.1-.7.2-.2,0-.5.2-.7.2,0,0,0,0,0,0,0,0,0,0,0,0,0,0,0,0,0,0-.2,0-.5.2-.7.3-.2,0-.4.2-.6.3-.3,0-.5.2-.8.3-.5.2-.9.4-1.4.6,0,0-.1,0-.2.1-.2,0-.4.2-.6.3,0,0-.2,0-.3.1,0,0-.1,0-.2.1-.2,0-.3.2-.5.3-.2.1-.4.2-.6.3,0,0-.2.1-.3.2,0,0,0,0,0,0,0,0-.2.1-.3.2-.2.1-.4.2-.6.4-.1,0-.3.2-.4.3,0,0,0,0,0,0,0,0,0,0-.1,0-.1,0-.3.2-.4.3-.3.2-.6.4-.8.6,0,0,0,0-.1,0,0,0,0,0,0,0-.1.1-.3.2-.4.3-.4.3-.8.7-1.2,1,0,0,0,0,0,0,0,0,0,0,0,0-.3.2-.5.5-.8.7-.3.3-.5.5-.8.8-.3.3-.5.5-.8.8-.2.3-.5.5-.7.8,0,0,0,0-.1.1,0,0-.1.2-.2.3-.1.2-.3.4-.4.5-.1.2-.3.4-.4.5,0,0,0,0,0,0-.3.4-.6.8-.9,1.2h0s0,0,0,0c0,0,0,0,0,0-.4.6-.8,1.3-1.2,1.9-.3.4-.5.9-.7,1.3,0,.2-.2.4-.3.6,0,0,0,0,0,.1-.2.5-.4.9-.6,1.4,0,.2-.2.5-.3.7,0,0,0,.2-.1.3-.1.4-.3.8-.4,1.1,0,.2-.1.4-.2.5,0,0,0,0,0,.1,0,0,0,0,0,.1,0,0,0,.2,0,.3,0,.1,0,.3-.1.4,0,0,0,0,0,.1,0,0,0,0,0,0,0,.1,0,.2,0,.3,0,0,0,.2,0,.2,0,0,0,0,0,0-.1.4-.2.9-.3,1.4,0,.1,0,.3,0,.4,0,0,0,0,0,0,0,.1,0,.3,0,.4,0,.2,0,.3,0,.5,0,0,0,0,0,0,0,0,0,0,0,0,0,0,0,0,0,.1,0,.2,0,.4,0,.6,0,0,0,0,0,.1,0,.2,0,.4,0,.6,0,0,0,0,0,.1,0,0,0,0,0,0,0,0,0,0,0,0,0,0,0,0,0,.1,0,.2,0,.5,0,.7,0,0,0,0,0,.1,0,0,0,0,0,0,0,0,0,.2,0,.3,0,.1,0,.3,0,.4,0,.2,0,.4,0,.6,0,0,0,.1,0,.2h0c0,.3,0,.5,0,.8s0,.5,0,.8h0c0,0,0,.1,0,.1,0,.2,0,.4,0,.6,0,.1,0,.3,0,.4,0,0,0,.2,0,.3,0,0,0,0,0,0,0,0,0,0,0,.1,0,.2,0,.4,0,.7,0,0,0,0,0,.1,0,0,0,0,0,0,0,0,0,0,0,0,0,0,0,0,0,.1,0,.1,0,.2,0,.3,0,0,0,.1,0,.2,0,0,0,0,0,.1,0,.2,0,.4,0,.6,0,0,0,.2,0,.2,0,.1,0,.2,0,.3,0,0,0,.1,0,.2,0,0,0,0,0,0,0,.1,0,.2,0,.4,0,.1,0,.3,0,.4,0,.5.2.9.3,1.4,0,0,0,0,0,0,0,0,0,0,0,0,0,.2,0,.3.1.5,0,0,0,0,0,0,0,0,0,0,0,.1,0,.2.1.5.2.7,0,0,0,.1,0,.2,0,.2.1.4.2.5,0,0,0,.2,0,.2.1.4.3.8.4,1.2,0,.2.2.5.3.7.2.4.4.9.6,1.3,0,0,0,0,0,0,.1.2.2.5.3.7.1.2.2.4.4.7h0c.3.6.6,1.1,1,1.7.2.3.4.6.6.9,0,0,0,0,0,0,0,0,0,0,0,0,0,0,0,0,0,0,0,0,0,0,0,0,.3.4.5.7.8,1.1,0,0,0,0,.1.1.1.2.2.3.4.5.2.2.3.4.5.6,0,0,.1.2.2.3.2.3.5.6.7.8,0,0,.1.1.2.2.2.2.3.4.5.6,0,0,0,0,.1.1,0,0,0,0,0,0,0,0,.2.1.2.2.2.2.3.3.5.5,0,0,.2.2.3.2.2.2.3.3.5.5,0,0,0,0,.1,0,.5.5,1.1.9,1.6,1.3,0,0,0,0,0,0,0,0,0,0,0,0,.3.2.6.4.8.6.3.2.7.5,1,.7.1,0,.3.2.5.3.1,0,.3.2.4.3,0,0,0,0,0,0,0,0,0,0,0,0,.3.2.6.3.8.5.1,0,.3.1.4.2.1,0,.2.1.3.2,0,0,.2,0,.3.1.3.1.5.3.8.4.1,0,.3.1.4.2.3.2.7.3,1,.5.2,0,.3.1.5.2.3.1.6.2.9.4.3.1.6.2,1,.3.2,0,.3.1.5.2,0,0,.2,0,.3,0,.1,0,.3,0,.4.1,2.7.8,5.6,1.2,8.5,1.2,9.1,0,17.3-3.9,23-10.2,5-5.5,8.1-12.9,8.1-20.9s-3.5-16.4-9.1-22c-5.6-5.6-13.4-9.1-22-9.1ZM330.7,284.3c-14,0-25.3-11.4-25.3-25.3s11.4-25.4,25.3-25.4,25.4,11.4,25.4,25.4-11.3,25.3-25.4,25.3Z"/>
        <path d="M330.7,233.6c-14,0-25.3,11.4-25.3,25.4s11.4,25.3,25.3,25.3,25.4-11.4,25.4-25.3-11.3-25.4-25.4-25.4Z"/>
        <path d="M257.5,260.7c.3.2.7.3,1,.4.7.2,1.4.3,2,.2,1-.1,1.8-.6,2.4-1.4.3-.4.5-.9.7-1.6.2-.6.2-1.2.3-1.8,0-.6,0-1.2,0-1.8,0-.7-.2-1.3-.3-1.8-.4-1.2-1-2.2-2-3-.5-.4-1.1-.8-1.9-1.1-.7-.3-1.4-.6-2.3-.9-1-.3-2-.6-3-.9-1.3-.4-2.7-.7-4-1-.1,0-.3,0-.4,0h-.2s0,.1,0,.1c0,.2,0,15.5,0,20.5,0,0,0,0,0,.1,0,1.4,0,3.9,0,4h0c0,.1,5.9,2,5.9,2v-4.3c0-1.9,0-3.7,0-5.5s0-5,0-7.5c0-.6,0-1.3,0-1.9,0-.6,0-1.3,0-1.9s0-.3,0-.5c0-.1,0-.2.2-.3.1-.1.3-.2.4-.2.1,0,.3,0,.4.2.2.2.4.4.5.7,0,.3.1.6.1,1,0,.5,0,.9,0,1.4,0,1.1,0,2.2,0,3.3,0,1.1,0,2.2,0,3.3h0c0,.2,0,.4.2.5Z"/>
        <path d="M270.5,263.7c-.3-.3-.7-.5-1.1-.6-.7-.2-1.2-.4-1.7-.6-1.1-.4-2.4-.6-3.7-.7-.6,0-1.3,0-2.2,0-.7,0-1.5.1-2.1.2-1.1.2-2.1.4-3.1.8h0c0,0,0,0-.1,0h-.1v.8c0,.9,0,1.8,0,2.7v.2s.3,0,.3,0h0c.1,0,.2,0,.4-.1,1.3-.5,2.7-.9,4-1.4.2,0,.5-.2.8-.3h.2c.3-.2.6-.3.9-.4.7-.2,1.5-.2,2.3-.1.3,0,.5,0,.6.2,0,0,.1,0,.2.1,0,0,0,0,0,0,0,0-.1.1-.2.2-.1,0-.2.2-.4.2-.6.2-1.3.5-1.9.7l-7,2.5h0c-.2,0-.2.2-.2.4v.4c0,.7,0,1.4,0,2.2s0,.3,0,.4v.3s.3,0,.3,0c0,0,.1,0,.2,0l3.3-1.2c.6-.2,1.3-.5,1.9-.7.6-.2,1.3-.4,1.9-.7,1.4-.5,2.7-1,4.1-1.5l.7-.3c.6-.2,1.2-.5,1.8-.9.3-.2.5-.4.7-.7h0c.3-.5.3-1.1,0-1.6-.1-.2-.3-.4-.5-.5Z"/>
        <path d="M244.2,269.2c.3,0,.7,0,1,0s.7,0,1,0c.7,0,1.3-.1,2-.2,0,0,.2,0,.3,0h.4v-3.4h-.3c0,.1,0,.1-.1.1h0c-.3.1-.7.3-1,.4-.4.1-.7.3-1.1.4-.6.2-1.1.4-1.8.4-.4,0-1,0-1.6,0-.2,0-.4,0-.6-.2,0,0,0,0,0-.1,0,0,0,0,0-.1h0s0,0,.1-.1c.1,0,.2-.1.4-.2,0,0,.2,0,.2,0l3.1-1.1h0c.7-.3,1.5-.6,2.2-.8h.1c0,0,.1,0,.2-.1h.1v-3.7s-.3,0-.3,0c0,0,0,0-.1,0-.2,0-.4.1-.6.2-1,.4-2,.7-3,1.1-1,.4-2.1.7-3.1,1.1l-.5.2c-.6.2-1.2.4-1.8.7-.5.2-1.2.5-1.7.9-.2.1-.5.3-.6.6-.3.5-.3,1,0,1.5.2.3.4.5.7.8.4.3.8.5,1.2.6.6.2,1.2.4,1.8.6.6.2,1.2.3,2,.4.5,0,1,.1,1.5.2Z"/>
      </g>
      <g>
        <path class="cls-94" d="M133.3,116.4h0c-1.5,0-3.1.2-4.8.5-17.8,2.8-43.5,6.7-57.3,12.4,0,0,0,0,0,0,0-1.4.1-4.1,1.2-5.6,1.4-2.2,16.2-8.8,26.7-11,10.5-2.2,27.7-1.4,27.7-1.4,0,0,7.3.3,6.6,5.1Z"/>
        <path class="cls-94" d="M436.5,129.3s0,0,0,0c-13.9-5.7-39.5-9.6-57.2-12.4-1.8-.3-3.5-.4-5-.5,0-4.9,6.8-5.1,6.8-5.1,0,0,17.2-.8,27.7,1.4,10.5,2.2,25.3,8.8,26.7,11,1,1.5,1.1,4.1,1.2,5.6Z"/>
        <g>
          <path d="M132.9,106.2c0,1.6-1.2,2.9-2.8,3-9.1.3-37.7,1-56-2.3-1-.2-1.7-1.2-1.6-2.2.2-1.3.5-3.2.9-5.6,0,0,15.8,3.2,29.2,3.2s22.4-.4,30-1.6v5.5Z"/>
          <path class="cls-88" d="M132.8,100.8c-7.7,1.2-16.6,1.6-30,1.6s-29.2-3.2-29.2-3.2c1.7-9.3,5.8-25.3,13.9-36.4,0,0,7.8-13.6,21.4-12.4,0,0,10.4-.2,17.4,9.5,5.5,7.6,6.1,15.3,6.1,18.3,0,1.7,0,3.3,0,5l.4,17.5Z"/>
          <g>
            <path d="M116.5,88.7h-1.4c-.1,0-.2.1-.2.2v6.2c0,.1.1.2.2.2h4.5c.1,0,.2-.1.2-.2v-1c0-.1-.1-.2-.2-.2h-2.6c-.1,0-.2-.1-.2-.2v-4.7c0-.1-.1-.2-.2-.2Z"/>
            <path d="M124.2,93.8l1.2-1.2c.3-.3.5-.6.7-.8.2-.2.3-.5.3-.7,0-.2,0-.4,0-.6,0-.4-.1-.8-.3-1.1s-.5-.5-.9-.7c-.4-.2-.8-.3-1.3-.3s-1.2.1-1.7.4c-.3.2-.6.4-.8.7s-.1.4,0,.5l1,.6c.1-.2.3-.4.5-.5s.4-.2.7-.2.5,0,.6.2c.1.1.2.3.2.5s0,.2,0,.3c0,.1,0,.2-.2.3s-.2.3-.4.4l-2.3,2.2c0,0-.1.2-.1.2v.7c0,.2.2.3.3.3h4.4c.2,0,.3-.2.3-.3v-.8c0-.2-.2-.3-.3-.3h-2.2Z"/>
          </g>
        </g>
        <g>
          <path d="M433.1,106.9c-18.2,3.3-46.9,2.6-55.9,2.3-1.6,0-2.8-1.4-2.8-3v-5.5c6.7,1,16.8,1.6,30.2,1.6,13.4,0,29.2-3.2,29.2-3.2.4,2.4.7,4.3.9,5.6.1,1.1-.6,2-1.6,2.2Z"/>
          <path class="cls-88" d="M433.8,99.1s-15.8,3.2-29.2,3.2c-13.4,0-23.5-.6-30.1-1.6l.4-17.5c0-1.7,0-3.3,0-5,0-3,.6-10.7,6.1-18.3,7-9.7,17.4-9.5,17.4-9.5,13.6-1.2,21.4,12.4,21.4,12.4,8.1,11,12.1,27.1,13.9,36.4Z"/>
          <g>
            <path d="M385.9,92.4c.2-.4.4-.8.4-1.3s-.1-.9-.4-1.3c-.2-.4-.6-.7-1-.9-.4-.2-1-.3-1.6-.3h-2.8c-.1,0-.2,0-.2.2v6.3c0,0,0,.1.1.1h1.6c0,0,.1,0,.1-.1v-1.6h.9c0,0,.1,0,.2.1l1.1,1.6s0,0,0,0h1.7c0,0,.1,0,0-.2l-1.3-1.9s0,0,0-.1c.4-.2.7-.4.9-.8ZM384.1,90.4c.2.2.3.4.3.7s0,.6-.3.7c-.2.2-.5.3-.9.3h-1v-2h1c.4,0,.7,0,.9.3Z"/>
            <path d="M390.9,93.8l1.2-1.2c.3-.3.5-.6.7-.8s.3-.5.3-.7c0-.2,0-.4,0-.6,0-.4-.1-.8-.3-1.1-.2-.3-.5-.5-.9-.7-.4-.2-.8-.3-1.3-.3s-1.2.1-1.7.4c-.3.1-.5.3-.7.5s-.1.6.1.8l.9.5c.1-.2.3-.4.5-.5s.4-.2.7-.2.5,0,.6.2c.1.1.2.3.2.5s0,.2,0,.3c0,.1,0,.2-.2.3,0,.1-.2.3-.4.4l-2.4,2.3s0,0,0,.1v.9c0,.1,0,.2.2.2h4.7c.1,0,.2,0,.2-.2v-1.1c0-.1,0-.2-.2-.2h-2.3Z"/>
          </g>
        </g>
      </g>
    </g>
  </g>
</svg>