<?xml version="1.0" encoding="UTF-8"?>
<svg xmlns="http://www.w3.org/2000/svg" version="1.1" viewBox="0 0 500 499.4">
  <defs>
    <style>
      .cls-1 {
        fill: #008cff;
      }

      .cls-2 {
        fill: #fff;
      }

      .cls-3 {
        fill: #006db7;
      }
    </style>
  </defs>
  <!-- Generator: Adobe Illustrator 28.6.0, SVG Export Plug-In . SVG Version: 1.2.0 Build 709)  -->
  <g>
    <g id="Layer_1">
      <g id="Layer_1-2" data-name="Layer_1">
        <g>
          <g>
            <path class="cls-3" d="M406.3,249.7c0,86.2-70.1,156.4-156.4,156.4s-156.3-70.2-156.3-156.4S163.8,93.3,250,93.3s156.4,70.2,156.4,156.4h-.1Z"/>
            <path class="cls-3" d="M250,87.5c-89.4,0-162.1,72.8-162.1,162.2s72.7,162.2,162.1,162.2,162.2-72.8,162.2-162.2-72.8-162.2-162.2-162.2h0ZM250,406.1c-86.2,0-156.3-70.2-156.3-156.4S163.8,93.3,250,93.3s156.4,70.2,156.4,156.4-70.1,156.4-156.4,156.4h0Z"/>
          </g>
          <circle class="cls-1" cx="250" cy="249.7" r="143.2"/>
          <path class="cls-2" d="M250,352.5c-56.7,0-102.9-46.1-102.9-102.9s46.1-102.9,102.9-102.9,102.9,46.1,102.9,102.9-46.1,102.9-102.9,102.9ZM250,162.4c-48.1,0-87.3,39.2-87.3,87.3s39.2,87.3,87.3,87.3,87.3-39.2,87.3-87.3-39.2-87.3-87.3-87.3h0Z"/>
        </g>
      </g>
    </g>
  </g>
</svg>