<?xml version="1.0" encoding="UTF-8"?>
<svg xmlns="http://www.w3.org/2000/svg" version="1.1" xmlns:xlink="http://www.w3.org/1999/xlink" viewBox="0 0 500 499.4">
  <defs>
    <style>
      .cls-1 {
        fill: #141414;
      }

      .cls-2 {
        fill: #e381a0;
      }

      .cls-3 {
        fill: url(#linear-gradient);
      }

      .cls-4 {
        fill: #2f3135;
      }
    </style>
    <linearGradient id="linear-gradient" x1="250" y1="106.5" x2="250" y2="392.9" gradientUnits="userSpaceOnUse">
      <stop offset="0" stop-color="#a0a4af"/>
      <stop offset="0" stop-color="#8b8e97"/>
      <stop offset=".1" stop-color="#74767d"/>
      <stop offset=".2" stop-color="#616267"/>
      <stop offset=".3" stop-color="#525256"/>
      <stop offset=".4" stop-color="#48474a"/>
      <stop offset=".6" stop-color="#424143"/>
      <stop offset="1" stop-color="#414042"/>
    </linearGradient>
  </defs>
  <!-- Generator: Adobe Illustrator 28.6.0, SVG Export Plug-In . SVG Version: 1.2.0 Build 709)  -->
  <g>
    <g id="Layer_1">
      <g>
        <g>
          <path class="cls-4" d="M406.3,249.7c0,86.2-70.1,156.4-156.4,156.4s-156.3-70.2-156.3-156.4S163.8,93.3,250,93.3s156.4,70.2,156.4,156.4Z"/>
          <path class="cls-1" d="M250,87.5c-89.4,0-162.1,72.8-162.1,162.2s72.7,162.2,162.1,162.2,162.2-72.8,162.2-162.2-72.8-162.2-162.2-162.2ZM250,406.1c-86.2,0-156.3-70.2-156.3-156.4S163.8,93.3,250,93.3s156.4,70.2,156.4,156.4-70.1,156.4-156.4,156.4Z"/>
        </g>
        <circle class="cls-3" cx="250" cy="249.7" r="143.2"/>
        <path class="cls-2" d="M250,352.5c-56.7,0-102.9-46.1-102.9-102.9s46.1-102.9,102.9-102.9,102.9,46.1,102.9,102.9-46.1,102.9-102.9,102.9ZM250,162.4c-48.1,0-87.3,39.2-87.3,87.3s39.2,87.3,87.3,87.3,87.3-39.2,87.3-87.3-39.2-87.3-87.3-87.3Z"/>
      </g>
    </g>
  </g>
</svg>