<?xml version="1.0" encoding="UTF-8"?>
<svg xmlns="http://www.w3.org/2000/svg" version="1.1" viewBox="0 0 500 500">
  <defs>
    <style>
      .cls-1 {
        fill: #008cff;
      }

      .cls-2 {
        fill: #fff;
      }
    </style>
  </defs>
  <!-- Generator: Adobe Illustrator 28.6.0, SVG Export Plug-In . SVG Version: 1.2.0 Build 709)  -->
  <g>
    <g id="Layer_1">
      <g>
        <path class="cls-1" d="M370.8,106v-5.5c.1,0,.6-17.6.6-17.6,0-1.7,0-3.3,0-5,0-3,.6-10.7,6.1-18.3,7-9.8,17.5-9.5,17.5-9.5,13.7-1.2,21.4,12.4,21.4,12.4,8.1,11.1,12.1,27.1,13.9,36.4.4,2.4.7,4.3.9,5.6.1,1.1-.6,2-1.6,2.2-18.2,3.3-47,2.6-56.1,2.3-1.6,0-2.8-1.4-2.8-3Z"/>
        <path class="cls-1" d="M462.4,431.7s0,0,0,0c-.5,0-.9,0-1.3,0-3.7,2.9-24.8,7.2-31.6,7.8h0c-.9,0-1.5,0-1.9,0-11.4-11.2-23.9-42.3-23.9-42.3l-18.9-46.9c-.2-.7-.4-1.3-.7-2,0,0,0,0,0,0s0,0,0,0,0,0,0,0h0c-1.5-3.7-2.8-6.7-3.7-8.8-2.8-5.8-5.7-9.6-8.4-12.1-3.6-3.4-6.8-4.3-6.8-4.3-6.6-3-12.8-4.4-18-4.9,0,0,0,0,0,0h0s0,0,0,0h-.1c-3.8-.2-7.5-.2-10.4,0h0s0,0,0,0h0c-.8,0-1.5.2-1.9.2-.1,0-.3,0-.4,0-.1,0-.3,0-.4,0-1.5.2-3.4.2-5,.2-.2,0-.3,0-.5,0-1.9,0-3.3,0-3.3,0h-74.5s-74.2.8-83.9,0c-.1,0-.2,0-.3,0h0c-3.1-.2-7.6-.4-12.3-.2,0,0,0,0,0,0-1,0-1.5.2-1.5.2,0,0-10,.8-18.1,4.6-2.1,1-4.1,2.2-5.8,3.6-.9.8-1.7,1.6-2.5,2.6,0,0,0,0,0,0-.8.9-1.5,1.8-2.2,2.8-.5.8-1.1,1.7-1.5,2.6,0,0,0,0,0,0-4.4,7.5-7.2,16-7.2,16l-11.4,28.4v.2c0,0-9.2,22.8-9.2,22.8-5.3,13.8-10.7,22.9-14.9,28.6,0,0,0,0,0,0-.8,1.2-1.6,2.4-2.4,3.5,0,0-2.2,3.7-4.9,4.6-.5.4-.7.6-.7.6-2.8.5-25.7-4.5-31.7-7.9h0s0,0,0,0h-.1c-.6,0-1.3,0-2,0,.4,0,.9,0,1.3,0-31.3-2.2-36.1-75.7-24.3-157.3,10.9-75.7,40.5-131.4,44.7-139.1.4-.7.8-1.3,1.4-1.8,1.7-1.5,4.2-3,7.5-4.3,0,0,0,0,0,0,13.9-5.7,39.6-9.6,57.4-12.4,1.7-.3,3.3-.4,4.8-.5,6.4-.2,10.6,1.4,13.4,3.6h0c1.1-.2,4.4-1,9.9-1.9,0,0,.1-.2.2-.3,2.3-3.3,6.9-3.5,7.1-3.5,39.6-4.5,88.7-4.2,89.2-4.2h1.2c.5,0,49.6-.3,89.2,4.2.2,0,5.3.2,7.4,4.1,0,0,0,.2.1.2,3.3.4,6.6.9,10,1.4t0,0h0c2.8-2.2,7-3.9,13.2-3.7,0-5,6.8-5.1,6.8-5.1,0,0,17.2-.8,27.7,1.4,10.5,2.2,25.3,8.8,26.7,11,1,1.5,1.1,4.1,1.2,5.6,3.2,1.4,5.8,2.8,7.5,4.3.6.5,1,1.2,1.4,1.8,4.2,7.7,33.8,63.4,44.7,139.1,11.7,81.6,6.9,155.1-24.3,157.3Z"/>
        <path class="cls-1" d="M68.5,104.5c.2-1.3.5-3.2.9-5.6,1.8-9.3,5.8-25.4,13.9-36.4,0,0,7.8-13.6,21.4-12.4,0,0,10.4-.2,17.5,9.5,5.5,7.6,6.1,15.3,6.1,18.3,0,1.7,0,3.3,0,5l.4,17.6v5.5c.2,1.6-1.1,2.9-2.7,3-9.1.3-37.8,1-56.1-2.3-1-.2-1.7-1.2-1.6-2.2Z"/>
        <path class="cls-1" d="M67.1,129.2s0,0,0,0c0-1.4.1-4.1,1.2-5.7,1.4-2.2,16.2-8.8,26.7-11,10.5-2.2,27.7-1.4,27.7-1.4,0,0,7.3.3,6.6,5.1h0c-1.5,0-3.1.2-4.8.5-17.8,2.8-43.6,6.7-57.4,12.4Z"/>
      </g>
      <g>
        <path class="cls-2" d="M86.1,205.9c-2.6-1.5-5.6-2.2-9.1-2.2h-14.3v35.4h14.3c3.4,0,6.4-.7,9.1-2.2s4.7-3.5,6.1-6.2c1.5-2.6,2.2-5.8,2.2-9.3s-.7-6.7-2.2-9.3c-1.5-2.6-3.5-4.7-6.1-6.2ZM85.8,227.2c-.9,1.7-2.1,3-3.6,3.8-1.5.9-3.4,1.3-5.5,1.3h-6.6v-22h6.6c2.1,0,3.9.4,5.5,1.3,1.5.9,2.7,2.2,3.6,3.8.9,1.7,1.3,3.6,1.3,5.9s-.4,4.2-1.3,5.8Z"/>
        <rect class="cls-2" x="100" y="203.7" width="7.3" height="35.4"/>
        <path class="cls-2" d="M134.8,221.2c-1.1-.7-2.3-1.3-3.6-1.8-1.3-.5-2.6-.9-3.9-1.2-1.3-.3-2.5-.6-3.6-1-1.1-.3-2-.8-2.6-1.3-.7-.6-1-1.3-1-2.3s.2-1.4.6-2c.4-.6,1-1.1,1.9-1.4.9-.4,2-.5,3.5-.5s2.8.2,4.3.7c1.5.5,3,1.1,4.4,2l2.3-6.2c-1.4-1-3.1-1.8-5.1-2.3-1.9-.5-3.9-.8-5.9-.8-3,0-5.4.5-7.4,1.5-2,1-3.4,2.3-4.4,4-1,1.7-1.4,3.5-1.4,5.5s.3,3.4,1,4.6c.6,1.2,1.5,2.2,2.6,3,1.1.8,2.3,1.4,3.6,1.8,1.3.5,2.6.8,3.9,1.2,1.3.3,2.5.7,3.6,1,1.1.4,2,.8,2.6,1.4.7.6,1,1.3,1,2.2s-.2,1.4-.6,1.9c-.4.6-1.1,1-2,1.3-.9.3-2,.5-3.5.5s-3.8-.3-5.6-1c-1.9-.7-3.5-1.6-4.8-2.7l-2.5,6.2c1.4,1.2,3.3,2.2,5.6,3,2.3.8,4.8,1.1,7.3,1.1s5.4-.5,7.4-1.5,3.5-2.3,4.4-4c1-1.7,1.5-3.5,1.5-5.5s-.3-3.3-1-4.6c-.7-1.2-1.6-2.2-2.6-2.9Z"/>
        <path class="cls-2" d="M151.7,213.2c.9-1,2-1.8,3.2-2.4,1.2-.6,2.6-.8,4.1-.8s3,.4,4.3,1.1c1.3.7,2.5,1.8,3.6,3.1l4.7-4.9c-1.5-2.1-3.4-3.6-5.6-4.7-2.2-1.1-4.7-1.6-7.4-1.6s-4.7.4-6.8,1.3c-2.1.9-3.9,2.2-5.4,3.8-1.5,1.7-2.7,3.6-3.6,5.8-.9,2.2-1.3,4.7-1.3,7.3s.4,5.1,1.3,7.3c.9,2.2,2,4.2,3.6,5.8,1.5,1.7,3.3,2.9,5.4,3.8,2.1.9,4.3,1.3,6.8,1.3s5.3-.5,7.5-1.6c2.2-1.1,4.1-2.6,5.6-4.7l-4.7-4.9c-1.1,1.4-2.2,2.4-3.6,3.2-1.3.7-2.8,1.1-4.3,1.1s-2.8-.3-4.1-.8-2.3-1.3-3.2-2.4c-.9-1-1.6-2.2-2.1-3.6-.5-1.4-.7-2.9-.7-4.6s.2-3.2.7-4.6c.5-1.4,1.2-2.6,2.1-3.6Z"/>
        <path class="cls-2" d="M203.4,208.2c-1.6-1.7-3.4-2.9-5.5-3.8-2.1-.9-4.4-1.3-6.9-1.3s-4.8.5-6.9,1.4c-2.1.9-3.9,2.2-5.5,3.8-1.6,1.7-2.8,3.6-3.6,5.8-.9,2.2-1.3,4.6-1.3,7.3s.4,5.1,1.3,7.3,2.1,4.2,3.6,5.8c1.6,1.7,3.4,2.9,5.5,3.8,2.1.9,4.4,1.4,6.9,1.4s4.7-.4,6.8-1.3c2.1-.9,3.9-2.2,5.5-3.8,1.6-1.7,2.8-3.6,3.6-5.8.9-2.2,1.3-4.7,1.3-7.3s-.4-5.1-1.3-7.3c-.9-2.2-2.1-4.2-3.6-5.8ZM200.2,226c-.5,1.4-1.2,2.6-2.1,3.6-.9,1-1.9,1.8-3.1,2.4-1.2.6-2.5.8-3.9.8s-2.7-.3-3.9-.8c-1.2-.6-2.2-1.3-3.1-2.4-.9-1-1.6-2.2-2.1-3.6-.5-1.4-.7-2.9-.7-4.6s.2-3.2.7-4.6c.5-1.4,1.2-2.6,2.1-3.6.9-1,1.9-1.8,3.1-2.4,1.2-.6,2.5-.8,3.9-.8s2.7.3,3.9.8c1.2.6,2.2,1.3,3.1,2.4.9,1,1.6,2.2,2.1,3.6.5,1.4.7,2.9.7,4.6s-.2,3.2-.7,4.6Z"/>
        <polygon class="cls-2" points="235.5 225.2 219.8 203.7 213.8 203.7 213.8 239.1 221 239.1 221 217.6 236.7 239.1 242.7 239.1 242.7 203.7 235.5 203.7 235.5 225.2"/>
        <polygon class="cls-2" points="271.9 225.2 256.2 203.7 250.2 203.7 250.2 239.1 257.4 239.1 257.4 217.6 273.1 239.1 279.1 239.1 279.1 203.7 271.9 203.7 271.9 225.2"/>
        <polygon class="cls-2" points="293.8 224.3 308.5 224.3 308.5 217.9 293.8 217.9 293.8 210.3 310.4 210.3 310.4 203.7 286.6 203.7 286.6 239.1 311 239.1 311 232.5 293.8 232.5 293.8 224.3"/>
        <path class="cls-2" d="M325,213.2c.9-1,2-1.8,3.2-2.4,1.2-.6,2.6-.8,4.1-.8s3,.4,4.3,1.1c1.3.7,2.5,1.8,3.6,3.1l4.7-4.9c-1.5-2.1-3.4-3.6-5.6-4.7s-4.7-1.6-7.4-1.6-4.7.4-6.8,1.3c-2.1.9-3.9,2.2-5.4,3.8-1.5,1.7-2.7,3.6-3.6,5.8-.9,2.2-1.3,4.7-1.3,7.3s.4,5.1,1.3,7.3c.9,2.2,2,4.2,3.6,5.8,1.5,1.7,3.3,2.9,5.4,3.8,2.1.9,4.3,1.3,6.8,1.3s5.3-.5,7.5-1.6,4.1-2.6,5.6-4.7l-4.7-4.9c-1.1,1.4-2.2,2.4-3.6,3.2-1.3.7-2.8,1.1-4.3,1.1s-2.8-.3-4.1-.8c-1.2-.6-2.3-1.3-3.2-2.4-.9-1-1.6-2.2-2.1-3.6-.5-1.4-.7-2.9-.7-4.6s.2-3.2.7-4.6c.5-1.4,1.2-2.6,2.1-3.6Z"/>
        <polygon class="cls-2" points="345.9 210.4 356 210.4 356 239.1 363.3 239.1 363.3 210.4 373.4 210.4 373.4 203.7 345.9 203.7 345.9 210.4"/>
        <polygon class="cls-2" points="384.6 224.3 399.2 224.3 399.2 217.9 384.6 217.9 384.6 210.3 401.1 210.3 401.1 203.7 377.3 203.7 377.3 239.1 401.7 239.1 401.7 232.5 384.6 232.5 384.6 224.3"/>
        <path class="cls-2" d="M437,212.1c-1.5-2.6-3.5-4.7-6.1-6.2-2.6-1.5-5.6-2.2-9.1-2.2h-14.3v35.4h14.3c3.4,0,6.4-.7,9.1-2.2,2.6-1.5,4.7-3.5,6.1-6.2,1.5-2.6,2.2-5.8,2.2-9.3s-.7-6.7-2.2-9.3ZM430.6,227.2c-.9,1.7-2.1,3-3.6,3.8-1.5.9-3.4,1.3-5.5,1.3h-6.6v-22h6.6c2.1,0,3.9.4,5.5,1.3,1.5.9,2.7,2.2,3.6,3.8.9,1.7,1.3,3.6,1.3,5.9s-.4,4.2-1.3,5.8Z"/>
      </g>
    </g>
  </g>
</svg>