<?xml version="1.0" encoding="UTF-8"?>
<svg xmlns="http://www.w3.org/2000/svg" version="1.1" xmlns:xlink="http://www.w3.org/1999/xlink" viewBox="0 0 500 500">
  <defs>
    <style>
      .cls-1 {
        fill: #141414;
      }

      .cls-2 {
        fill: #fff;
      }

      .cls-3 {
        fill: url(#linear-gradient);
      }

      .cls-4 {
        fill: #2f3135;
      }
    </style>
    <linearGradient id="linear-gradient" x1="135.1" y1="250" x2="364.9" y2="250" gradientUnits="userSpaceOnUse">
      <stop offset="0" stop-color="#a0a4af"/>
      <stop offset="0" stop-color="#8b8e97"/>
      <stop offset=".1" stop-color="#74767d"/>
      <stop offset=".2" stop-color="#616267"/>
      <stop offset=".3" stop-color="#525256"/>
      <stop offset=".4" stop-color="#48474a"/>
      <stop offset=".5" stop-color="#424143"/>
      <stop offset="1" stop-color="#414042"/>
    </linearGradient>
  </defs>
  <!-- Generator: Adobe Illustrator 28.6.0, SVG Export Plug-In . SVG Version: 1.2.0 Build 709)  -->
  <g>
    <g id="Layer_1">
      <g>
        <g>
          <path class="cls-4" d="M379.4,245.5v111.8c0,37-30.1,67-67.1,67h-124.7c-36.9,0-67-30.1-67-67v-101.8c0-28,10.9-54.5,30.8-74.6l1.2-1.2c3.1-3.2,6.3-6.5,9.3-10l74.1-89.8c2.9-2.8,6.6-4.2,10.3-4.2s7.1,1.3,9.8,3.8l91.6,94.8c20.2,18.3,31.7,44.3,31.7,71.3Z"/>
          <path class="cls-1" d="M351.6,169.4l-91.2-94.4c-8.2-7.6-20.9-7.5-29.1.6l-74.3,90c-2.8,3.4-5.9,6.6-9,9.7l-1.2,1.2c-21,21.3-32.6,49.3-32.6,79v101.8c0,40.4,32.9,73.3,73.3,73.3h124.7c40.4,0,73.3-32.9,73.3-73.3v-111.8c0-28.8-12.3-56.5-34-76.1ZM379.4,357.3c0,37-30.1,67-67.1,67h-124.7c-36.9,0-67-30.1-67-67v-101.8c0-28,10.9-54.5,30.8-74.6l1.2-1.2c3.1-3.2,6.3-6.5,9.3-10l74.1-89.8c2.9-2.8,6.6-4.2,10.3-4.2s7.1,1.3,9.8,3.8l91.6,94.8c20.2,18.3,31.7,44.3,31.7,71.3v111.8Z"/>
        </g>
        <path class="cls-3" d="M135.1,343.1v-88.3c0-25.9,10.5-49.5,27.5-66.6,3.1-3.2,6.2-6.2,9-9.6l64.4-78.1c5.9-5.8,15.2-5.9,21.3-.3l79,81.8.4.3c17.4,15.8,28.4,38.6,28.4,63.9v96.9c0,33.4-27.4,60.8-60.9,60.8h-108.1c-33.4,0-60.8-27.4-60.8-60.8Z"/>
        <polygon class="cls-2" points="246.2 349 286.2 300 206.1 300 246.2 349"/>
      </g>
    </g>
  </g>
</svg>