<?xml version="1.0" encoding="UTF-8"?>
<svg xmlns="http://www.w3.org/2000/svg" version="1.1" viewBox="0 0 500 500">
  <defs>
    <style>
      .cls-1 {
        fill: #008cff;
      }

      .cls-2 {
        fill: #fff;
      }

      .cls-3 {
        fill: #006db7;
      }
    </style>
  </defs>
  <!-- Generator: Adobe Illustrator 28.6.0, SVG Export Plug-In . SVG Version: 1.2.0 Build 709)  -->
  <g>
    <g id="Layer_1">
      <g>
        <g>
          <path class="cls-3" d="M416.3,244.4v140.3c0,48.4-39.6,88-88.1,88h-156.5c-48.4,0-88-39.5-88-88v-127.7c0-37.4,15.2-71.5,39.7-96.4,4.4-4.5,8.9-9,13-13.9l93.2-113c8.5-8.4,22.1-8.6,30.8-.4l114.2,118.3.5.4c25.2,22.9,41.1,55.8,41.1,92.4Z"/>
          <path class="cls-3" d="M328.2,476.6h-156.5c-50.7,0-91.9-41.2-91.9-91.9v-127.7c0-37.2,14.5-72.4,40.8-99.1l1.5-1.5c3.8-3.9,7.7-7.9,11.2-12.1L226.6,31.2c10.3-10.2,26.2-10.4,36.5-.8l114.4,118.5c27.3,24.7,42.7,59.4,42.7,95.5v140.3c0,50.7-41.3,91.9-92,91.9ZM245.3,31.2c-4.7,0-9.3,1.8-12.9,5.3l-93,112.7c-3.7,4.5-7.8,8.6-11.7,12.6l-1.5,1.5c-24.9,25.2-38.6,58.5-38.6,93.6v127.7c0,46.4,37.7,84.1,84.1,84.1h156.5c46.4,0,84.2-37.7,84.2-84.1v-140.3c0-33.9-14.5-66.5-39.8-89.5l-114.9-118.9c-3.5-3.2-7.9-4.8-12.3-4.8Z"/>
        </g>
        <path class="cls-1" d="M105.8,366.8v-110.8c0-32.4,13.2-62.1,34.4-83.6,3.9-4,7.8-7.8,11.2-12.1l80.8-98c7.3-7.3,19.1-7.4,26.7-.4l99.1,102.6.5.4c21.8,19.8,35.6,48.4,35.6,80.1v121.6c0,42-34.4,76.3-76.4,76.3h-135.7c-42,0-76.3-34.4-76.3-76.3Z"/>
        <polygon class="cls-2" points="245.2 374.2 295.4 312.7 195 312.7 245.2 374.2"/>
      </g>
    </g>
  </g>
</svg>