<?xml version="1.0" encoding="UTF-8"?>
<svg xmlns="http://www.w3.org/2000/svg" version="1.1" viewBox="0 0 500 500">
  <defs>
    <style>
      .cls-1 {
        fill: #008cff;
      }

      .cls-2 {
        fill: #fff;
      }

      .cls-3 {
        fill: #006db7;
      }
    </style>
  </defs>
  <!-- Generator: Adobe Illustrator 28.6.0, SVG Export Plug-In . SVG Version: 1.2.0 Build 709)  -->
  <g>
    <g id="Layer_1">
      <g>
        <g>
          <path class="cls-3" d="M466.7,260.5l-118.3,114.2-.4.5c-22.9,25.2-55.8,41.1-92.4,41.1H115.3c-48.4,0-88-39.6-88-88.1v-156.5c0-48.5,39.6-88,88-88h127.7c37.5,0,71.6,15.2,96.5,39.6,4.5,4.5,9,9,13.8,13l113,93.3c8.4,8.5,8.6,22.1.4,30.8Z"/>
          <path class="cls-3" d="M255.6,420.2H115.3c-50.7,0-91.9-41.3-91.9-92v-156.5c0-50.7,41.2-91.9,91.9-91.9h127.7c37.3,0,72.5,14.5,99.2,40.7,4.4,4.4,8.9,8.9,13.5,12.7l113,93.3c10.2,10.3,10.4,26.2.8,36.5v.2c-.1,0-118.5,114.2-118.5,114.2-24.7,27.3-59.4,42.7-95.5,42.7ZM115.3,87.6c-46.4,0-84.1,37.7-84.1,84.1v156.5c0,46.4,37.7,84.2,84.1,84.2h140.3c33.9,0,66.5-14.5,89.5-39.8l118.8-114.9c6.7-7.3,6.5-18.4-.4-25.3l-112.7-93.1c-5-4.1-9.6-8.7-14.1-13.2-25.2-24.8-58.5-38.5-93.7-38.5h-127.7Z"/>
        </g>
        <path class="cls-1" d="M133.2,105.8h110.8c32.4,0,62.1,13.2,83.6,34.4,4,3.9,7.8,7.8,12.1,11.2l98,80.8c7.3,7.3,7.4,19.1.4,26.7l-102.6,99.1-.4.5c-19.8,21.8-48.4,35.6-80.1,35.6h-121.6c-42,0-76.3-34.4-76.3-76.4v-135.7c0-42,34.4-76.3,76.3-76.3Z"/>
        <polygon class="cls-2" points="125.3 250 186.7 300.2 186.7 199.8 125.3 250"/>
      </g>
    </g>
  </g>
</svg>