<?xml version="1.0" encoding="UTF-8"?>
<svg xmlns="http://www.w3.org/2000/svg" version="1.1" viewBox="0 0 497.8 499.4">
  <defs>
    <style>
      .cls-1 {
        fill: #008cff;
      }

      .cls-2 {
        opacity: 0;
      }

      .cls-3 {
        fill: #fff;
      }

      .cls-4 {
        fill: #006db7;
      }

      .cls-5 {
        opacity: .3;
      }
    </style>
  </defs>
  <!-- Generator: Adobe Illustrator 28.6.0, SVG Export Plug-In . SVG Version: 1.2.0 Build 709)  -->
  <g>
    <g id="Layer_1">
      <g>
        <path class="cls-4" d="M248.9,185.5c-35.4,0-64.2,28.7-64.2,64.2s28.7,64.2,64.2,64.2,64.2-28.7,64.2-64.2-28.7-64.2-64.2-64.2ZM248.9,292.8c-23.8,0-43.1-19.3-43.1-43.1s19.3-43.1,43.1-43.1,43.1,19.3,43.1,43.1-19.3,43.1-43.1,43.1Z"/>
        <path class="cls-1" d="M292,249.7c0,23.8-19.3,43.1-43.1,43.1s-43.1-19.3-43.1-43.1,19.3-43.1,43.1-43.1,43.1,19.3,43.1,43.1Z"/>
        <g class="cls-5">
          <path d="M220.2,278.4c-22.6-19.7-15.1-57.2,12.5-67.9,15.3-6.3,34.3-2.2,45,10.5-15.8-14.2-41.5-13.9-56.2,1.3-15.2,14.7-15.6,40.4-1.3,56.2h0Z"/>
        </g>
        <g class="cls-2">
          <path class="cls-3" d="M277.7,220.9c16.6,15.1,16.6,42.6.7,58.1-15.6,16-43.1,15.9-58.1-.7,15.5,15,41.9,14.9,56.8-.7,15.5-14.9,15.6-41.4.7-56.8h0Z"/>
        </g>
      </g>
    </g>
  </g>
</svg>