<?xml version="1.0" encoding="UTF-8"?>
<svg xmlns="http://www.w3.org/2000/svg" version="1.1" viewBox="0 0 497.8 499.4">
  <defs>
    <style>
      .cls-1 {
        fill: #008cff;
      }

      .cls-2 {
        opacity: 0;
      }

      .cls-3 {
        fill: #fff;
      }

      .cls-4 {
        fill: #006db7;
      }

      .cls-5 {
        opacity: .3;
      }
    </style>
  </defs>
  <!-- Generator: Adobe Illustrator 28.6.0, SVG Export Plug-In . SVG Version: 1.2.0 Build 709)  -->
  <g>
    <g id="Layer_1">
      <g>
        <path class="cls-4" d="M261.4,28.5c-114.7,0-207.7,93-207.7,207.7s93,207.7,207.7,207.7,207.7-93,207.7-207.7S376.1,28.5,261.4,28.5ZM261.4,375.7c-77.1,0-139.5-62.5-139.5-139.5s62.5-139.5,139.5-139.5,139.5,62.5,139.5,139.5-62.5,139.5-139.5,139.5Z"/>
        <path class="cls-1" d="M400.9,236.2c0,77-62.5,139.5-139.5,139.5s-139.5-62.5-139.5-139.5,62.5-139.5,139.5-139.5,139.5,62.5,139.5,139.5Z"/>
        <g class="cls-5">
          <path d="M168.4,329.2c-73.2-63.6-48.8-185,40.5-219.9,49.4-20.5,110.9-7,145.6,33.8-51.1-46-134.2-44.9-181.8,4.3-49.2,47.6-50.3,130.7-4.3,181.8h0Z"/>
        </g>
        <g class="cls-2">
          <path class="cls-3" d="M354.5,143.2c53.7,48.8,53.8,137.7,2.1,188.2-50.4,51.7-139.4,51.6-188.2-2.1,50,48.4,135.7,48.1,183.9-2.2,50.3-48.2,50.6-133.9,2.2-183.9h0Z"/>
        </g>
      </g>
    </g>
  </g>
</svg>