<?xml version="1.0" encoding="UTF-8"?>
<svg xmlns="http://www.w3.org/2000/svg" version="1.1" viewBox="0 0 500 500">
  <defs>
    <style>
      .cls-1 {
        fill: #008cff;
      }

      .cls-2 {
        fill: #fff;
      }

      .cls-3 {
        opacity: 0;
      }

      .cls-4 {
        fill: #006db7;
      }

      .cls-5 {
        opacity: .3;
      }
    </style>
  </defs>
  <!-- Generator: Adobe Illustrator 28.6.0, SVG Export Plug-In . SVG Version: 1.2.0 Build 709)  -->
  <g>
    <g id="Layer_1">
      <g id="Layer_1-2" data-name="Layer_1">
        <g id="Layer_1-2">
          <g>
            <path class="cls-4" d="M250,88.8c-89,0-161.2,72.2-161.2,161.3s72.2,161.2,161.2,161.2,161.3-72.2,161.3-161.2-72.2-161.3-161.3-161.3h0ZM250,358.3c-59.8,0-108.3-48.5-108.3-108.3s48.5-108.3,108.3-108.3,108.3,48.5,108.3,108.3-48.5,108.3-108.3,108.3h0Z"/>
            <path class="cls-1" d="M358.3,250c0,59.8-48.5,108.3-108.3,108.3s-108.3-48.5-108.3-108.3,48.5-108.3,108.3-108.3,108.3,48.5,108.3,108.3h0Z"/>
            <g class="cls-5">
              <path d="M177.8,322.2c-56.8-49.4-37.9-143.6,31.4-170.7,38.4-15.9,86.1-5.4,113,26.3-39.7-35.7-104.2-34.9-141.1,3.3-38.2,36.9-39.1,101.5-3.3,141.1h0Z"/>
            </g>
            <g class="cls-3">
              <path class="cls-2" d="M322.2,177.8c41.7,37.9,41.8,106.9,1.6,146.1-39.1,40.1-108.2,40-146.1-1.6,38.8,37.6,105.3,37.3,142.8-1.7,39-37.4,39.3-104,1.7-142.8h0Z"/>
            </g>
          </g>
        </g>
      </g>
    </g>
  </g>
</svg>