<?xml version="1.0" encoding="UTF-8"?>
<svg xmlns="http://www.w3.org/2000/svg" version="1.1" viewBox="0 0 500 500">
  <defs>
    <style>
      .cls-1 {
        fill: #2b2b2b;
      }
    </style>
  </defs>
  <!-- Generator: Adobe Illustrator 28.6.0, SVG Export Plug-In . SVG Version: 1.2.0 Build 709)  -->
  <g>
    <g id="Layer_1">
      <g>
        <path d="M420.5,398.6c.3,9-6.8,16.6-15.8,16.8-51.3,1.8-213.2,5.6-316.1-12.9-5.8-1-9.8-6.5-9-12.5,1-7.3,2.7-18.2,5.2-31.5,0,0,89.3,18.2,165.1,18.2s126.4-2.1,169.7-9.1l.8,30.9Z"/>
        <path class="cls-1" d="M419.7,367.7c-43.4,7-93.8,9.1-169.7,9.1s-165.1-18.2-165.1-18.2c9.9-52.4,32.5-143,78.3-205.4,0,0,43.8-76.7,120.9-69.8,0,0,58.9-1.4,98.6,53.7,31,43,34.4,86.3,34.5,103.2,0,9.4,0,18.8.3,28.2l2.4,99.1Z"/>
        <g>
          <path d="M327.9,299.4h-7.7c-.8,0-1.4.6-1.4,1.4v34.9c0,.8.6,1.4,1.4,1.4h25.3c.8,0,1.4-.6,1.4-1.4v-5.7c0-.8-.6-1.4-1.4-1.4h-14.8c-.8,0-1.4-.6-1.4-1.4v-26.4c0-.8-.6-1.4-1.4-1.4Z"/>
          <path d="M371.3,328.6l7-6.6c1.8-1.6,3.1-3.1,4-4.5.9-1.3,1.5-2.6,1.8-3.8.3-1.2.5-2.4.5-3.6,0-2.4-.6-4.4-1.8-6.1s-2.9-3-5-4c-2.1-.9-4.6-1.4-7.5-1.4s-6.7.7-9.4,2.1c-1.8,1-3.4,2.3-4.6,3.7-.8,1-.6,2.4.5,3l5.9,3.3c.7-1.2,1.7-2.1,2.8-2.7s2.4-.9,3.7-.9,2.8.3,3.6,1c.8.7,1.2,1.6,1.2,2.8s0,1.1-.2,1.7c-.2.6-.5,1.2-.9,2s-1.2,1.6-2.2,2.5l-13.2,12.5c-.4.4-.6.9-.6,1.4v4c0,1.1.9,1.9,1.9,1.9h24.9c1.1,0,1.9-.9,1.9-1.9v-4.6c0-1.1-.9-1.9-1.9-1.9h-12.4Z"/>
        </g>
      </g>
    </g>
  </g>
</svg>