<?xml version="1.0" encoding="UTF-8"?>
<svg xmlns="http://www.w3.org/2000/svg" version="1.1" xmlns:xlink="http://www.w3.org/1999/xlink" viewBox="0 0 500 500">
  <defs>
    <style>
      .cls-1 {
        fill: #141414;
      }

      .cls-2 {
        fill: #fff;
      }

      .cls-3 {
        fill: url(#linear-gradient);
      }

      .cls-4 {
        fill: #2f3135;
      }
    </style>
    <linearGradient id="linear-gradient" x1="96.1" y1="250" x2="403.9" y2="250" gradientUnits="userSpaceOnUse">
      <stop offset="0" stop-color="#a0a4af"/>
      <stop offset="0" stop-color="#8b8e97"/>
      <stop offset=".1" stop-color="#74767d"/>
      <stop offset=".2" stop-color="#616267"/>
      <stop offset=".3" stop-color="#525256"/>
      <stop offset=".4" stop-color="#48474a"/>
      <stop offset=".5" stop-color="#424143"/>
      <stop offset="1" stop-color="#414042"/>
    </linearGradient>
  </defs>
  <!-- Generator: Adobe Illustrator 28.6.0, SVG Export Plug-In . SVG Version: 1.2.0 Build 709)  -->
  <g>
    <g id="Layer_1">
      <g>
        <g>
          <path class="cls-4" d="M420.5,256.1l-94.7,91.5c-18.3,20.2-44.3,31.7-71.3,31.7h-111.8c-36.9,0-67-30.1-67-67.1v-124.7c0-37,30.1-67,67-67h101.8c28,0,54.6,10.9,74.7,30.7,3.6,3.6,7.3,7.3,11.2,10.5l89.8,74.2c5.5,5.6,5.6,14.4.3,20.2Z"/>
          <path class="cls-1" d="M424.4,231.3l-90.1-74.4c-3.7-3.1-7.3-6.7-10.8-10.2-21.3-20.9-49.4-32.5-79.1-32.5h-101.8c-40.4,0-73.3,32.9-73.3,73.3v124.7c0,40.4,32.9,73.3,73.3,73.3h111.8c28.8,0,56.4-12.3,76.1-34l94.3-91h.1c7.6-8.4,7.5-21-.6-29.2ZM254.5,379.4h-111.8c-36.9,0-67-30.1-67-67.1v-124.7c0-37,30.1-67,67-67h101.8c28,0,54.6,10.9,74.7,30.7,3.6,3.6,7.3,7.3,11.2,10.5l89.8,74.2c5.5,5.6,5.6,14.4.3,20.2l-94.7,91.5c-18.3,20.2-44.3,31.7-71.3,31.7Z"/>
        </g>
        <path class="cls-3" d="M156.9,135.1h88.3c25.9,0,49.5,10.5,66.6,27.5,3.2,3.1,6.2,6.2,9.6,9l78.1,64.4c5.8,5.9,5.9,15.2.3,21.3l-81.8,79-.3.4c-15.8,17.4-38.6,28.4-63.9,28.4h-96.9c-33.4,0-60.8-27.4-60.8-60.9v-108.1c0-33.4,27.4-60.8,60.8-60.8Z"/>
        <polygon class="cls-2" points="150.6 250 199.6 290 199.6 210 150.6 250"/>
      </g>
    </g>
  </g>
</svg>