<?xml version="1.0" encoding="UTF-8"?>
<svg xmlns="http://www.w3.org/2000/svg" version="1.1" viewBox="0 0 500 500">
  <defs>
    <style>
      .cls-1 {
        fill: #008cff;
      }
    </style>
  </defs>
  <!-- Generator: Adobe Illustrator 28.6.0, SVG Export Plug-In . SVG Version: 1.2.0 Build 709)  -->
  <g>
    <g id="Layer_1">
      <g>
        <path d="M473.5,453.2c.3,12.1-9.2,22.3-21.2,22.7-69.2,2.4-287.4,7.6-426-17.4-7.9-1.4-13.3-8.8-12.1-16.9,1.4-9.9,3.7-24.5,7-42.4,0,0,120.3,24.5,222.6,24.5s170.3-2.9,228.8-12.2l1,41.7Z"/>
        <path class="cls-1" d="M472.5,411.5c-58.4,9.4-126.5,12.2-228.8,12.2s-222.6-24.5-222.6-24.5c13.3-70.7,43.8-192.7,105.5-276.8,0,0,59.1-103.3,163-94.1,0,0,79.3-1.9,132.8,72.4,41.8,58,46.4,116.4,46.5,139.1,0,12.7,0,25.3.3,38l3.3,133.6Z"/>
        <g>
          <path d="M348.7,319.5h-10.4c-1,0-1.9.8-1.9,1.9v47c0,1,.8,1.9,1.9,1.9h34.1c1,0,1.9-.8,1.9-1.9v-7.7c0-1-.8-1.9-1.9-1.9h-20c-1,0-1.9-.8-1.9-1.9v-35.6c0-1-.8-1.9-1.9-1.9Z"/>
          <path d="M407.3,358.8l9.4-8.8c2.4-2.2,4.2-4.2,5.4-6,1.2-1.8,2-3.5,2.5-5.2.4-1.6.6-3.3.6-4.9,0-3.2-.8-5.9-2.5-8.2s-3.9-4-6.8-5.3c-2.9-1.3-6.3-1.9-10.1-1.9s-9.1,1-12.6,2.9c-2.5,1.4-4.5,3-6.2,5-1.1,1.3-.8,3.2.7,4l8,4.5c1-1.6,2.3-2.8,3.8-3.6s3.2-1.2,5-1.2,3.7.5,4.8,1.4c1.1.9,1.6,2.2,1.6,3.8s-.1,1.5-.3,2.2c-.2.8-.6,1.7-1.2,2.6s-1.6,2.1-3,3.4l-17.8,16.9c-.5.5-.8,1.2-.8,1.9v5.3c0,1.4,1.2,2.6,2.6,2.6h33.6c1.4,0,2.6-1.2,2.6-2.6v-6.2c0-1.4-1.2-2.6-2.6-2.6h-16.7Z"/>
        </g>
      </g>
    </g>
  </g>
</svg>