<?xml version="1.0" encoding="UTF-8"?>
<svg xmlns="http://www.w3.org/2000/svg" version="1.1" viewBox="0 0 500 499.4">
  <defs>
    <style>
      .cls-1 {
        fill: #008cff;
      }

      .cls-2 {
        fill: #006db7;
      }
    </style>
  </defs>
  <!-- Generator: Adobe Illustrator 28.6.0, SVG Export Plug-In . SVG Version: 1.2.0 Build 709)  -->
  <g>
    <g id="Layer_1">
      <g>
        <g>
          <path class="cls-1" d="M379.7,200.2h0c-.2,8.8-1.4,16.8-3.5,24.4-2.3,8.1-5.2,14.5-9.1,20.1-7.5,10.4-17.6,16.5-30,18-7.9,1-16.2.1-25.4-2.6-4-1.2-8.3-2.8-12.9-4.8v-1.4c0-15.4,0-30.8,0-46.2,0-15.4,0-30.8,0-46.2s0-13.4-.1-20c0-4.9-.2-10.3-1.8-15.6-1.8-6.1-4.9-10.5-9.5-13.4-3-1.7-5.6-2.7-8.5-3-4.4-.4-7.9,1-10.8,4.2-1.5,1.8-2.7,3.8-3.5,6.1-.8,2.3-1.7,5.4-1.7,8.7,0,8.9,0,17.7-.1,26.5,0,8.8-.1,17.6-.1,26.4-.1,35.1-.1,70-.1,105.1s0,51.7-.1,77.7v51.9l-71.8-22.7c0-6-.2-25.8-.2-54.4v-.8c-.2-90.8,0-259,.3-282.8.9.2,1.8.3,2.7.5,18.3,3.9,37.1,8.7,55.8,14.2,14.1,4.2,28.1,8.7,42.1,13.1,12.1,3.9,22.5,8,31.8,12.6,9.6,4.8,17.8,9.8,24.9,15.5,12.8,10.4,21.7,23.7,26.4,39.4,2.3,7.5,3.8,15.5,4.7,24.6.8,8.9,1.1,17.1.8,25Z"/>
          <path class="cls-1" d="M325,395.6l-42.3,15.1c0-1.1,0-2.2,0-3.3,0-9.8,0-19.7.1-29.5,6,2.6,13,5.5,19.8,8.4l7.8,3.2,6.5,2.7,8.2,3.4Z"/>
          <path class="cls-1" d="M436.2,355.5c-18.3,6.6-36.6,13.3-55,19.8-8.8,3.2-17.5,6.3-26.2,9.5-9.1,3.2-18.1,6.5-27.2,9.8l-2.8,1-8.2-3.4-6.5-2.7-7.8-3.2c-6.8-2.9-13.8-5.8-19.8-8.4,0-.3,0-.6,0-.8v-5.7s98.5-35.2,98.5-35.2c1-.4,2-.7,3-1.1l51.9,20.4Z"/>
          <path class="cls-2" d="M485,310.8c-1.8-2.6-4.2-5.1-7.1-7.4-4.8-3.8-10.1-6.8-15.6-9-9.1-3.4-16.6-6-23.6-8.3-16.1-5-33.2-8-52.2-9.2-8.9-.6-18.4-.7-30.8-.5-10.2.2-20.5,1.7-30.1,3.3-15,2.5-29.6,6.1-43.4,10.6l-1.3.5c-.5.2-1.1.4-1.7.6l-2,.6v11.2c0,12.5,0,25,.2,37.5l.6,3.1,3.1-.5,1-.2c1.7-.6,3.5-1.2,5.1-1.8,18.8-6.6,37.7-13.2,56.7-19.9,3.5-1.2,7-2.4,10.6-3.7l3.2-1.1c4.4-1.6,8.6-3,12.9-4.1,10.4-2.7,21.1-3.3,31.7-1.9,3.7.5,6.5,1.3,9,2.5,1.1.6,2,1.1,2.6,2.1.4.4.3.6.2.6-.8,1-1.5,2-2.4,2.6-1.5,1.1-3.4,2.1-5.3,2.9-9,3.3-17.9,6.6-26.9,9.8l-97.9,35-1,.4c-2.9,1-3.4,2.3-3.3,5v5.8c-.1,10.1-.1,20.3-.1,30.4s0,3.9.2,6.1l.2,4.6,3.3-.8c1-.3,1.7-.5,2.3-.8l46.6-16.7c9-3.3,18.1-6.5,27.2-9.8,8.8-3.1,17.5-6.3,26.2-9.5,19.2-6.8,38.4-13.8,57.5-20.8l9.7-3.5c9-3.2,17.4-7.6,25-13.1,4.4-3.1,7.5-6.2,10-9.8h0c4.7-7.1,4.5-16-.4-22.7ZM480.8,330.3c-2.1,3-4.9,5.7-8.7,8.4-7.2,5.2-15.2,9.3-23.7,12.3l-9.2,3.3c-1,.4-2,.7-3,1.1-18.3,6.6-36.6,13.3-55,19.8-8.8,3.2-17.5,6.3-26.2,9.5-9.1,3.2-18.1,6.5-27.2,9.8l-2.8,1-42.3,15.1c0-1.1,0-2.2,0-3.3,0-9.8,0-19.7.1-29.5,0-.3,0-.6,0-.8v-5.7s98.5-35.2,98.5-35.2c1-.4,2-.7,3-1.1,8-2.9,15.9-5.8,24-8.7,2.4-.9,4.8-2.1,6.5-3.5,1.7-1.1,2.8-2.6,3.8-4,1.5-2.3,1.3-5.1-.3-7.1-1.2-1.9-3-2.9-4.6-3.7-3.1-1.5-6.5-2.5-10.8-3-11.3-1.5-22.7-.8-33.8,2.1-4.6,1.2-9.1,2.8-13.4,4.3l-3.2,1.1c-3.6,1.2-7.1,2.4-10.6,3.7-1,.4-2,.7-3,1.1-17.9,6.3-35.8,12.6-53.7,18.9-.8.3-1.6.6-2.4.9-.2-11.3-.2-22.5-.2-33.8v-7.2s0,0,.1,0l1.1-.4h0c13.6-4.4,27.9-7.9,42.5-10.4,9.4-1.5,19.4-3,29.3-3.2,12.3-.2,21.7-.1,30.4.4,18.6,1.2,35.2,4.1,50.8,9,6.9,2.2,14.3,4.9,23.3,8.2,5,2,9.8,4.8,14.2,8.2,2.5,2,4.5,4,6,6.2,3.5,4.8,3.6,11.2.3,16.3Z"/>
          <path class="cls-1" d="M338.9,317.2c-17.9,6.3-35.8,12.6-53.7,18.9-.8.3-1.6.6-2.4.9-.2-11.3-.2-22.5-.2-33.8v-7.2s0,0,.1,0l1.1-.4,55.1,21.6Z"/>
          <path class="cls-1" d="M480.8,330.3c-2.1,3-4.9,5.7-8.7,8.4-7.2,5.2-15.2,9.3-23.7,12.3l-9.2,3.3c-1,.4-2,.7-3,1.1l-51.9-20.4c8-2.9,15.9-5.8,24-8.7,2.4-.9,4.8-2.1,6.5-3.5,1.7-1.1,2.8-2.6,3.8-4,1.5-2.3,1.3-5.1-.3-7.1-1.2-1.9-3-2.9-4.6-3.7-3.1-1.5-6.5-2.5-10.8-3-11.3-1.5-22.7-.8-33.8,2.1-4.6,1.2-9.1,2.8-13.4,4.3l-3.2,1.1c-3.6,1.2-7.1,2.4-10.6,3.7-1,.4-2,.7-3,1.1l-55.1-21.6h0c13.6-4.4,27.9-7.9,42.5-10.4,9.4-1.5,19.4-3,29.3-3.2,12.3-.2,21.7-.1,30.4.4,18.6,1.2,35.2,4.1,50.8,9,6.9,2.2,14.3,4.9,23.3,8.2,5,2,9.8,4.8,14.2,8.2,2.5,2,4.5,4,6,6.2,3.5,4.8,3.6,11.2.3,16.3Z"/>
          <path class="cls-1" d="M169.5,336.8v34.2h-.8c-1.3.4-2.5.6-3.7.8-9.4,1.5-18.7,2.4-27.6,2.9-8.9.4-17.9.4-26.8,0-7.6-.5-14.5-1.2-21-2.1-10.6-1.5-19.1-3.3-26.7-5.4-8.1-2.2-16.3-4.7-25.1-7.6-5.4-1.7-10.6-4.4-15.6-8.1-3.7-2.7-6.3-5.6-8.1-9-2.9-5.3-2.7-10.3.7-15.4,1.9-3.1,4.9-5.3,7.3-6.9,7.8-5.2,16.2-9.1,23.4-12.2,8.1-3.5,16.6-6.5,24.9-9.5l7.3-2.6c1.1-.4,2.2-.8,3.3-1.2,8.3,3.1,27.8,11,52.3,21.1l-40.7,14.6c-1.3.5-2.6.9-3.9,1.5-2,.9-3.9,1.9-5.7,3.1-1.1.7-2.1,1.5-3,2.5-1.8,2-2.6,4-2.4,6.1.2,2.1,1.5,3.9,3.7,5.4,3.2,2.3,6.9,3.2,10.1,3.9,9.1,1.7,17.8,1.1,24.3.5,9.2-.8,18-3.7,26.1-6.6,5-1.8,10.1-3.7,15.1-5.5,4.1-1.5,8.1-2.9,12.5-4.5Z"/>
          <path class="cls-1" d="M169.6,263.2v39.5c-.4.1-.7.3-1.1.4l-1.4.6c-10.4,3.7-20.6,7.3-31.4,11.2l-2.5.9c-24.6-10.1-44-18-52.3-21.1,13.3-4.8,26.7-9.5,40-14.2,13.9-5,27.9-9.9,41.8-14.9,2.3-.8,4.6-1.6,6.9-2.4Z"/>
        </g>
        <g>
          <path class="cls-2" d="M384.4,174.7c-.9-9.5-2.5-17.9-4.9-25.7-5-16.8-14.5-30.9-28.2-42.1-7.5-5.9-16-11.2-26-16.1-9.5-4.7-20.2-9-32.6-12.9-14-4.5-28.1-8.9-42.2-13.1-18.8-5.6-37.7-10.4-56.3-14.3-2-.3-3.8-.7-5.8-1.1l-2.7-.6-.6,2.7c-.6,2.7-.7,216.9-.5,286.4,0,.5,0,1.1,0,1.6,0,19,0,54.7.2,56.3l.2,1.8,82.7,26.2v-59.5c.1-25.9.1-51.8.1-77.7s0-70,.1-105c0-8.8,0-17.5.1-26.3,0-8.8.1-17.7.1-26.5s.4-4,1.4-6.9c.6-1.6,1.4-3.1,2.4-4.3,1.7-1.8,3.6-2.6,6.1-2.4,2,.2,3.9,1,6.2,2.3,3.3,2.1,5.6,5.5,7.1,10.2,1.3,4.4,1.6,8.8,1.6,14.1.1,6.7.1,13.3.1,20,0,15.4,0,30.8,0,46.2,0,15.4,0,30.8,0,46.2v1.4c-.1,1.6.2,3.7,3,4.9,4.8,2.2,9.5,4,13.9,5.3,9.9,2.9,18.9,3.8,27.6,2.8,14-1.7,25.4-8.6,33.9-20.3,4.3-6.2,7.5-13.1,10-21.9,2.2-8.1,3.4-16.5,3.7-25.7.3-8.2,0-16.6-.8-25.7ZM311.6,260.2c-4-1.2-8.3-2.8-12.9-4.8v-1.4c0-15.4,0-30.8,0-46.2,0-15.4,0-30.8,0-46.2s0-13.4-.1-20c0-4.9-.2-10.3-1.8-15.6-1.8-6.1-4.9-10.5-9.5-13.4-3-1.7-5.6-2.7-8.5-3-4.4-.4-7.9,1-10.8,4.2-1.5,1.8-2.7,3.8-3.5,6.1-.8,2.3-1.7,5.4-1.7,8.7,0,8.9,0,17.7-.1,26.5,0,8.8-.1,17.6-.1,26.4-.1,35.1-.1,70-.1,105.1s0,51.7-.1,77.7v51.9l-71.8-22.7c0-6-.2-25.8-.2-54.4v-.8c-.2-90.8,0-259,.3-282.8.9.2,1.8.3,2.7.5,18.3,3.9,37.1,8.7,55.8,14.2,14.1,4.2,28.1,8.7,42.1,13.1,12.1,3.9,22.5,8,31.8,12.6,9.6,4.8,17.8,9.8,24.9,15.5,12.8,10.4,21.7,23.7,26.4,39.4,2.3,7.5,3.8,15.5,4.7,24.6.8,8.9,1.1,17.1.8,25h0c-.2,8.8-1.4,16.8-3.5,24.4-2.3,8.1-5.2,14.5-9.1,20.1-7.5,10.4-17.6,16.5-30,18-7.9,1-16.2.1-25.4-2.6Z"/>
          <path class="cls-2" d="M84.1,341.1c.5-.6,1-1,1.7-1.5,1.7-1,3.4-1.9,5.1-2.7,1.1-.5,2.2-.9,3.4-1.3l42.9-15.4.8-.2c10.3-3.8,20.6-7.4,31-11.1l1.5-.6c.9-.4,1.8-.7,2.8-1.1l1.8-.7v-47.1l-.6-3.4-3.4.8c-.7.2-1.2.3-1.7.5-2.8,1-5.7,2-8.5,3-13.9,5-27.9,9.9-41.8,14.9-14.4,5.1-28.9,10.2-43.3,15.4l-7.3,2.6c-8.3,3-17,6-25.2,9.6-7.4,3.2-16.1,7.2-24.3,12.7-2.8,1.9-6.5,4.7-8.9,8.6-4.5,6.8-4.8,14.1-.9,21.1,2.2,4.1,5.4,7.7,9.7,10.9,5.4,4,11.2,6.9,17.1,8.9,8.9,2.9,17.2,5.5,25.4,7.7,7.8,2.2,16.5,3.9,27.4,5.5,6.7.9,13.7,1.6,21.5,2.1,4.6.2,9.2.3,13.8.3s9.1-.1,13.7-.3c9.1-.4,18.6-1.4,28.3-2.9,1.2-.2,2.4-.4,3.6-.7l5.4-1v-46.8l-3.8,1.4c-.6.2-1.1.4-1.6.5l-.8.2c-4.6,1.7-9.3,3.4-13.9,5.1-5.1,1.8-10.1,3.7-15.1,5.5-7.7,2.8-16.1,5.5-24.7,6.3-6.2.6-14.4,1.1-22.8-.4-2.7-.6-5.6-1.3-8-3-1-.7-1.4-1.2-1.4-1.5,0-.3.2-.9,1-1.8h0ZM120.9,280.5c13.9-5,27.9-9.9,41.8-14.9,2.3-.8,4.6-1.6,6.9-2.4v39.5c-.4.1-.7.3-1.1.4l-1.4.6c-10.4,3.7-20.6,7.3-31.4,11.2l-2.5.9-40.7,14.6c-1.3.5-2.6.9-3.9,1.5-2,.9-3.9,1.9-5.7,3.1-1.1.7-2.1,1.5-3,2.5-1.8,2-2.6,4-2.4,6.1.2,2.1,1.5,3.9,3.7,5.4,3.2,2.3,6.9,3.2,10.1,3.9,9.1,1.7,17.8,1.1,24.3.5,9.2-.8,18-3.7,26.1-6.6,5-1.8,10.1-3.7,15.1-5.5,4.1-1.5,8.1-2.9,12.5-4.5v34.2h-.8c-1.3.4-2.5.6-3.7.8-9.4,1.5-18.7,2.4-27.6,2.9-8.9.4-17.9.4-26.8,0-7.6-.5-14.5-1.2-21-2.1-10.6-1.5-19.1-3.3-26.7-5.4-8.1-2.2-16.3-4.7-25.1-7.6-5.4-1.7-10.6-4.4-15.6-8.1-3.7-2.7-6.3-5.6-8.1-9-2.9-5.3-2.7-10.3.7-15.4,1.9-3.1,4.9-5.3,7.3-6.9,7.8-5.2,16.2-9.1,23.4-12.2,8.1-3.5,16.6-6.5,24.9-9.5l7.3-2.6c1.1-.4,2.2-.8,3.3-1.2,13.3-4.8,26.7-9.5,40-14.2Z"/>
        </g>
      </g>
    </g>
  </g>
</svg>