<?xml version="1.0" encoding="UTF-8"?>
<svg xmlns="http://www.w3.org/2000/svg" version="1.1" viewBox="0 0 500 500">
  <defs>
    <style>
      .cls-1 {
        fill: #141414;
      }

      .cls-2 {
        fill: #fff;
      }

      .cls-3 {
        opacity: .2;
      }

      .cls-4 {
        fill: #1c9480;
      }

      .cls-5 {
        fill: #04458f;
      }

      .cls-6 {
        fill: #ed1c24;
      }

      .cls-7 {
        fill: #f3af1f;
      }
    </style>
  </defs>
  <!-- Generator: Adobe Illustrator 28.6.0, SVG Export Plug-In . SVG Version: 1.2.0 Build 709)  -->
  <g>
    <g id="Layer_1">
      <g>
        <g>
          <path class="cls-6" d="M357,220.9h0c-.2,7.1-1.1,13.6-2.8,19.8-1.8,6.6-4.2,11.8-7.4,16.3-6.1,8.4-14.3,13.4-24.3,14.6-6.4.8-13.1.1-20.6-2.1-3.3-.9-6.7-2.2-10.4-3.9v-1.1c0-12.5,0-25,0-37.4,0-12.5,0-24.9,0-37.4s0-10.8,0-16.2c0-4-.2-8.3-1.5-12.6-1.5-4.9-4-8.5-7.7-10.9-2.5-1.4-4.6-2.2-6.8-2.5-3.6-.3-6.4.8-8.8,3.4-1.3,1.4-2.2,3.1-2.9,5-.6,1.9-1.4,4.3-1.4,7,0,7.2,0,14.3,0,21.5,0,7.1,0,14.2,0,21.4,0,28.4,0,56.7,0,85.1s0,41.9,0,62.9v42.1l-58.2-18.4c0-4.8-.1-20.9-.1-44.1v-.6c-.2-73.6,0-209.9.2-229.2.7.1,1.5.3,2.2.4,14.8,3.2,30,7,45.2,11.5,11.4,3.4,22.8,7,34.1,10.6,9.8,3.2,18.2,6.5,25.8,10.2,7.8,3.9,14.4,8,20.2,12.5,10.4,8.4,17.5,19.2,21.4,31.9,1.9,6,3.1,12.6,3.8,19.9.7,7.2.9,13.9.6,20.3Z"/>
          <path class="cls-7" d="M312.7,379.1l-34.3,12.3c0-.9,0-1.8,0-2.7,0-8,0-15.9,0-23.9,4.9,2.1,10.5,4.5,16.1,6.8l6.3,2.6,5.2,2.2,6.6,2.7Z"/>
          <path class="cls-4" d="M402.8,346.7c-14.8,5.4-29.7,10.8-44.6,16.1-7.1,2.6-14.2,5.1-21.3,7.7-7.3,2.6-14.7,5.3-22,7.9l-2.3.8-6.6-2.7-5.2-2.2-6.3-2.6c-5.5-2.3-11.2-4.7-16.1-6.8,0-.2,0-.5,0-.7v-4.6s79.8-28.5,79.8-28.5c.8-.3,1.6-.6,2.4-.9l42.1,16.5Z"/>
          <path class="cls-4" d="M324,315.6c-14.5,5.1-29,10.2-43.5,15.3-.6.3-1.3.5-1.9.7-.2-9.1-.1-18.2-.1-27.4v-5.8s0,0,0,0l.9-.3,44.6,17.5Z"/>
          <path class="cls-5" d="M438.9,326.3c-1.7,2.5-4,4.6-7,6.8-5.8,4.2-12.3,7.5-19.2,10l-7.5,2.7c-.8.3-1.6.6-2.4.9l-42.1-16.5c6.5-2.3,12.9-4.7,19.4-7.1,2-.7,3.9-1.7,5.3-2.8,1.4-.9,2.3-2.1,3.1-3.3,1.2-1.8,1.1-4.1-.3-5.7-1-1.5-2.4-2.3-3.8-3-2.5-1.2-5.3-2-8.7-2.5-9.2-1.2-18.4-.6-27.4,1.7-3.7,1-7.3,2.2-10.9,3.5l-2.6.9c-2.9,1-5.8,2-8.6,3-.8.3-1.6.6-2.5.9l-44.6-17.5h0c11-3.6,22.6-6.4,34.5-8.4,7.6-1.2,15.7-2.4,23.8-2.6,10-.2,17.6-.1,24.6.4,15.1,1,28.5,3.3,41.2,7.3,5.6,1.8,11.6,3.9,18.9,6.6,4.1,1.6,8,3.8,11.5,6.6,2,1.6,3.6,3.2,4.9,5.1,2.9,3.9,3,9.1.2,13.2Z"/>
          <path class="cls-7" d="M186.7,331.5v27.8h-.6c-1,.3-2,.5-3,.7-7.6,1.2-15.2,2-22.4,2.3-7.2.4-14.5.4-21.7,0-6.2-.4-11.8-.9-17-1.7-8.6-1.3-15.5-2.6-21.6-4.4-6.6-1.8-13.2-3.8-20.4-6.2-4.4-1.4-8.6-3.6-12.6-6.5-3-2.2-5.1-4.5-6.6-7.3-2.4-4.3-2.2-8.3.6-12.5,1.6-2.5,4-4.3,5.9-5.6,6.3-4.2,13.1-7.4,18.9-9.9,6.6-2.8,13.5-5.3,20.2-7.7l5.9-2.1c.9-.3,1.8-.6,2.6-.9,6.7,2.5,22.5,8.9,42.4,17.1l-33,11.8c-1.1.4-2.1.8-3.1,1.2-1.6.8-3.1,1.5-4.6,2.5-.9.6-1.7,1.3-2.4,2-1.5,1.6-2.1,3.3-1.9,5,.2,1.7,1.2,3.2,3,4.4,2.6,1.8,5.6,2.6,8.2,3.2,7.3,1.3,14.4.9,19.7.4,7.5-.7,14.6-3,21.1-5.4,4.1-1.5,8.2-3,12.2-4.5,3.3-1.2,6.6-2.4,10.2-3.7Z"/>
          <path class="cls-4" d="M186.8,271.9v32c-.3.1-.6.2-.9.4l-1.1.4c-8.4,3-16.7,6-25.4,9.1l-2,.7c-19.9-8.2-35.7-14.6-42.4-17.1,10.8-3.9,21.6-7.7,32.4-11.5,11.3-4,22.6-8,33.9-12,1.9-.6,3.7-1.3,5.6-1.9Z"/>
        </g>
        <g>
          <path class="cls-1" d="M360.9,200.2c-.7-7.7-2-14.5-4-20.8-4.1-13.6-11.8-25.1-22.9-34.1-6.1-4.8-12.9-9-21-13.1-7.7-3.8-16.4-7.3-26.4-10.5-11.4-3.6-22.7-7.2-34.2-10.7-15.2-4.5-30.6-8.4-45.6-11.6-1.6-.3-3.1-.5-4.7-.9l-2.2-.5-.5,2.2c-.5,2.2-.5,175.8-.4,232.1,0,.4,0,.8,0,1.3,0,15.4,0,44.3.2,45.7l.2,1.4,67,21.2v-48.2c0-21,0-41.9,0-62.9s0-56.7,0-85.1c0-7.1,0-14.2,0-21.3,0-7.2,0-14.3,0-21.5s.3-3.3,1.1-5.6c.5-1.3,1.1-2.5,2-3.5,1.4-1.5,2.9-2.1,4.9-1.9,1.6.2,3.2.8,5,1.8,2.7,1.7,4.6,4.4,5.7,8.3,1.1,3.6,1.3,7.1,1.3,11.4,0,5.4,0,10.8,0,16.2,0,12.5,0,25,0,37.4,0,12.5,0,24.9,0,37.4v1.1c-.1,1.3.2,3,2.4,4,3.9,1.8,7.7,3.2,11.3,4.3,8,2.4,15.3,3.1,22.4,2.2,11.3-1.4,20.6-6.9,27.4-16.4,3.5-5,6.1-10.6,8.1-17.7,1.8-6.6,2.8-13.4,3-20.8.3-6.6,0-13.4-.6-20.8ZM301.9,269.5c-3.3-.9-6.7-2.2-10.4-3.9v-1.1c0-12.5,0-25,0-37.4,0-12.5,0-24.9,0-37.4s0-10.8,0-16.2c0-4-.2-8.3-1.5-12.6-1.5-4.9-4-8.5-7.7-10.9-2.5-1.4-4.6-2.2-6.8-2.5-3.6-.3-6.4.8-8.8,3.4-1.3,1.4-2.2,3.1-2.9,5-.6,1.9-1.4,4.3-1.4,7,0,7.2,0,14.3,0,21.5,0,7.1,0,14.2,0,21.4,0,28.4,0,56.7,0,85.1s0,41.9,0,62.9v42.1l-58.2-18.4c0-4.8-.1-20.9-.1-44.1v-.6c-.2-73.6,0-209.9.2-229.2.7.1,1.5.3,2.2.4,14.8,3.2,30,7,45.2,11.5,11.4,3.4,22.8,7,34.1,10.6,9.8,3.2,18.2,6.5,25.8,10.2,7.8,3.9,14.4,8,20.2,12.5,10.4,8.4,17.5,19.2,21.4,31.9,1.9,6,3.1,12.6,3.8,19.9.7,7.2.9,13.9.6,20.3h0c-.2,7.1-1.1,13.6-2.8,19.8-1.8,6.6-4.2,11.8-7.4,16.3-6.1,8.4-14.3,13.4-24.3,14.6-6.4.8-13.1.1-20.6-2.1Z"/>
          <path class="cls-1" d="M442.4,310.5c-1.5-2.1-3.4-4.1-5.8-6-3.9-3-8.1-5.5-12.7-7.3-7.4-2.7-13.4-4.9-19.1-6.7-13-4.1-26.9-6.5-42.3-7.5-7.2-.5-14.9-.6-25-.4-8.3.2-16.6,1.4-24.4,2.6-12.1,2-23.9,4.9-35.2,8.6l-1.1.4c-.4.2-.9.3-1.4.5l-1.6.5v9.1c0,10.1,0,20.2.2,30.4l.5,2.5,2.5-.4.8-.2c1.4-.5,2.8-.9,4.1-1.5,15.3-5.3,30.6-10.7,45.9-16.1,2.8-1,5.7-2,8.6-3l2.6-.9c3.6-1.3,6.9-2.4,10.5-3.4,8.4-2.2,17.1-2.7,25.7-1.6,3,.4,5.3,1,7.3,2,.9.5,1.6.9,2.1,1.7.3.4.2.5.2.5-.6.8-1.2,1.6-2,2.1-1.2.9-2.7,1.7-4.3,2.3-7.3,2.7-14.5,5.3-21.8,7.9l-79.3,28.3-.8.3c-2.4.8-2.7,1.9-2.7,4v4.7c0,8.2,0,16.4,0,24.6s0,3.2.2,4.9l.2,3.7,2.7-.7c.9-.2,1.4-.4,1.8-.6l37.8-13.5c7.3-2.7,14.7-5.3,22-7.9,7.1-2.5,14.2-5.1,21.3-7.7,15.6-5.5,31.1-11.2,46.6-16.8l7.8-2.8c7.3-2.6,14.1-6.1,20.3-10.6,3.5-2.5,6.1-5.1,8.1-7.9h0c3.8-5.7,3.7-12.9-.3-18.4ZM438.9,326.3c-1.7,2.5-4,4.6-7,6.8-5.8,4.2-12.3,7.5-19.2,10l-7.5,2.7c-.8.3-1.6.6-2.4.9-14.8,5.4-29.7,10.8-44.6,16.1-7.1,2.6-14.2,5.1-21.3,7.7-7.3,2.6-14.7,5.3-22,7.9l-2.3.8-34.3,12.3c0-.9,0-1.8,0-2.7,0-8,0-15.9,0-23.9,0-.2,0-.5,0-.7v-4.6s79.8-28.5,79.8-28.5c.8-.3,1.6-.6,2.4-.9,6.5-2.3,12.9-4.7,19.4-7.1,2-.7,3.9-1.7,5.3-2.8,1.4-.9,2.3-2.1,3.1-3.3,1.2-1.8,1.1-4.1-.3-5.7-1-1.5-2.4-2.3-3.8-3-2.5-1.2-5.3-2-8.7-2.5-9.2-1.2-18.4-.6-27.4,1.7-3.7,1-7.3,2.2-10.9,3.5l-2.6.9c-2.9,1-5.8,2-8.6,3-.8.3-1.6.6-2.5.9-14.5,5.1-29,10.2-43.5,15.3-.6.3-1.3.5-1.9.7-.2-9.1-.1-18.2-.1-27.4v-5.8s0,0,0,0l.9-.3h0c11-3.6,22.6-6.4,34.5-8.4,7.6-1.2,15.7-2.4,23.8-2.6,10-.2,17.6-.1,24.6.4,15.1,1,28.5,3.3,41.2,7.3,5.6,1.8,11.6,3.9,18.9,6.6,4.1,1.6,8,3.8,11.5,6.6,2,1.6,3.6,3.2,4.9,5.1,2.9,3.9,3,9.1.2,13.2Z"/>
          <path class="cls-1" d="M117.5,335c.4-.4.8-.8,1.4-1.2,1.4-.8,2.7-1.5,4.2-2.2.9-.4,1.8-.7,2.7-1.1l34.7-12.4.7-.2c8.4-3.1,16.7-6,25.1-9l1.2-.5c.7-.3,1.4-.6,2.2-.9l1.5-.5v-38.2l-.5-2.7-2.8.7c-.6.1-1,.3-1.4.4-2.2.8-4.6,1.6-6.9,2.4-11.3,4-22.6,8-33.9,12.1-11.7,4.2-23.4,8.3-35.1,12.5l-5.9,2.1c-6.8,2.4-13.7,4.9-20.4,7.8-6,2.6-13.1,5.9-19.7,10.3-2.3,1.6-5.2,3.8-7.2,6.9-3.6,5.5-3.9,11.4-.7,17.1,1.8,3.3,4.3,6.2,7.9,8.8,4.4,3.2,9.1,5.6,13.9,7.2,7.2,2.4,13.9,4.4,20.6,6.3,6.4,1.8,13.4,3.2,22.2,4.5,5.4.8,11.1,1.3,17.4,1.7,3.7.2,7.4.3,11.1.3s7.4,0,11.1-.3c7.4-.4,15.1-1.1,23-2.4,1-.2,1.9-.4,2.9-.5l4.4-.8v-37.9l-3,1.1c-.5.2-.9.3-1.3.4l-.6.2c-3.8,1.4-7.5,2.7-11.3,4.1-4.1,1.5-8.2,3-12.3,4.5-6.3,2.3-13,4.5-20,5.1-5,.5-11.7.9-18.4-.3-2.2-.5-4.5-1.1-6.5-2.5-.8-.5-1.1-1-1.1-1.2,0-.2.2-.7.8-1.4h0ZM112.2,337c.2,1.7,1.2,3.2,3,4.4,2.6,1.8,5.6,2.6,8.2,3.2,7.3,1.3,14.4.9,19.7.4,7.5-.7,14.6-3,21.1-5.4,4.1-1.5,8.2-3,12.2-4.5,3.3-1.2,6.6-2.4,10.2-3.7v27.8h-.6c-1,.3-2,.5-3,.7-7.6,1.2-15.2,2-22.4,2.3-7.2.4-14.5.4-21.7,0-6.2-.4-11.8-.9-17-1.7-8.6-1.3-15.5-2.6-21.6-4.4-6.6-1.8-13.2-3.8-20.4-6.2-4.4-1.4-8.6-3.6-12.6-6.5-3-2.2-5.1-4.5-6.6-7.3-2.4-4.3-2.2-8.3.6-12.5,1.6-2.5,4-4.3,5.9-5.6,6.3-4.2,13.1-7.4,18.9-9.9,6.6-2.8,13.5-5.3,20.2-7.7l5.9-2.1c.9-.3,1.8-.6,2.6-.9,10.8-3.9,21.6-7.7,32.4-11.5,11.3-4,22.6-8,33.9-12,1.9-.6,3.7-1.3,5.6-1.9v32c-.3.1-.6.2-.9.4l-1.1.4c-8.4,3-16.7,6-25.4,9.1l-2,.7-33,11.8c-1.1.4-2.1.8-3.1,1.2-1.6.8-3.1,1.5-4.6,2.5-.9.6-1.7,1.3-2.4,2-1.5,1.6-2.1,3.3-1.9,5Z"/>
        </g>
        <g class="cls-3">
          <path class="cls-2" d="M239.3,123.7c13.7,1.1,27.1,4.4,40,9.1,12.5,5,26.4,11.1,33.7,23-20.9-17.5-48.7-22.4-73.8-32.2h0Z"/>
        </g>
      </g>
    </g>
  </g>
</svg>