<?xml version="1.0" encoding="UTF-8"?>
<svg xmlns="http://www.w3.org/2000/svg" version="1.1" viewBox="0 0 500 500">
  <defs>
    <style>
      .cls-1 {
        fill: #008cff;
      }

      .cls-2 {
        fill: #fff;
      }

      .cls-3 {
        fill: #006db7;
      }
    </style>
  </defs>
  <!-- Generator: Adobe Illustrator 28.6.0, SVG Export Plug-In . SVG Version: 1.2.0 Build 709)  -->
  <g>
    <g id="Layer_1">
      <g>
        <g>
          <path class="cls-3" d="M426.8,250c0,97.7-79.2,176.8-176.9,176.8s-6.1,0-9.1-.3c-2.9,0-5.8-.3-8.6-.7-3.3-.3-6.6-.7-9.9-1.2-2.7-.4-5.4-.9-8-1.5-2-.3-4.1-.9-6-1.3-.3,0-.6-.2-.9-.3-1.4-.3-2.8-.8-4.1-1.1-3.3-.9-6.5-1.8-9.6-2.9-2.7-.9-5.3-1.8-7.9-2.8-2-.7-4-1.6-6-2.4-1.8-.8-3.5-1.6-5.3-2.4-2.3-1-4.6-2.2-6.8-3.4-1.9-1-3.8-2.1-5.7-3.2-.3,0-.6-.3-.9-.4-.3-.2-.7-.3-1-.6-2.4-1.5-4.9-3-7.3-4.6-1.3-.9-2.7-1.7-4-2.7-1.4-.9-2.7-1.8-4-2.8-1-.8-2.1-1.6-3.1-2.4-2.8-2.2-5.7-4.5-8.5-6.9-1.1-1-2.3-2.1-3.5-3.1-2.3-2.2-4.7-4.4-6.9-6.7-2.2-2.2-4.2-4.5-6.2-6.8-2.2-2.5-4.4-5.2-6.5-7.9-1-1.3-2-2.6-2.9-3.9-1-1.3-1.9-2.6-2.8-4-1.4-2.1-2.8-4.1-4.1-6.2-1.3-2-2.5-4-3.6-6-4.7-8-8.6-16.4-11.9-25.2-.8-1.9-1.5-3.8-2.1-5.7-.3-.4-.4-.9-.5-1.5-.9-2.8-1.7-5.4-2.5-8.2-.2-.4-.3-.8-.4-1.2-.4-1.8-.9-3.5-1.3-5.4-1.1-4.5-2-9-2.7-13.6,0-.3-.2-.7-.2-1-.4-2.8-.8-5.6-1-8.4-.3-2.5-.5-4.9-.6-7.4,0-.3,0-.6,0-.9,0-.9-.2-1.8-.2-2.7,0-2.3-.2-4.7-.2-7.1,0-97.7,79.1-176.9,176.8-176.9s176.9,79.2,176.9,176.9Z"/>
          <path class="cls-3" d="M250,430.1c-3.1,0-6.3,0-9.3-.3-2.9,0-5.9-.4-8.8-.7-3.2-.3-6.7-.7-10.1-1.2-2.7-.4-5.5-.9-8.2-1.5-1.3-.2-2.8-.6-4.2-.9l-7-1.8c-3.4-.9-6.7-1.9-9.9-3-2.6-.9-5.3-1.8-8-2.9-1.9-.7-4-1.6-6.1-2.5-1.8-.8-3.6-1.6-5.4-2.5-2.3-1-4.6-2.2-6.9-3.4-2-1.1-3.8-2.1-5.5-3.1-.6-.2-1-.5-1.3-.7-.2,0-.7-.3-1.2-.7-2.2-1.3-4.8-2.9-7.1-4.5l-1.1-.7c-1-.7-2-1.3-3-2.1-1.3-.8-2.7-1.8-4.1-2.9-1.1-.8-2.1-1.6-3.2-2.5-2.8-2.1-5.7-4.5-8.5-7l-3.5-3.2c-2.4-2.2-4.8-4.5-7-6.9-2.2-2.3-4.3-4.6-6.4-7-2.2-2.5-4.5-5.2-6.6-8-1-1.3-2-2.6-3-3.9-.9-1.1-1.7-2.2-2.5-3.4l-.9-1.4c-1.2-1.9-2.5-3.7-3.6-5.6-1.3-2-2.6-4-3.7-6.1-4.7-8.2-8.8-16.8-12.1-25.7-.8-1.9-1.5-3.9-2.1-5.8-.2-.1-.5-1-.6-1.9-.8-2.3-1.6-5-2.4-7.9l-.9-3.1c-.3-1.2-.6-2.5-.9-3.7-1.1-4.2-1.9-8.7-2.7-13.7,0-.2-.2-.8-.2-1.5-.4-2.3-.8-5.2-1-8.1-.3-2.8-.5-5-.6-7.3,0-.5-.1-1,0-1.5,0-.8-.1-1.7-.1-2.6,0-2.3-.2-4.6-.2-7.1,0-99.3,80.7-180.1,180-180.1s180.1,80.8,180.1,180.1-80.8,180-180.1,180ZM208.9,418.7l1.9.4c1.3.3,2.7.6,4,.8,2.8.6,5.4,1,8,1.5,3.2.5,6.5.9,9.7,1.2,2.9.3,5.6.6,8.5.7,3,.2,6,.3,9,.3,95.7,0,173.6-77.8,173.6-173.5s-77.9-173.6-173.6-173.6S76.4,154.3,76.4,250s0,4.7.2,7c0,.9,0,1.7.2,2.4v.6c0,0,0,.2,0,.2v.4c0,2.2.3,4.4.5,6.6.3,3.4.7,6.1,1.1,8.9l.2,1c.7,4.8,1.6,9.1,2.6,13.3.3,1.3.5,2.4.8,3.5l.9,3c.8,2.7,1.5,5.3,2.4,8l.5,1.5c.6,1.8,1.2,3.6,2,5.5,3.2,8.6,7.1,16.9,11.7,24.8,1.1,2,2.3,3.9,3.5,5.8,1.2,1.9,2.4,3.7,3.6,5.5l.5.7c1.1,1.7,1.9,2.7,2.7,3.7,1,1.4,1.9,2.6,2.9,3.9,2,2.7,4.2,5.3,6.4,7.7,2,2.3,4,4.5,6.1,6.7,2.2,2.3,4.5,4.5,6.8,6.6l3.5,3.1c2.6,2.3,5.4,4.6,8.2,6.7,1.1.9,2,1.6,3,2.3,1.4,1.1,2.6,2,3.9,2.8,1.1.8,2,1.4,2.9,2l1.1.7c2.3,1.5,4.8,3.1,7.1,4.5l1.1.7c2.5,1.4,4.3,2.4,6.1,3.3,2.4,1.3,4.6,2.4,6.8,3.4,1.8.9,3.5,1.6,5.2,2.4,1.9.8,3.8,1.7,5.8,2.3,2.7,1.1,5.2,2,7.8,2.8,3.1,1.1,6.2,2,9.4,2.9l4.1,1.1.2,3.4.7-3.2Z"/>
        </g>
        <circle class="cls-1" cx="250" cy="250" r="159"/>
        <path class="cls-2" d="M352.8,352.8h-205.7v-205.7h205.7v205.7ZM164.4,335.6h171.1v-171.1h-171.1v171.1Z"/>
      </g>
    </g>
  </g>
</svg>