<?xml version="1.0" encoding="UTF-8"?>
<svg xmlns="http://www.w3.org/2000/svg" version="1.1" viewBox="0 0 497.8 500">
  <defs>
    <style>
      .cls-1 {
        fill: #008cff;
      }

      .cls-2 {
        fill: #fff;
      }

      .cls-3 {
        fill: #006db7;
      }
    </style>
  </defs>
  <!-- Generator: Adobe Illustrator 28.6.0, SVG Export Plug-In . SVG Version: 1.2.0 Build 709)  -->
  <g>
    <g id="Layer_1">
      <g>
        <g>
          <path class="cls-3" d="M471.6,171.8v156.5c0,48.4-39.6,88-88,88h-127.7c-37.4,0-71.6-15.2-96.4-39.7-4.6-4.4-9-8.9-13.9-13l-113-93.2c-8.4-8.5-8.6-22.1-.4-30.8l118.3-114.2.4-.5c22.9-25.2,55.8-41.1,92.4-41.1h140.3c48.4,0,88,39.6,88,88.1Z"/>
          <path class="cls-3" d="M383.6,420.2h-127.7c-37.4,0-72.6-14.5-99.1-40.9l-3.4-3.3c-3.3-3.2-6.6-6.4-10.2-9.4l-113-93.2c-10.2-10.3-10.4-26.2-.8-36.5l118.5-114.4c24.7-27.3,59.4-42.7,95.5-42.7h140.3c50.7,0,91.9,41.3,91.9,92v156.5c0,50.7-41.2,91.9-91.9,91.9ZM243.3,87.6c-33.9,0-66.5,14.5-89.5,39.8l-118.9,114.9c-6.6,7.1-6.4,18.3.5,25.3l112.7,93c3.8,3.1,7.2,6.5,10.7,9.8l3.4,3.3c25.1,24.9,58.4,38.6,93.7,38.6h127.7c46.4,0,84.1-37.7,84.1-84.1v-156.5c0-46.4-37.7-84.2-84.1-84.2h-140.3Z"/>
        </g>
        <path class="cls-1" d="M365.7,394.2h-110.8c-32.4,0-62.1-13.2-83.6-34.4-4-3.9-7.8-7.8-12.1-11.2l-98-80.8c-7.3-7.3-7.4-19.1-.4-26.7l102.6-99.1.4-.5c19.8-21.8,48.4-35.6,80.1-35.6h121.6c42,0,76.3,34.4,76.3,76.4v135.7c0,42-34.4,76.3-76.3,76.3Z"/>
        <polygon class="cls-2" points="380.5 250 319.1 199.8 319.1 300.2 380.5 250"/>
      </g>
    </g>
  </g>
</svg>