<?xml version="1.0" encoding="UTF-8"?>
<svg xmlns="http://www.w3.org/2000/svg" version="1.1" xmlns:xlink="http://www.w3.org/1999/xlink" viewBox="0 0 500 500">
  <defs>
    <style>
      .cls-1 {
        fill: #141414;
      }

      .cls-2 {
        fill: #fff;
      }

      .cls-3 {
        fill: url(#linear-gradient);
      }

      .cls-4 {
        fill: #2f3135;
      }
    </style>
    <linearGradient id="linear-gradient" x1="96.1" y1="250" x2="403.9" y2="250" gradientUnits="userSpaceOnUse">
      <stop offset="0" stop-color="#a0a4af"/>
      <stop offset="0" stop-color="#8b8e97"/>
      <stop offset=".1" stop-color="#74767d"/>
      <stop offset=".2" stop-color="#616267"/>
      <stop offset=".3" stop-color="#525256"/>
      <stop offset=".4" stop-color="#48474a"/>
      <stop offset=".5" stop-color="#424143"/>
      <stop offset="1" stop-color="#414042"/>
    </linearGradient>
  </defs>
  <!-- Generator: Adobe Illustrator 28.6.0, SVG Export Plug-In . SVG Version: 1.2.0 Build 709)  -->
  <g>
    <g id="Layer_1">
      <g>
        <g>
          <path class="cls-4" d="M424.4,187.7v124.7c0,37-30.1,67-67,67h-101.8c-28.1,0-54.6-10.9-74.6-30.8l-2.7-2.6c-2.8-2.7-5.5-5.4-8.5-7.8l-89.8-74.1c-5.5-5.6-5.6-14.5-.4-20.1l94.8-91.6c18.3-20.2,44.3-31.7,71.3-31.7h111.8c36.9,0,67,30.1,67,67.1Z"/>
          <path class="cls-1" d="M357.3,114.3h-111.8c-28.8,0-56.5,12.3-76.1,34l-94.4,91.2c-7.6,8.2-7.5,20.9.6,29.1l90,74.3c2.9,2.4,5.5,4.9,8.1,7.5l2.7,2.6c21.2,21,49.2,32.6,79,32.6h101.8c40.4,0,73.3-32.9,73.3-73.3v-124.7c0-40.4-32.9-73.3-73.3-73.3ZM424.4,312.4c0,37-30.1,67-67,67h-101.8c-28.1,0-54.6-10.9-74.6-30.8l-2.7-2.6c-2.8-2.7-5.5-5.4-8.5-7.8l-89.8-74.1c-5.5-5.6-5.6-14.5-.4-20.1l94.8-91.6c18.3-20.2,44.3-31.7,71.3-31.7h111.8c36.9,0,67,30.1,67,67.1v124.7Z"/>
        </g>
        <path class="cls-3" d="M343.1,364.9h-88.3c-25.9,0-49.5-10.5-66.6-27.5-3.2-3.1-6.2-6.2-9.6-9l-78.1-64.4c-5.8-5.9-5.9-15.2-.3-21.3l81.8-79,.3-.4c15.8-17.4,38.6-28.4,63.9-28.4h96.9c33.4,0,60.8,27.4,60.8,60.9v108.1c0,33.4-27.4,60.8-60.8,60.8Z"/>
        <polygon class="cls-2" points="354.9 250 305.9 210 305.9 290 354.9 250"/>
      </g>
    </g>
  </g>
</svg>