<?xml version="1.0" encoding="UTF-8"?>
<svg xmlns="http://www.w3.org/2000/svg" version="1.1" viewBox="0 0 500 500">
  <defs>
    <style>
      .cls-1 {
        fill: #008cff;
      }
    </style>
  </defs>
  <!-- Generator: Adobe Illustrator 28.6.0, SVG Export Plug-In . SVG Version: 1.2.0 Build 709)  -->
  <g>
    <g id="Layer_1">
      <g>
        <path d="M475.2,455.6c-138.6,24.9-356.8,19.8-426,17.4-12.1-.4-21.6-10.6-21.3-22.7l1-41.9c50.2,7.9,127.1,12.5,228.8,12.5,102.3,0,222.6-24.5,222.6-24.5,3.4,17.9,5.6,32.5,7,42.4,1.1,8-4.2,15.5-12.1,16.9Z"/>
        <path class="cls-1" d="M480.3,396.3s-120.3,24.6-222.6,24.5c-101.7,0-178.6-4.6-228.8-12.5l3.3-133.4c.3-12.6.3-25.3.3-38,0-22.8,4.7-81.1,46.5-139.1C132.5,23.6,211.8,25.5,211.8,25.5c103.9-9.3,163,94.1,163,94.1,61.6,84.1,92.2,206.1,105.5,276.8Z"/>
        <g>
          <path d="M116.2,345.3c1.8-2.8,2.7-6.1,2.7-10s-.9-7.1-2.7-10c-1.8-2.8-4.3-5-7.7-6.5-3.3-1.5-7.3-2.2-11.8-2.2h-21.1c-.9,0-1.7.7-1.7,1.7v47.9c0,.6.5,1.1,1.1,1.1h11.9c.6,0,1.1-.5,1.1-1.1v-12.4h6.7c.6,0,1.1.3,1.5.8l8.3,12.4c.1.2.4.3.6.3h13.2c.6,0,1-.7.6-1.2l-9.6-14.3c-.2-.3,0-.7.2-.8,2.8-1.4,5-3.3,6.5-5.7ZM102.5,329.9c1.5,1.3,2.2,3.1,2.2,5.4s-.7,4.2-2.2,5.5c-1.5,1.3-3.7,2-6.6,2h-7.8v-14.9h7.8c2.9,0,5.2.7,6.6,2Z"/>
          <path d="M154.1,355.9l9.4-8.8c2.4-2.2,4.2-4.2,5.4-6,1.2-1.8,2-3.5,2.5-5.2.4-1.6.6-3.3.6-4.9,0-3.2-.8-5.9-2.5-8.2-1.6-2.3-3.9-4-6.8-5.3-2.9-1.3-6.3-1.9-10.1-1.9s-9.1,1-12.6,2.9c-2,1.1-3.7,2.4-5.2,3.9s-1.1,4.7,1,5.9l6.7,3.7c1-1.6,2.3-2.8,3.8-3.6s3.2-1.2,5-1.2,3.7.5,4.8,1.4c1.1.9,1.6,2.2,1.6,3.8s-.1,1.5-.3,2.2c-.2.8-.6,1.7-1.3,2.6-.6,1-1.6,2.1-3,3.4l-18.2,17.3c-.3.3-.4.6-.4,1v7.1c0,.8.6,1.4,1.4,1.4h36c.8,0,1.4-.6,1.4-1.4v-8.6c0-.8-.6-1.4-1.4-1.4h-17.9Z"/>
        </g>
      </g>
    </g>
  </g>
</svg>