<?xml version="1.0" encoding="UTF-8"?>
<svg xmlns="http://www.w3.org/2000/svg" version="1.1" viewBox="0 0 500 500">
  <defs>
    <style>
      .cls-1 {
        fill: #2b2b2b;
      }
    </style>
  </defs>
  <!-- Generator: Adobe Illustrator 28.6.0, SVG Export Plug-In . SVG Version: 1.2.0 Build 709)  -->
  <g>
    <g id="Layer_1">
      <g>
        <path d="M411.4,402.6c-102.9,18.5-264.7,14.7-316.1,12.9-9-.3-16-7.8-15.8-16.8l.8-31.1c37.3,5.9,94.3,9.3,169.8,9.3,75.9,0,165.1-18.2,165.1-18.2,2.5,13.3,4.2,24.1,5.2,31.5.8,6-3.1,11.5-9,12.5Z"/>
        <path class="cls-1" d="M415.2,358.6s-89.3,18.2-165.1,18.2c-75.5,0-132.5-3.4-169.8-9.3l2.5-99c.3-9.4.3-18.8.3-28.2,0-16.9,3.5-60.2,34.5-103.2,39.7-55.1,98.6-53.7,98.6-53.7,77.1-6.9,120.9,69.8,120.9,69.8,45.7,62.4,68.4,152.9,78.3,205.4Z"/>
        <g>
          <path d="M145.1,320.7c1.3-2,2-4.5,2-7.4s-.7-5.3-2-7.4c-1.3-2.1-3.2-3.7-5.7-4.8-2.5-1.1-5.4-1.7-8.8-1.7h-15.6c-.7,0-1.2.5-1.2,1.2v35.6c0,.5.4.8.8.8h8.8c.5,0,.8-.4.8-.8v-9.2h5c.4,0,.8.2,1.1.6l6.2,9.2c.1.2.3.3.5.3h9.8c.5,0,.7-.5.5-.9l-7.1-10.6c-.1-.2,0-.5.2-.6,2-1.1,3.7-2.5,4.9-4.2ZM134.9,309.3c1.1,1,1.6,2.3,1.6,4s-.5,3.1-1.6,4.1c-1.1,1-2.7,1.5-4.9,1.5h-5.8v-11h5.8c2.2,0,3.8.5,4.9,1.5Z"/>
          <path d="M173.2,328.6l6.9-6.6c1.8-1.6,3.1-3.1,4-4.5.9-1.3,1.5-2.6,1.8-3.8.3-1.2.5-2.4.5-3.6,0-2.4-.6-4.4-1.8-6.1-1.2-1.7-2.9-3-5-4-2.1-.9-4.6-1.4-7.5-1.4s-6.7.7-9.4,2.1c-1.5.8-2.8,1.8-3.8,2.9s-.8,3.5.7,4.4l4.9,2.8c.7-1.2,1.7-2.1,2.8-2.7s2.4-.9,3.7-.9,2.8.3,3.6,1c.8.7,1.2,1.6,1.2,2.8s0,1.1-.2,1.7c-.2.6-.5,1.2-.9,2-.5.7-1.2,1.6-2.2,2.5l-13.5,12.8c-.2.2-.3.5-.3.7v5.3c0,.6.5,1,1,1h26.7c.6,0,1-.5,1-1v-6.4c0-.6-.5-1-1-1h-13.3Z"/>
        </g>
      </g>
    </g>
  </g>
</svg>