<?xml version="1.0" encoding="UTF-8"?>
<svg xmlns="http://www.w3.org/2000/svg" version="1.1" viewBox="0 0 500 500">
  <defs>
    <style>
      .cls-1 {
        fill: #008cff;
      }

      .cls-2 {
        fill: #006db7;
      }
    </style>
  </defs>
  <!-- Generator: Adobe Illustrator 28.6.0, SVG Export Plug-In . SVG Version: 1.2.0 Build 709)  -->
  <g>
    <g id="Layer_1">
      <g>
        <path class="cls-1" d="M353.1,404.2c-7.8,11.4-17.5,20.9-28.7,28.2-11.2,7.3-23.7,12.4-37.2,14.9-55.9,10.6-109.8-26.3-120.4-82.2l-36.1-192.5c-1.2-6.1-1.8-12.5-1.8-19.1,0-49.4,35.3-92,84-101.1,6.4-1.2,12.9-1.8,19.2-1.8,48.5,0,91.8,34.5,101.2,84l36.1,192.3c5.1,27-.7,54.4-16.3,77.2Z"/>
        <path class="cls-2" d="M380.4,324.9l-36.1-192.3c-11.8-62-71.6-102.8-133.6-91.2-54,10.1-93.2,57.3-93.2,112.2s.7,14.4,2.1,21.2l36.1,192.4c10.4,54.8,58.5,93.2,112.3,93.2s14.1-.6,21.2-2c29.9-5.6,55.8-22.6,73.1-47.9,17.3-25.3,23.7-55.8,18.1-85.7ZM324.4,432.5c-11.2,7.3-23.7,12.4-37.2,14.9-55.9,10.6-109.8-26.3-120.4-82.2l-36.1-192.5c-1.2-6.1-1.8-12.5-1.8-19.1,0-49.4,35.3-92,84-101.1,6.4-1.2,12.9-1.8,19.2-1.8,48.5,0,91.8,34.5,101.2,84l36.1,192.3c5.1,27-.7,54.4-16.3,77.2-7.8,11.4-17.5,20.9-28.7,28.2Z"/>
      </g>
    </g>
  </g>
</svg>