<?xml version="1.0" encoding="UTF-8"?>
<svg xmlns="http://www.w3.org/2000/svg" version="1.1" viewBox="0 0 497.8 499.4">
  <defs>
    <style>
      .cls-1 {
        fill: #a0a4af;
      }
    </style>
  </defs>
  <!-- Generator: Adobe Illustrator 28.6.0, SVG Export Plug-In . SVG Version: 1.2.0 Build 709)  -->
  <g>
    <g id="Layer_1">
      <g>
        <path class="cls-1" d="M333.5,376.2c-6.4,9.4-14.4,17.2-23.5,23.2-9.2,6-19.5,10.2-30.5,12.2-45.9,8.7-90.1-21.6-98.8-67.4l-29.6-157.9c-1-5-1.5-10.3-1.5-15.6,0-40.6,29-75.5,68.9-83,5.3-1,10.5-1.5,15.7-1.5,39.8,0,75.3,28.3,83,68.9l29.6,157.7c4.2,22.1-.6,44.6-13.4,63.3Z"/>
        <path d="M355.9,311.2l-29.6-157.7c-9.6-50.9-58.7-84.4-109.6-74.8-44.3,8.3-76.5,47-76.5,92.1s.6,11.8,1.7,17.4l29.6,157.9c8.5,45,48,76.4,92.1,76.4s5.8-.1,8.7-.4,5.8-.7,8.8-1.2c24.5-4.6,45.8-18.5,60-39.3,14.2-20.8,19.5-45.7,14.8-70.3ZM309.9,399.4c-9.2,6-19.5,10.2-30.5,12.2-45.9,8.7-90.1-21.6-98.8-67.4l-29.6-157.9c-1-5-1.5-10.3-1.5-15.6,0-40.6,29-75.5,68.9-83,5.3-1,10.5-1.5,15.7-1.5,39.8,0,75.3,28.3,83,68.9l29.6,157.7c4.2,22.1-.6,44.6-13.4,63.3-6.4,9.4-14.4,17.2-23.5,23.2Z"/>
      </g>
    </g>
  </g>
</svg>