<?xml version="1.0" encoding="UTF-8"?>
<svg xmlns="http://www.w3.org/2000/svg" version="1.1" viewBox="0 0 500 499.4">
  <defs>
    <style>
      .cls-1 {
        fill: #008cff;
      }

      .cls-2 {
        fill: #006db7;
      }
    </style>
  </defs>
  <!-- Generator: Adobe Illustrator 28.6.0, SVG Export Plug-In . SVG Version: 1.2.0 Build 709)  -->
  <g>
    <g id="Layer_1">
      <g>
        <path class="cls-1" d="M358.3,133.5c0,6.5-.6,12.9-1.9,19.1l-36.1,192.4c-10.6,55.9-64.6,92.8-120.4,82.2-26.9-5-50.3-20.4-65.9-43.2-15.6-22.8-21.4-50.2-16.3-77.2l36.1-192.3c9.4-49.4,52.7-84,101.2-84s12.7.6,19.2,1.8c48.7,9.1,84,51.7,84,101.1Z"/>
        <path class="cls-2" d="M276.4,21.3c-62-11.8-121.8,29.2-133.6,91.2l-36.1,192.3c-5.7,29.9.7,60.4,18,85.7,17.3,25.3,43.2,42.3,73.1,47.9,7.1,1.3,14.2,2,21.3,2,53.8,0,101.9-38.3,112.3-93.2l36.1-192.4c1.4-6.8,2-14,2-21.3,0-54.9-39.2-102.1-93.2-112.2ZM356.5,152.7l-36.1,192.4c-10.6,55.9-64.6,92.8-120.4,82.2-26.9-5-50.3-20.4-65.9-43.2-15.6-22.8-21.4-50.2-16.3-77.2l36.1-192.3c9.4-49.4,52.7-84,101.2-84s12.7.6,19.2,1.8c48.7,9.1,84,51.7,84,101.1s-.6,12.9-1.9,19.1Z"/>
      </g>
    </g>
  </g>
</svg>