<?xml version="1.0" encoding="UTF-8"?>
<svg xmlns="http://www.w3.org/2000/svg" version="1.1" xmlns:xlink="http://www.w3.org/1999/xlink" viewBox="0 0 500 500">
  <defs>
    <style>
      .cls-1 {
        fill: #545557;
      }

      .cls-2 {
        fill: #1f1f20;
      }

      .cls-3 {
        fill: #353536;
      }

      .cls-4 {
        fill: #252525;
      }

      .cls-5 {
        fill: #444546;
      }

      .cls-6 {
        fill: #2c2c2c;
      }

      .cls-7 {
        fill: #141414;
      }

      .cls-8 {
        fill: #262727;
      }

      .cls-9 {
        fill: #333334;
      }

      .cls-10 {
        fill: #2d2d2e;
      }

      .cls-11 {
        fill: #424244;
      }

      .cls-12 {
        fill: #4a4b4c;
      }

      .cls-13 {
        fill: #1e1e1e;
      }

      .cls-14 {
        fill: #303031;
      }

      .cls-15 {
        fill: #262626;
      }

      .cls-16 {
        fill: none;
      }

      .cls-17 {
        fill: #3f4041;
      }

      .cls-18 {
        fill: #313232;
      }

      .cls-19 {
        fill: #202021;
      }

      .cls-20 {
        fill: #39393a;
      }

      .cls-21 {
        fill: #1f1f1f;
      }

      .cls-22 {
        fill: #6d6e71;
      }

      .cls-23 {
        fill: #202020;
      }

      .cls-24 {
        fill: #212121;
      }

      .cls-25 {
        fill: #2e2e2f;
      }

      .cls-26 {
        fill: #222;
      }

      .cls-27 {
        fill: #282829;
      }

      .cls-28 {
        fill: #606063;
      }

      .cls-29 {
        fill: #1d1d1d;
      }

      .cls-30 {
        fill: #4d4e50;
      }

      .cls-31 {
        fill: #646567;
      }

      .cls-32 {
        fill: #272728;
      }

      .cls-33 {
        fill: #232424;
      }

      .cls-34 {
        fill: #232323;
      }

      .cls-35 {
        fill: #222223;
      }

      .cls-36 {
        fill: #3b3b3c;
      }

      .cls-37 {
        fill: #58585b;
      }

      .cls-38 {
        fill: #373738;
      }

      .cls-39 {
        fill: #2a2b2b;
      }

      .cls-40 {
        fill: #474849;
      }

      .cls-41 {
        fill: #515153;
      }

      .cls-42 {
        fill: #242424;
      }

      .cls-43 {
        fill: #3d3d3e;
      }

      .cls-44 {
        clip-path: url(#clippath);
      }

      .cls-45 {
        fill: #68696c;
      }

      .cls-46 {
        fill: #29292a;
      }

      .cls-47 {
        fill: #5c5c5f;
      }

      .cls-48 {
        fill: #1e1e1f;
      }
    </style>
    <clipPath id="clippath">
      <path class="cls-16" d="M460.1,170.1c0,.5-.1,1.1-.2,1.7-2.8,19.6-23.9,108.2-31.3,138.6-1.5,6.4-2.5,10.2-2.5,10.2,0,0-4.5,16.6-19.5,27.8-3,2.2-6.3,4.2-10.2,5.9-6,2.5-12.5,3.6-19.1,3.6H122.5c-6.5,0-13.1-1.1-19.1-3.6-3.8-1.6-7.1-3.6-10.1-5.8-15-11.2-19.6-27.9-19.6-27.9,0,0-1.3-5.5-3.5-14.4-8.1-33.7-27.7-116.2-30.3-134.6,0-.6-.1-1.1-.2-1.6-.5-5.2.6-9,2.6-11.8,4.8-6.9,14.6-7.2,14.6-7.2,86.1-9.7,191.7-9,191.7-9h2.5s105.7-.7,191.7,9c0,0,10.9.3,15.4,8.5,1.4,2.6,2.2,6,1.7,10.5Z"/>
    </clipPath>
  </defs>
  <!-- Generator: Adobe Illustrator 28.6.0, SVG Export Plug-In . SVG Version: 1.2.0 Build 709)  -->
  <g>
    <g id="Layer_1">
      <g>
        <g class="cls-44">
          <polygon class="cls-22" points="460.5 146.5 217 141.4 460.5 141.4 460.5 146.5"/>
          <polygon class="cls-22" points="460.5 149 95.6 141.4 217 141.4 460.5 146.5 460.5 149"/>
          <polygon class="cls-45" points="460.5 151.5 39.4 142.7 39.4 141.4 95.6 141.4 460.5 149 460.5 151.5"/>
          <polygon class="cls-31" points="460.5 154 39.4 145.3 39.4 142.7 460.5 151.5 460.5 154"/>
          <polygon class="cls-28" points="460.5 156.6 39.4 147.8 39.4 145.3 460.5 154 460.5 156.6"/>
          <polygon class="cls-47" points="460.5 159.1 39.4 150.3 39.4 147.8 460.5 156.6 460.5 159.1"/>
          <polygon class="cls-37" points="460.5 161.6 39.4 152.9 39.4 150.3 460.5 159.1 460.5 161.6"/>
          <polygon class="cls-1" points="460.5 164.2 39.4 155.4 39.4 152.9 460.5 161.6 460.5 164.2"/>
          <polygon class="cls-41" points="460.5 166.7 39.4 157.9 39.4 155.4 460.5 164.2 460.5 166.7"/>
          <polygon class="cls-30" points="460.5 169.2 39.4 160.4 39.4 157.9 460.5 166.7 460.5 169.2"/>
          <polygon class="cls-12" points="460.5 171.8 39.4 163 39.4 160.4 460.5 169.2 460.5 171.8"/>
          <polygon class="cls-40" points="460.5 174.3 39.4 165.5 39.4 163 460.5 171.8 460.5 174.3"/>
          <polygon class="cls-5" points="460.5 176.8 39.4 168 39.4 165.5 460.5 174.3 460.5 176.8"/>
          <polygon class="cls-11" points="460.5 179.3 39.4 170.6 39.4 168 460.5 176.8 460.5 179.3"/>
          <polygon class="cls-17" points="460.5 181.9 39.4 173.1 39.4 170.6 460.5 179.3 460.5 181.9"/>
          <polygon class="cls-43" points="460.5 184.4 39.4 175.6 39.4 173.1 460.5 181.9 460.5 184.4"/>
          <polygon class="cls-36" points="460.5 186.9 39.4 178.2 39.4 175.6 460.5 184.4 460.5 186.9"/>
          <polygon class="cls-20" points="460.5 189.5 39.4 180.7 39.4 178.2 460.5 186.9 460.5 189.5"/>
          <polygon class="cls-38" points="460.5 192 39.4 183.2 39.4 180.7 460.5 189.5 460.5 192"/>
          <polygon class="cls-3" points="460.5 194.5 39.4 185.7 39.4 183.2 460.5 192 460.5 194.5"/>
          <polygon class="cls-9" points="460.5 197.1 39.4 188.3 39.4 185.7 460.5 194.5 460.5 197.1"/>
          <polygon class="cls-18" points="460.5 199.6 39.4 190.8 39.4 188.3 460.5 197.1 460.5 199.6"/>
          <polygon class="cls-14" points="460.5 202.1 39.4 193.3 39.4 190.8 460.5 199.6 460.5 202.1"/>
          <polygon class="cls-25" points="460.5 204.6 39.4 195.9 39.4 193.3 460.5 202.1 460.5 204.6"/>
          <polygon class="cls-10" points="460.5 207.2 39.4 198.4 39.4 195.9 460.5 204.6 460.5 207.2"/>
          <polygon class="cls-6" points="460.5 209.7 39.4 200.9 39.4 198.4 460.5 207.2 460.5 209.7"/>
          <polygon class="cls-39" points="460.5 212.2 39.4 203.5 39.4 200.9 460.5 209.7 460.5 212.2"/>
          <polygon class="cls-46" points="460.5 214.8 39.4 206 39.4 203.5 460.5 212.2 460.5 214.8"/>
          <polygon class="cls-27" points="460.5 217.3 39.4 208.5 39.4 206 460.5 214.8 460.5 217.3"/>
          <polygon class="cls-32" points="460.5 219.8 39.4 211 39.4 208.5 460.5 217.3 460.5 219.8"/>
          <polygon class="cls-8" points="460.5 222.4 39.4 213.6 39.4 211 460.5 219.8 460.5 222.4"/>
          <polygon class="cls-15" points="460.5 224.9 39.4 216.1 39.4 213.6 460.5 222.4 460.5 224.9"/>
          <polygon class="cls-4" points="460.5 227.4 39.4 218.6 39.4 216.1 460.5 224.9 460.5 227.4"/>
          <polygon class="cls-42" points="460.5 229.9 39.4 221.2 39.4 218.6 460.5 227.4 460.5 229.9"/>
          <polygon class="cls-33" points="460.5 232.5 39.4 223.7 39.4 221.2 460.5 229.9 460.5 232.5"/>
          <polygon class="cls-34" points="460.5 235 39.4 226.2 39.4 223.7 460.5 232.5 460.5 235"/>
          <polygon class="cls-35" points="460.5 237.5 39.4 228.8 39.4 226.2 460.5 235 460.5 237.5"/>
          <polygon class="cls-26" points="460.5 240.1 39.4 231.3 39.4 228.8 460.5 237.5 460.5 240.1"/>
          <polygon class="cls-24" points="460.5 242.6 39.4 233.8 39.4 231.3 460.5 240.1 460.5 242.6"/>
          <polygon class="cls-24" points="460.5 245.1 39.4 236.3 39.4 233.8 460.5 242.6 460.5 245.1"/>
          <polygon class="cls-19" points="460.5 247.6 39.4 238.9 39.4 236.3 460.5 245.1 460.5 247.6"/>
          <polygon class="cls-23" points="460.5 250.2 39.4 241.4 39.4 238.9 460.5 247.6 460.5 250.2"/>
          <polygon class="cls-23" points="460.5 252.7 39.4 243.9 39.4 241.4 460.5 250.2 460.5 252.7"/>
          <polygon class="cls-2" points="460.5 255.2 39.4 246.5 39.4 243.9 460.5 252.7 460.5 255.2"/>
          <polygon class="cls-21" points="460.5 257.8 39.4 249 39.4 246.5 460.5 255.2 460.5 257.8"/>
          <polygon class="cls-21" points="460.5 260.3 39.4 251.5 39.4 249 460.5 257.8 460.5 260.3"/>
          <polygon class="cls-21" points="460.5 262.8 39.4 254.1 39.4 251.5 460.5 260.3 460.5 262.8"/>
          <polygon class="cls-48" points="460.5 265.4 39.4 256.6 39.4 254.1 460.5 262.8 460.5 265.4"/>
          <polygon class="cls-13" points="460.5 267.9 39.4 259.1 39.4 256.6 460.5 265.4 460.5 267.9"/>
          <polygon class="cls-13" points="460.5 270.4 39.4 261.6 39.4 259.1 460.5 267.9 460.5 270.4"/>
          <polygon class="cls-13" points="460.5 272.9 39.4 264.2 39.4 261.6 460.5 270.4 460.5 272.9"/>
          <polygon class="cls-13" points="460.5 275.5 39.4 266.7 39.4 264.2 460.5 272.9 460.5 275.5"/>
          <polygon class="cls-13" points="460.5 278 39.4 269.2 39.4 266.7 460.5 275.5 460.5 278"/>
          <polygon class="cls-13" points="460.5 280.5 39.4 271.8 39.4 269.2 460.5 278 460.5 280.5"/>
          <polygon class="cls-13" points="460.5 283.1 39.4 274.3 39.4 271.8 460.5 280.5 460.5 283.1"/>
          <polygon class="cls-29" points="460.5 285.6 39.4 276.8 39.4 274.3 460.5 283.1 460.5 285.6"/>
          <polygon class="cls-29" points="460.5 288.1 39.4 279.3 39.4 276.8 460.5 285.6 460.5 288.1"/>
          <polygon class="cls-29" points="460.5 290.7 39.4 281.9 39.4 279.3 460.5 288.1 460.5 290.7"/>
          <polygon class="cls-29" points="460.5 293.2 39.4 284.4 39.4 281.9 460.5 290.7 460.5 293.2"/>
          <polygon class="cls-29" points="460.5 295.7 39.4 286.9 39.4 284.4 460.5 293.2 460.5 295.7"/>
          <polygon class="cls-29" points="460.5 298.2 39.4 289.5 39.4 286.9 460.5 295.7 460.5 298.2"/>
          <polygon class="cls-29" points="460.5 300.8 39.4 292 39.4 289.5 460.5 298.2 460.5 300.8"/>
          <polygon class="cls-29" points="460.5 303.3 39.4 294.5 39.4 292 460.5 300.8 460.5 303.3"/>
          <polygon class="cls-29" points="460.5 305.8 39.4 297.1 39.4 294.5 460.5 303.3 460.5 305.8"/>
          <polygon class="cls-29" points="460.5 308.4 39.4 299.6 39.4 297.1 460.5 305.8 460.5 308.4"/>
          <polygon class="cls-29" points="460.5 310.9 39.4 302.1 39.4 299.6 460.5 308.4 460.5 310.9"/>
          <polygon class="cls-29" points="460.5 313.4 39.4 304.6 39.4 302.1 460.5 310.9 460.5 313.4"/>
          <polygon class="cls-29" points="460.5 316 39.4 307.2 39.4 304.6 460.5 313.4 460.5 316"/>
          <polygon class="cls-29" points="460.5 318.3 460.5 318.5 39.4 309.7 39.4 307.2 460.5 316 460.5 318.3"/>
          <polygon class="cls-29" points="460.5 318.5 460.5 321 39.4 312.2 39.4 309.7 460.5 318.5"/>
          <polygon class="cls-29" points="460.5 321 460.4 323.5 39.4 314.8 39.4 312.2 460.5 321"/>
          <polygon class="cls-29" points="460.4 323.5 460.4 326.1 39.4 317.3 39.4 314.8 460.4 323.5"/>
          <polygon class="cls-29" points="460.4 326.1 460.3 328.6 39.4 319.8 39.4 317.3 460.4 326.1"/>
          <polygon class="cls-29" points="460.3 328.6 460.3 331.1 39.4 322.4 39.4 319.8 460.3 328.6"/>
          <polygon class="cls-29" points="460.3 331.1 460.2 333.7 39.4 324.9 39.4 322.4 460.3 331.1"/>
          <polygon class="cls-29" points="460.2 333.7 460.2 336.2 39.4 327.4 39.4 324.9 460.2 333.7"/>
          <polygon class="cls-29" points="460.2 336.2 460.1 338.7 39.4 329.9 39.4 327.4 460.2 336.2"/>
          <polygon class="cls-29" points="460.1 338.7 460.1 341.2 39.4 332.5 39.4 329.9 460.1 338.7"/>
          <polygon class="cls-29" points="460.1 341.2 460 343.8 39.4 335 39.4 332.5 460.1 341.2"/>
          <polygon class="cls-29" points="460 343.8 460 346.3 39.4 337.5 39.4 335 460 343.8"/>
          <polygon class="cls-29" points="460 346.3 459.9 348.8 39.4 340.1 39.4 337.5 460 346.3"/>
          <polygon class="cls-29" points="459.9 348.8 459.8 351.4 39.4 342.6 39.4 340.1 459.9 348.8"/>
          <polygon class="cls-29" points="459.8 351.4 459.8 353.9 39.4 345.1 39.4 342.6 459.8 351.4"/>
          <polygon class="cls-29" points="459.8 353.9 459.7 356.4 39.4 347.7 39.4 345.1 459.8 353.9"/>
          <polygon class="cls-29" points="459.7 356.4 459.7 357.9 411.1 357.9 39.4 350.2 39.4 347.7 459.7 356.4"/>
          <polygon class="cls-29" points="39.4 350.2 411.1 357.9 39.4 357.9 39.4 350.2"/>
        </g>
        <path class="cls-7" d="M459,159.2c-4.6-8.5-15.6-8.9-16-8.9-85.1-9.6-190.8-9-191.8-9h-2.5c-1.1,0-106.7-.6-191.7,9-.4,0-10.2.4-15.2,7.5-2.3,3.2-3.2,7.4-2.7,12.3,0,.4.1,1,.2,1.6,2.6,19.1,23.9,107.9,30.3,134.7,2.1,8.9,3.5,14.4,3.5,14.4,0,.2,4.8,17.1,19.8,28.3,3.2,2.4,6.6,4.4,10.2,5.9,5.8,2.5,12.3,3.7,19.4,3.7h254.9c7.1,0,13.6-1.2,19.4-3.7,3.7-1.5,7.2-3.5,10.3-5.9,15-11.2,19.7-28.1,19.8-28.2,0,0,.9-3.8,2.5-10.2,4.7-19.5,28.4-118,31.3-138.7v-.6c.1-.4.2-.8.2-1.2.4-4.2-.2-7.9-1.8-10.9ZM459.3,170h0c0,.3,0,.7-.1,1.2v.5c-3,20.6-26.6,119-31.3,138.5-1.5,6.4-2.5,10.2-2.5,10.2,0,.2-4.6,16.5-19.2,27.4-3.1,2.3-6.4,4.3-10,5.8-5.6,2.4-11.9,3.6-18.8,3.6H122.5c-6.8,0-13.1-1.2-18.8-3.6-3.5-1.5-6.8-3.4-9.9-5.7-14.6-10.9-19.2-27.3-19.3-27.4,0,0-1.3-5.5-3.5-14.4-6.4-26.7-27.6-115.5-30.3-134.5,0-.6-.1-1.1-.2-1.5-.5-4.5.4-8.3,2.4-11.2,4.5-6.5,13.8-6.9,14-6.9,75.5-8.5,167.1-9,187.5-9s4,0,4.1,0h2.5c1.1,0,106.6-.6,191.7,9,.1,0,10.5.4,14.7,8.1,1.5,2.7,2,6.1,1.7,10Z"/>
      </g>
    </g>
  </g>
</svg>