<?xml version="1.0" encoding="UTF-8"?>
<svg xmlns="http://www.w3.org/2000/svg" version="1.1" viewBox="0 0 500 500">
  <defs>
    <style>
      .cls-1 {
        fill: #008cff;
      }

      .cls-2 {
        fill: #fff;
      }

      .cls-3 {
        fill: #006db7;
      }
    </style>
  </defs>
  <!-- Generator: Adobe Illustrator 28.6.0, SVG Export Plug-In . SVG Version: 1.2.0 Build 709)  -->
  <g>
    <g id="Layer_1">
      <g id="Layer_1-2" data-name="Layer_1">
        <g>
          <g>
            <path class="cls-3" d="M406.3,250c0,86.2-70.1,156.3-156.3,156.3s-156.4-70.1-156.4-156.3S163.8,93.7,250,93.7s156.3,70.2,156.3,156.4h0Z"/>
            <path class="cls-3" d="M250,87.8c-89.5,0-162.2,72.8-162.2,162.2s72.8,162.1,162.2,162.1,162.1-72.7,162.1-162.1-72.7-162.2-162.1-162.2ZM250,406.3c-86.2,0-156.4-70.1-156.4-156.3S163.8,93.7,250,93.7s156.3,70.2,156.3,156.4-70.1,156.3-156.3,156.3h0Z"/>
          </g>
          <circle class="cls-1" cx="250" cy="250" r="143.2"/>
          <path class="cls-2" d="M364,317.2h-228l114-197.5,114,197.5ZM162.9,301.6h174.1l-87.1-150.8-87.1,150.8h.1Z"/>
        </g>
      </g>
    </g>
  </g>
</svg>