<?xml version="1.0" encoding="UTF-8"?>
<svg xmlns="http://www.w3.org/2000/svg" version="1.1" viewBox="0 0 500 500">
  <defs>
    <style>
      .cls-1 {
        fill: #008cff;
      }

      .cls-2 {
        fill: #fff;
      }

      .cls-3 {
        fill: #006db7;
      }
    </style>
  </defs>
  <!-- Generator: Adobe Illustrator 28.6.0, SVG Export Plug-In . SVG Version: 1.2.0 Build 709)  -->
  <g>
    <g id="Layer_1">
      <g>
        <g>
          <path class="cls-3" d="M426.8,250c0,97.7-79.1,176.8-176.8,176.8s-176.9-79.1-176.9-176.8S152.4,73.2,250,73.2s176.8,79.2,176.8,176.9Z"/>
          <path class="cls-3" d="M250,430.1c-99.3,0-180.1-80.8-180.1-180S150.7,69.9,250,69.9s180,80.8,180,180.1-80.7,180-180,180ZM250,76.4c-95.7,0-173.6,77.9-173.6,173.6s77.9,173.5,173.6,173.5,173.5-77.8,173.5-173.5-77.8-173.6-173.5-173.6Z"/>
        </g>
        <circle class="cls-1" cx="250" cy="250" r="159"/>
        <path class="cls-2" d="M376.6,324.6H123.4l126.6-219.2,126.6,219.2ZM153.3,307.3h193.3l-96.7-167.4-96.7,167.4Z"/>
      </g>
    </g>
  </g>
</svg>