<?xml version="1.0" encoding="UTF-8"?>
<svg xmlns="http://www.w3.org/2000/svg" version="1.1" xmlns:xlink="http://www.w3.org/1999/xlink" viewBox="0 0 500 500">
  <defs>
    <style>
      .cls-1 {
        fill: #141414;
      }

      .cls-2 {
        fill: url(#linear-gradient);
      }

      .cls-3 {
        fill: #2f3135;
      }

      .cls-4 {
        fill: #24cab3;
      }
    </style>
    <linearGradient id="linear-gradient" x1="250" y1="106.8" x2="250" y2="393.2" gradientUnits="userSpaceOnUse">
      <stop offset="0" stop-color="#a0a4af"/>
      <stop offset="0" stop-color="#8b8e97"/>
      <stop offset=".1" stop-color="#74767d"/>
      <stop offset=".2" stop-color="#616267"/>
      <stop offset=".3" stop-color="#525256"/>
      <stop offset=".4" stop-color="#48474a"/>
      <stop offset=".6" stop-color="#424143"/>
      <stop offset="1" stop-color="#414042"/>
    </linearGradient>
  </defs>
  <!-- Generator: Adobe Illustrator 28.6.0, SVG Export Plug-In . SVG Version: 1.2.0 Build 709)  -->
  <g>
    <g id="Layer_1">
      <g>
        <g>
          <path class="cls-3" d="M406.3,250c0,86.2-70.1,156.3-156.3,156.3s-156.4-70.1-156.4-156.3S163.8,93.7,250,93.7s156.3,70.2,156.3,156.4Z"/>
          <path class="cls-1" d="M250,87.8c-89.5,0-162.2,72.8-162.2,162.2s72.8,162.1,162.2,162.1,162.1-72.7,162.1-162.1-72.7-162.2-162.1-162.2ZM250,406.3c-86.2,0-156.4-70.1-156.4-156.3S163.8,93.7,250,93.7s156.3,70.2,156.3,156.4-70.1,156.3-156.3,156.3Z"/>
        </g>
        <circle class="cls-2" cx="250" cy="250" r="143.2"/>
        <path class="cls-4" d="M364,317.2h-228l114-197.5,114,197.5ZM162.9,301.6h174.1l-87.1-150.8-87.1,150.8Z"/>
      </g>
    </g>
  </g>
</svg>