<?xml version="1.0" encoding="UTF-8"?>
<svg xmlns="http://www.w3.org/2000/svg" version="1.1" xmlns:xlink="http://www.w3.org/1999/xlink" viewBox="0 0 500 500">
  <defs>
    <style>
      .cls-1 {
        fill: #141414;
      }

      .cls-2 {
        fill: #fff;
      }

      .cls-3 {
        fill: url(#linear-gradient);
      }

      .cls-4 {
        fill: #2f3135;
      }
    </style>
    <linearGradient id="linear-gradient" x1="135.1" y1="244.3" x2="364.9" y2="244.3" gradientUnits="userSpaceOnUse">
      <stop offset="0" stop-color="#a0a4af"/>
      <stop offset="0" stop-color="#8b8e97"/>
      <stop offset=".1" stop-color="#74767d"/>
      <stop offset=".2" stop-color="#616267"/>
      <stop offset=".3" stop-color="#525256"/>
      <stop offset=".4" stop-color="#48474a"/>
      <stop offset=".5" stop-color="#424143"/>
      <stop offset="1" stop-color="#414042"/>
    </linearGradient>
  </defs>
  <!-- Generator: Adobe Illustrator 28.6.0, SVG Export Plug-In . SVG Version: 1.2.0 Build 709)  -->
  <g>
    <g id="Layer_1">
      <g>
        <g>
          <path class="cls-4" d="M379.4,142.7v101.8c0,28-10.9,54.5-30.8,74.6l-1.8,1.8c-3,3-6,6.1-8.7,9.5l-74.1,89.8c-5.6,5.5-14.5,5.6-20.1.4l-91.6-94.8c-20.2-18.3-31.7-44.3-31.7-71.3v-111.8c0-37,30.1-67,67.1-67h124.7c36.9,0,67,30.1,67,67Z"/>
          <path class="cls-1" d="M312.4,69.4h-124.7c-40.4,0-73.3,32.9-73.3,73.3v111.8c0,28.8,12.3,56.5,34,76.1l91.2,94.4c4,3.7,9.1,5.6,14.2,5.6s10.7-2.1,14.9-6.2l74.3-90.1c2.6-3.2,5.4-6,8.4-9.1l1.8-1.8c21-21.3,32.6-49.3,32.6-79v-101.8c0-40.4-32.9-73.3-73.3-73.3ZM379.4,244.5c0,28-10.9,54.5-30.8,74.6l-1.8,1.8c-3,3-6,6.1-8.7,9.5l-74.1,89.8c-5.6,5.5-14.5,5.6-20.1.4l-91.6-94.8c-20.2-18.3-31.7-44.3-31.7-71.3v-111.8c0-37,30.1-67,67.1-67h124.7c36.9,0,67,30.1,67,67v101.8Z"/>
        </g>
        <path class="cls-3" d="M364.9,151.2v88.3c0,25.9-10.5,49.5-27.5,66.6-3.1,3.2-6.2,6.2-9,9.6l-64.4,78.1c-5.9,5.8-15.2,5.9-21.3.3l-79-81.8-.4-.3c-17.4-15.8-28.4-38.6-28.4-63.9v-96.9c0-33.4,27.4-60.8,60.9-60.8h108.1c33.4,0,60.8,27.4,60.8,60.8Z"/>
        <polygon class="cls-2" points="249.8 139.3 209.8 188.3 289.9 188.3 249.8 139.3"/>
      </g>
    </g>
  </g>
</svg>