<?xml version="1.0" encoding="UTF-8"?>
<svg xmlns="http://www.w3.org/2000/svg" version="1.1" viewBox="0 0 500 500">
  <defs>
    <style>
      .cls-1 {
        fill: #008cff;
      }

      .cls-2 {
        fill: #fff;
      }

      .cls-3 {
        fill: #006db7;
      }
    </style>
  </defs>
  <!-- Generator: Adobe Illustrator 28.6.0, SVG Export Plug-In . SVG Version: 1.2.0 Build 709)  -->
  <g>
    <g id="Layer_1">
      <g id="Layer_1-2" data-name="Layer_1">
        <g>
          <g>
            <path class="cls-3" d="M406.4,250c0,86.2-70.2,156.4-156.4,156.4s-156.4-70.2-156.4-156.4S163.8,93.6,250,93.6s156.4,70.2,156.4,156.4Z"/>
            <path class="cls-3" d="M250,87.8c-89.4,0-162.2,72.8-162.2,162.2s72.8,162.2,162.2,162.2,162.2-72.8,162.2-162.2-72.8-162.2-162.2-162.2h0ZM93.6,250c0-86.2,70.2-156.4,156.4-156.4s156.4,70.2,156.4,156.4-70.2,156.4-156.4,156.4-156.4-70.2-156.4-156.4Z"/>
          </g>
          <circle class="cls-1" cx="250" cy="250" r="143.2"/>
          <polygon class="cls-2" points="346 167.6 335 156.6 252.6 239 170.2 156.6 159.2 167.6 241.6 250 159.2 332.4 170.2 343.4 252.6 261 335 343.4 346 332.4 263.6 250 346 167.6"/>
        </g>
      </g>
    </g>
  </g>
</svg>