<?xml version="1.0" encoding="UTF-8"?>
<svg xmlns="http://www.w3.org/2000/svg" version="1.1" viewBox="0 0 500 500">
  <defs>
    <style>
      .cls-1 {
        fill: #008cff;
      }

      .cls-2 {
        fill: #fff;
      }

      .cls-3 {
        fill: #006db7;
      }
    </style>
  </defs>
  <!-- Generator: Adobe Illustrator 28.6.0, SVG Export Plug-In . SVG Version: 1.2.0 Build 709)  -->
  <g>
    <g id="Layer_1">
      <g>
        <g>
          <circle class="cls-3" cx="250" cy="250" r="176.9" transform="translate(-103.6 250) rotate(-45)"/>
          <path class="cls-3" d="M250,430.1c-99.3,0-180.1-80.8-180.1-180.1S150.7,69.9,250,69.9s180.1,80.8,180.1,180.1-80.8,180.1-180.1,180.1ZM250,76.4c-95.7,0-173.6,77.9-173.6,173.6s77.9,173.6,173.6,173.6,173.6-77.9,173.6-173.6-77.9-173.6-173.6-173.6Z"/>
        </g>
        <circle class="cls-1" cx="250" cy="250" r="159"/>
        <polygon class="cls-2" points="356.6 158.5 344.4 146.3 252.9 237.8 161.4 146.3 149.2 158.5 240.7 250 149.2 341.5 161.4 353.7 252.9 262.2 344.4 353.7 356.6 341.5 265.1 250 356.6 158.5"/>
      </g>
    </g>
  </g>
</svg>